<?xml version="1.0" encoding="UTF-8" standalone="no"?><svg width="82.194" height="72.328" xmlns="http://www.w3.org/2000/svg"><style><![CDATA[@import url("https://fonts.googleapis.com/css?family=IM+Fell+Great+Primer");]]></style><rect x="0" y="0" width="82.194" height="72.328" id="background" fill="#FFF2C8"/><g id="map" transform="translate(45.8 34.111)"><g fill="none"><polyline points="-3.278,-13.073 4.431,-22.904 5.376,-28.366 5.693,-31.187 5.695,-33.186 5.489,-34.972 5.073,-36.543 4.483,-38.102 3.72,-39.65 2.782,-41.185 1.671,-42.709 0.411,-44.302 -0.999,-45.964 -2.557,-47.695 -4.264,-49.495 -6.121,-51.364 -8.126,-53.302 -10.28,-55.309 -12.584,-57.385 -14.548,-59.619 -16.173,-62.011 -17.458,-64.561 -18.405,-67.268 -18.961,-70.551 -19.127,-74.409 -18.748,-80.095 -17.364,-91.365" stroke="#A5A58C" stroke-width="2.132" stroke-linejoin="round" stroke-linecap="butt"/><polyline points="-3.278,-13.073 4.431,-22.904 5.376,-28.366 5.693,-31.187 5.695,-33.186 5.489,-34.972 5.073,-36.543 4.483,-38.102 3.72,-39.65 2.782,-41.185 1.671,-42.709 0.411,-44.302 -0.999,-45.964 -2.557,-47.695 -4.264,-49.495 -6.121,-51.364 -8.126,-53.302 -10.28,-55.309 -12.584,-57.385 -14.548,-59.619 -16.173,-62.011 -17.458,-64.561 -18.405,-67.268 -18.961,-70.551 -19.127,-74.409 -18.748,-80.095 -17.364,-91.365" stroke="#FFF2C8" stroke-width="1.868" stroke-linejoin="round" stroke-linecap="round"/></g><g fill="none"><polyline points="-2.188,22.861 -10.109,31.848 -14.71,38.65 -16.904,42.385 -18.226,45.32 -19.188,48.21 -19.788,51.056 -20.177,54.569 -20.355,58.749 -20.261,64.975 -19.712,77.382" stroke="#A5A58C" stroke-width="2.132" stroke-linejoin="round" stroke-linecap="butt"/><polyline points="-2.188,22.861 -10.109,31.848 -14.71,38.65 -16.904,42.385 -18.226,45.32 -19.188,48.21 -19.788,51.056 -20.177,54.569 -20.355,58.749 -20.261,64.975 -19.712,77.382" stroke="#FFF2C8" stroke-width="1.868" stroke-linejoin="round" stroke-linecap="round"/></g><g fill="none"><polyline points="114.917,-9.953 107.909,-13.682 104.276,-15.616 101.681,-16.997 99.345,-18.24 97.269,-19.345 95.192,-20.45 93.116,-21.555 91.04,-22.66 88.963,-23.765 86.984,-24.711 85.101,-25.5 83.314,-26.129 81.624,-26.601 80.031,-26.914 78.534,-27.068 77.134,-27.064 75.831,-26.902 74.527,-26.74 73.223,-26.578 71.92,-26.415 70.616,-26.253 69.313,-26.091 68.009,-25.929 66.706,-25.766 65.402,-25.604 64.085,-25.389 62.756,-25.122 61.413,-24.802 60.057,-24.429 58.687,-24.003 57.305,-23.525 55.91,-22.995 54.501,-22.411 53.093,-21.828 51.684,-21.245 50.276,-20.661 48.867,-20.078 47.458,-19.495 46.05,-18.912 44.641,-18.328 43.233,-17.745 41.881,-17.159 40.586,-16.569 39.349,-15.977 38.168,-15.382 37.044,-14.783 35.977,-14.182 34.966,-13.578 34.013,-12.971 33.06,-12.363 32.107,-11.756 31.153,-11.149 30.2,-10.542 29.128,-9.858 27.936,-9.099 26.268,-8.037 23.051,-5.987 20.604,-4.245 19.336,-3.341 18.429,-2.696 17.614,-2.115 16.889,-1.598 16.164,-1.082 15.439,-0.566 14.714,-0.05 13.989,0.467 13.276,0.938 12.573,1.364 11.882,1.745 11.202,2.081 10.534,2.371 9.876,2.616 9.23,2.817 8.595,2.972 7.96,3.127 7.325,3.282 6.69,3.437 6.055,3.592 5.341,3.767 4.547,3.96 3.436,4.232 1.293,4.755 -1.321,4.147 -2.676,3.832 -3.644,3.607 -4.515,3.404 -5.289,3.224 -6.063,3.044 -6.838,2.864 -7.612,2.684 -8.386,2.503 -9.15,2.372 -9.904,2.288 -10.647,2.253 -11.38,2.266 -12.103,2.327 -12.815,2.436 -13.518,2.594 -14.209,2.8 -14.901,3.006 -15.593,3.212 -16.285,3.418 -16.977,3.624 -17.668,3.83 -18.36,4.036 -19.052,4.242 -19.744,4.448 -20.428,4.706 -21.104,5.016 -21.771,5.378 -22.431,5.792 -23.083,6.258 -23.727,6.777 -24.364,7.347 -24.992,7.969 -25.62,8.592 -26.248,9.214 -26.876,9.837 -27.504,10.459 -28.132,11.082 -28.76,11.704 -29.389,12.327 -30.017,12.949 -30.647,13.524 -31.278,14.052 -31.911,14.533 -32.546,14.966 -33.182,15.352 -33.82,15.691 -34.46,15.983 -35.101,16.227 -35.742,16.471 -36.384,16.716 -37.025,16.96 -37.666,17.204 -38.307,17.448 -38.949,17.693 -39.59,17.937 -40.231,18.181 -40.887,18.339 -41.557,18.409 -42.242,18.392 -42.941,18.289 -43.654,18.098 -44.382,17.821 -45.124,17.456 -45.88,17.005 -46.637,16.554 -47.393,16.102 -48.15,15.651 -48.906,15.199 -49.663,14.748 -50.419,14.297 -51.176,13.845 -51.932,13.394 -52.785,13.021 -53.733,12.727 -54.777,12.511 -55.917,12.374 -57.152,12.315 -58.484,12.335 -59.911,12.433 -61.434,12.61 -62.957,12.787 -64.48,12.963 -66.003,13.14 -67.527,13.317 -69.24,13.516 -71.144,13.737 -73.809,14.047 -78.95,14.643" stroke="#4C5950" stroke-width="4.87" stroke-linejoin="round" stroke-linecap="butt"/><polyline points="114.917,-9.953 107.909,-13.682 104.276,-15.616 101.681,-16.997 99.345,-18.24 97.269,-19.345 95.192,-20.45 93.116,-21.555 91.04,-22.66 88.963,-23.765 86.984,-24.711 85.101,-25.5 83.314,-26.129 81.624,-26.601 80.031,-26.914 78.534,-27.068 77.134,-27.064 75.831,-26.902 74.527,-26.74 73.223,-26.578 71.92,-26.415 70.616,-26.253 69.313,-26.091 68.009,-25.929 66.706,-25.766 65.402,-25.604 64.085,-25.389 62.756,-25.122 61.413,-24.802 60.057,-24.429 58.687,-24.003 57.305,-23.525 55.91,-22.995 54.501,-22.411 53.093,-21.828 51.684,-21.245 50.276,-20.661 48.867,-20.078 47.458,-19.495 46.05,-18.912 44.641,-18.328 43.233,-17.745 41.881,-17.159 40.586,-16.569 39.349,-15.977 38.168,-15.382 37.044,-14.783 35.977,-14.182 34.966,-13.578 34.013,-12.971 33.06,-12.363 32.107,-11.756 31.153,-11.149 30.2,-10.542 29.128,-9.858 27.936,-9.099 26.268,-8.037 23.051,-5.987 20.604,-4.245 19.336,-3.341 18.429,-2.696 17.614,-2.115 16.889,-1.598 16.164,-1.082 15.439,-0.566 14.714,-0.05 13.989,0.467 13.276,0.938 12.573,1.364 11.882,1.745 11.202,2.081 10.534,2.371 9.876,2.616 9.23,2.817 8.595,2.972 7.96,3.127 7.325,3.282 6.69,3.437 6.055,3.592 5.341,3.767 4.547,3.96 3.436,4.232 1.293,4.755 -1.321,4.147 -2.676,3.832 -3.644,3.607 -4.515,3.404 -5.289,3.224 -6.063,3.044 -6.838,2.864 -7.612,2.684 -8.386,2.503 -9.15,2.372 -9.904,2.288 -10.647,2.253 -11.38,2.266 -12.103,2.327 -12.815,2.436 -13.518,2.594 -14.209,2.8 -14.901,3.006 -15.593,3.212 -16.285,3.418 -16.977,3.624 -17.668,3.83 -18.36,4.036 -19.052,4.242 -19.744,4.448 -20.428,4.706 -21.104,5.016 -21.771,5.378 -22.431,5.792 -23.083,6.258 -23.727,6.777 -24.364,7.347 -24.992,7.969 -25.62,8.592 -26.248,9.214 -26.876,9.837 -27.504,10.459 -28.132,11.082 -28.76,11.704 -29.389,12.327 -30.017,12.949 -30.647,13.524 -31.278,14.052 -31.911,14.533 -32.546,14.966 -33.182,15.352 -33.82,15.691 -34.46,15.983 -35.101,16.227 -35.742,16.471 -36.384,16.716 -37.025,16.96 -37.666,17.204 -38.307,17.448 -38.949,17.693 -39.59,17.937 -40.231,18.181 -40.887,18.339 -41.557,18.409 -42.242,18.392 -42.941,18.289 -43.654,18.098 -44.382,17.821 -45.124,17.456 -45.88,17.005 -46.637,16.554 -47.393,16.102 -48.15,15.651 -48.906,15.199 -49.663,14.748 -50.419,14.297 -51.176,13.845 -51.932,13.394 -52.785,13.021 -53.733,12.727 -54.777,12.511 -55.917,12.374 -57.152,12.315 -58.484,12.335 -59.911,12.433 -61.434,12.61 -62.957,12.787 -64.48,12.963 -66.003,13.14 -67.527,13.317 -69.24,13.516 -71.144,13.737 -73.809,14.047 -78.95,14.643" stroke="#779988" stroke-width="4.606" stroke-linejoin="round" stroke-linecap="round"/><polyline points="114.917,-9.953 107.909,-13.682 104.276,-15.616 101.681,-16.997 99.345,-18.24 97.269,-19.345 95.192,-20.45 93.116,-21.555 91.04,-22.66 88.963,-23.765 86.984,-24.711 85.101,-25.5 83.314,-26.129 81.624,-26.601 80.031,-26.914 78.534,-27.068 77.134,-27.064 75.831,-26.902 74.527,-26.74 73.223,-26.578 71.92,-26.415 70.616,-26.253 69.313,-26.091 68.009,-25.929 66.706,-25.766 65.402,-25.604 64.085,-25.389 62.756,-25.122 61.413,-24.802 60.057,-24.429 58.687,-24.003 57.305,-23.525 55.91,-22.995 54.501,-22.411 53.093,-21.828 51.684,-21.245 50.276,-20.661 48.867,-20.078 47.458,-19.495 46.05,-18.912 44.641,-18.328 43.233,-17.745 41.881,-17.159 40.586,-16.569 39.349,-15.977 38.168,-15.382 37.044,-14.783 35.977,-14.182 34.966,-13.578 34.013,-12.971 33.06,-12.363 32.107,-11.756 31.153,-11.149 30.2,-10.542 29.128,-9.858 27.936,-9.099 26.268,-8.037 23.051,-5.987 20.604,-4.245 19.336,-3.341 18.429,-2.696 17.614,-2.115 16.889,-1.598 16.164,-1.082 15.439,-0.566 14.714,-0.05 13.989,0.467 13.276,0.938 12.573,1.364 11.882,1.745 11.202,2.081 10.534,2.371 9.876,2.616 9.23,2.817 8.595,2.972 7.96,3.127 7.325,3.282 6.69,3.437 6.055,3.592 5.341,3.767 4.547,3.96 3.436,4.232 1.293,4.755 -1.321,4.147 -2.676,3.832 -3.644,3.607 -4.515,3.404 -5.289,3.224 -6.063,3.044 -6.838,2.864 -7.612,2.684 -8.386,2.503 -9.15,2.372 -9.904,2.288 -10.647,2.253 -11.38,2.266 -12.103,2.327 -12.815,2.436 -13.518,2.594 -14.209,2.8 -14.901,3.006 -15.593,3.212 -16.285,3.418 -16.977,3.624 -17.668,3.83 -18.36,4.036 -19.052,4.242 -19.744,4.448 -20.428,4.706 -21.104,5.016 -21.771,5.378 -22.431,5.792 -23.083,6.258 -23.727,6.777 -24.364,7.347 -24.992,7.969 -25.62,8.592 -26.248,9.214 -26.876,9.837 -27.504,10.459 -28.132,11.082 -28.76,11.704 -29.389,12.327 -30.017,12.949 -30.647,13.524 -31.278,14.052 -31.911,14.533 -32.546,14.966 -33.182,15.352 -33.82,15.691 -34.46,15.983 -35.101,16.227 -35.742,16.471 -36.384,16.716 -37.025,16.96 -37.666,17.204 -38.307,17.448 -38.949,17.693 -39.59,17.937 -40.231,18.181 -40.887,18.339 -41.557,18.409 -42.242,18.392 -42.941,18.289 -43.654,18.098 -44.382,17.821 -45.124,17.456 -45.88,17.005 -46.637,16.554 -47.393,16.102 -48.15,15.651 -48.906,15.199 -49.663,14.748 -50.419,14.297 -51.176,13.845 -51.932,13.394 -52.785,13.021 -53.733,12.727 -54.777,12.511 -55.917,12.374 -57.152,12.315 -58.484,12.335 -59.911,12.433 -61.434,12.61 -62.957,12.787 -64.48,12.963 -66.003,13.14 -67.527,13.317 -69.24,13.516 -71.144,13.737 -73.809,14.047 -78.95,14.643" stroke="#4C5950" stroke-width="2.922" stroke-linejoin="round" stroke-linecap="butt"/><polyline points="114.917,-9.953 107.909,-13.682 104.276,-15.616 101.681,-16.997 99.345,-18.24 97.269,-19.345 95.192,-20.45 93.116,-21.555 91.04,-22.66 88.963,-23.765 86.984,-24.711 85.101,-25.5 83.314,-26.129 81.624,-26.601 80.031,-26.914 78.534,-27.068 77.134,-27.064 75.831,-26.902 74.527,-26.74 73.223,-26.578 71.92,-26.415 70.616,-26.253 69.313,-26.091 68.009,-25.929 66.706,-25.766 65.402,-25.604 64.085,-25.389 62.756,-25.122 61.413,-24.802 60.057,-24.429 58.687,-24.003 57.305,-23.525 55.91,-22.995 54.501,-22.411 53.093,-21.828 51.684,-21.245 50.276,-20.661 48.867,-20.078 47.458,-19.495 46.05,-18.912 44.641,-18.328 43.233,-17.745 41.881,-17.159 40.586,-16.569 39.349,-15.977 38.168,-15.382 37.044,-14.783 35.977,-14.182 34.966,-13.578 34.013,-12.971 33.06,-12.363 32.107,-11.756 31.153,-11.149 30.2,-10.542 29.128,-9.858 27.936,-9.099 26.268,-8.037 23.051,-5.987 20.604,-4.245 19.336,-3.341 18.429,-2.696 17.614,-2.115 16.889,-1.598 16.164,-1.082 15.439,-0.566 14.714,-0.05 13.989,0.467 13.276,0.938 12.573,1.364 11.882,1.745 11.202,2.081 10.534,2.371 9.876,2.616 9.23,2.817 8.595,2.972 7.96,3.127 7.325,3.282 6.69,3.437 6.055,3.592 5.341,3.767 4.547,3.96 3.436,4.232 1.293,4.755 -1.321,4.147 -2.676,3.832 -3.644,3.607 -4.515,3.404 -5.289,3.224 -6.063,3.044 -6.838,2.864 -7.612,2.684 -8.386,2.503 -9.15,2.372 -9.904,2.288 -10.647,2.253 -11.38,2.266 -12.103,2.327 -12.815,2.436 -13.518,2.594 -14.209,2.8 -14.901,3.006 -15.593,3.212 -16.285,3.418 -16.977,3.624 -17.668,3.83 -18.36,4.036 -19.052,4.242 -19.744,4.448 -20.428,4.706 -21.104,5.016 -21.771,5.378 -22.431,5.792 -23.083,6.258 -23.727,6.777 -24.364,7.347 -24.992,7.969 -25.62,8.592 -26.248,9.214 -26.876,9.837 -27.504,10.459 -28.132,11.082 -28.76,11.704 -29.389,12.327 -30.017,12.949 -30.647,13.524 -31.278,14.052 -31.911,14.533 -32.546,14.966 -33.182,15.352 -33.82,15.691 -34.46,15.983 -35.101,16.227 -35.742,16.471 -36.384,16.716 -37.025,16.96 -37.666,17.204 -38.307,17.448 -38.949,17.693 -39.59,17.937 -40.231,18.181 -40.887,18.339 -41.557,18.409 -42.242,18.392 -42.941,18.289 -43.654,18.098 -44.382,17.821 -45.124,17.456 -45.88,17.005 -46.637,16.554 -47.393,16.102 -48.15,15.651 -48.906,15.199 -49.663,14.748 -50.419,14.297 -51.176,13.845 -51.932,13.394 -52.785,13.021 -53.733,12.727 -54.777,12.511 -55.917,12.374 -57.152,12.315 -58.484,12.335 -59.911,12.433 -61.434,12.61 -62.957,12.787 -64.48,12.963 -66.003,13.14 -67.527,13.317 -69.24,13.516 -71.144,13.737 -73.809,14.047 -78.95,14.643" stroke="#779988" stroke-width="2.79" stroke-linejoin="round" stroke-linecap="round"/><g fill="none"><line x1="0.757" y1="7.539" x2="1.343" y2="1.92" stroke="#4C5950" stroke-width="2.132" stroke-linejoin="round" stroke-linecap="butt"/><line x1="0.757" y1="7.539" x2="1.343" y2="1.92" stroke="#FFF2C8" stroke-width="1.868" stroke-linejoin="round" stroke-linecap="round"/></g><g fill="none"><line x1="24.628" y1="-3.631" x2="21.473" y2="-8.343" stroke="#4C5950" stroke-width="0.932" stroke-linejoin="round" stroke-linecap="butt"/><line x1="24.628" y1="-3.631" x2="21.473" y2="-8.343" stroke="#FFF2C8" stroke-width="0.668" stroke-linejoin="round" stroke-linecap="round"/></g></g><g fill="#D6A36E" stroke="#4C5950" stroke-width="0.132"><polygon points="0.668,-3.886 0.155,-2.647 -1.084,-2.134 -2.323,-2.647 -2.837,-3.886 -2.323,-5.125 -1.084,-5.638 0.155,-5.125"/></g><g fill="#D6A36E" stroke="#D6A36E" stroke-width="0.132"><g fill="#4C5950" stroke="#4C5950" stroke-width="0.132" stroke-linejoin="round"><polygon points="8.348,-18.804 4.044,-14.067 0.965,-16.864 0.965,-17.264 4.044,-14.467 8.348,-19.204"/><polygon points="4.044,-14.067 0.694,-10.379 -1.955,-13.139 -1.955,-13.539 0.694,-10.779 4.044,-14.467"/><polygon points="10.254,-6.694 7.325,-3.47 4.358,-6.562 4.358,-6.962 7.325,-3.87 10.254,-7.094"/><polygon points="2.812,-8.172 0.694,-10.379 0.694,-10.779 2.812,-8.572"/><polygon points="5.963,-11.641 2.812,-8.172 2.812,-8.572 5.963,-12.041"/><polygon points="7.611,-10.143 4.358,-6.562 2.812,-8.172 2.812,-8.572 4.358,-6.962 7.611,-10.543"/><polygon points="14.987,-4.215 12.542,-2.474 9.188,-5.521 9.188,-5.921 12.542,-2.874 14.987,-4.615"/><polygon points="12.542,-2.474 10.011,-0.672 7.325,-3.47 7.325,-3.87 10.011,-1.072 12.542,-2.874"/></g><polygon points="0.965,-17.264 4.925,-22.314 8.348,-19.204 4.044,-14.467"/><polygon points="4.044,-14.467 0.694,-10.779 -1.955,-13.539 0.965,-17.264"/><polygon points="10.254,-7.094 7.325,-3.87 4.358,-6.962 7.089,-9.969"/><polygon points="2.812,-8.572 0.694,-10.779 3.704,-14.093 5.963,-12.041"/><polygon points="5.963,-12.041 7.611,-10.543 4.358,-6.962 2.812,-8.572"/><polygon points="9.188,-5.921 11.16,-8.092 14.987,-4.615 12.542,-2.874"/><polygon points="12.542,-2.874 10.011,-1.072 7.325,-3.87 9.188,-5.921"/></g><g fill="#D6A36E" stroke="#D6A36E" stroke-width="0.132"><g fill="#4C5950" stroke="#4C5950" stroke-width="0.132" stroke-linejoin="round"><polygon points="-6.062,18.896 -9.136,16.174 -12.901,12.839 -15.615,10.435 -15.615,9.635 -12.901,12.039 -9.136,15.374 -6.062,18.096"/><polygon points="-4.515,10.957 -6.671,13.39 -6.671,12.59 -4.515,10.157"/><polygon points="-3.597,16.113 -6.062,18.896 -6.062,18.096 -3.597,15.313"/></g><polygon points="-6.062,18.096 -9.136,15.374 -12.901,12.039 -15.615,9.635 -13.15,6.852 -10.436,9.256 -8.28,6.822 -4.515,10.157 -6.671,12.59 -3.597,15.313"/></g><g fill="#D6A36E" stroke="#D6A36E" stroke-width="0.132"><g fill="#4C5950" stroke="#4C5950" stroke-width="0.132" stroke-linejoin="round"><polygon points="24.986,0.387 24.166,0.839 22.722,-1.781 22.722,-2.181 24.166,0.439 24.986,-0.013"/><polygon points="22.653,1.672 20.946,2.614 19.707,0.366 19.707,-0.034 20.946,2.214 22.653,1.272"/><polygon points="24.166,0.839 22.653,1.672 21.306,-0.772 21.306,-1.172 22.653,1.272 24.166,0.439"/></g><polygon points="22.722,-2.181 23.878,-3.004 24.986,-0.013 24.166,0.439"/><polygon points="22.653,1.272 20.946,2.214 19.707,-0.034 21.306,-1.172"/><polygon points="21.306,-1.172 22.722,-2.181 24.166,0.439 22.653,1.272"/><g fill="#4C5950" stroke="#4C5950" stroke-width="0.132" stroke-linejoin="round"><polygon points="17.974,5.781 16.415,6.64 14.86,3.819 14.86,3.419 16.415,6.24 17.974,5.381"/><polygon points="16.415,6.64 14.107,7.912 12.823,5.269 12.823,4.869 14.107,7.512 16.415,6.24"/><polygon points="10.472,11.05 8.913,11.62 7.884,8.808 7.884,8.408 8.913,11.22 10.472,10.65"/></g><polygon points="14.86,3.419 16.319,2.379 17.974,5.381 16.415,6.24"/><polygon points="16.415,6.24 14.107,7.512 12.823,4.869 14.86,3.419"/><polygon points="10.472,10.65 8.913,11.22 7.884,8.408 9.443,7.838"/><g fill="#4C5950" stroke="#4C5950" stroke-width="0.132" stroke-linejoin="round"><polygon points="7.226,9.339 3.93,11.137 1.689,7.989 1.689,7.589 3.93,10.737 7.226,8.939"/></g><polygon points="1.689,7.589 6.318,6.458 7.226,8.939 3.93,10.737"/><g fill="#4C5950" stroke="#4C5950" stroke-width="0.132" stroke-linejoin="round"><polygon points="9.05,18.127 5.98,19.681 4.106,15.976 4.106,15.576 5.98,19.281 9.05,17.727"/><polygon points="4.106,15.976 2.511,12.824 2.511,12.424 4.106,15.576"/><polygon points="8.789,13.607 4.106,15.976 4.106,15.576 8.789,13.207"/><polygon points="5.98,19.681 3.068,21.154 0.555,13.891 0.555,13.491 3.068,20.754 5.98,19.281"/><polygon points="3.068,21.154 -0.758,23.09 -1.176,22.894 -1.176,22.494 -0.758,22.69 3.068,20.754"/></g><polygon points="9.05,17.727 5.98,19.281 4.106,15.576 7.176,14.023"/><polygon points="4.106,15.576 2.511,12.424 7.504,9.698 8.789,13.207"/><polygon points="0.555,13.491 2.511,12.424 5.98,19.281 3.068,20.754"/><polygon points="3.068,20.754 -0.758,22.69 -1.176,22.494 0.555,13.491"/></g><g fill="#D6A36E" stroke="#D6A36E" stroke-width="0.132"><g fill="#4C5950" stroke="#4C5950" stroke-width="0.132" stroke-linejoin="round"><polygon points="-7.338,-7.469 -10.532,-1.363 -12.352,-1.36 -14.464,-5.357 -14.464,-5.757 -12.352,-1.76 -10.532,-1.763 -7.338,-7.869"/></g><polygon points="-7.338,-7.869 -10.532,-1.763 -12.352,-1.76 -14.464,-5.757"/><g fill="#4C5950" stroke="#4C5950" stroke-width="0.132" stroke-linejoin="round"><polygon points="-9.325,-7.715 -14.845,-6.078 -15.983,-8.232 -15.983,-8.632 -14.845,-6.478 -9.325,-8.115"/><polygon points="-5.837,-10.338 -6.821,-8.457 -9.325,-7.715 -11.961,-11.46 -11.961,-11.86 -9.325,-8.115 -6.821,-8.857 -5.837,-10.738"/><polygon points="-4.287,-13.302 -5.837,-10.338 -8.887,-14.012 -8.887,-14.412 -5.837,-10.738 -4.287,-13.702"/></g><polygon points="-11.395,-11.056 -9.325,-8.115 -14.845,-6.478 -15.983,-8.632"/><polygon points="-5.837,-10.738 -6.821,-8.857 -9.325,-8.115 -11.961,-11.86 -8.887,-14.412"/><polygon points="-8.887,-14.412 -7.219,-15.796 -4.287,-13.702 -5.837,-10.738"/></g><g fill="#D6A36E" stroke="#D6A36E" stroke-width="0.132"><g fill="#4C5950" stroke="#4C5950" stroke-width="0.132" stroke-linejoin="round"><polygon points="-3.201,22.498 -4.308,23.753 -6.53,21.795 -6.53,21.395 -4.308,23.353 -3.201,22.098"/><polygon points="-4.308,23.753 -6.428,26.159 -8.651,24.201 -8.651,23.801 -6.428,25.759 -4.308,23.353"/><polygon points="-6.918,19.207 -8.864,21.415 -11.387,19.192 -11.387,18.792 -8.864,21.015 -6.918,18.807"/><polygon points="-6.428,26.159 -8.813,28.865 -12.488,25.625 -12.488,25.225 -8.813,28.465 -6.428,25.759"/><polygon points="-12.858,29.267 -14.562,27.978 -14.562,27.578 -12.858,28.867"/><polygon points="-10.89,27.034 -12.858,29.267 -12.858,28.867 -10.89,26.634"/></g><polygon points="-6.53,21.395 -5.419,20.134 -3.201,22.098 -4.308,23.353"/><polygon points="-4.308,23.353 -6.428,25.759 -8.651,23.801 -6.53,21.395"/><polygon points="-11.387,18.792 -9.435,16.578 -6.918,18.807 -8.864,21.015"/><polygon points="-12.488,25.225 -10.104,22.52 -6.428,25.759 -8.813,28.465"/><polygon points="-12.858,28.867 -14.562,27.578 -12.488,25.225 -10.89,26.634"/></g><g fill="#D6A36E" stroke="#D6A36E" stroke-width="0.132"><g fill="#4C5950" stroke="#4C5950" stroke-width="0.132" stroke-linejoin="round"><polygon points="-13.028,-0.927 -16.982,0.25 -18.316,-2.276 -18.316,-2.676 -16.982,-0.15 -13.028,-1.327"/></g><polygon points="-14.739,-4.566 -13.028,-1.327 -16.982,-0.15 -18.316,-2.676"/></g><g stroke="#99AA77" stroke-width="0.132" stroke-linecap="butt"><line x1="-21.483" y1="-28.366" x2="-19.045" y2="-25.564"/><line x1="-21.2" y1="-30.208" x2="-14.068" y2="-22.009"/><line x1="-20.126" y1="-31.141" x2="-9.091" y2="-18.454"/><line x1="-19.053" y1="-32.075" x2="-6.601" y2="-17.758"/><line x1="-17.98" y1="-33.008" x2="-5.503" y2="-18.663"/><line x1="-16.907" y1="-33.941" x2="-4.609" y2="-19.803"/><line x1="-15.834" y1="-34.875" x2="-3.716" y2="-20.942"/><line x1="-14.761" y1="-35.808" x2="-2.822" y2="-22.082"/><line x1="-13.688" y1="-36.742" x2="-1.928" y2="-23.222"/><line x1="-12.615" y1="-37.675" x2="-1.056" y2="-24.386"/><line x1="-11.541" y1="-38.608" x2="-0.407" y2="-25.807"/><line x1="-10.468" y1="-39.542" x2="-0.042" y2="-27.554"/><line x1="-9.395" y1="-40.475" x2="0.271" y2="-29.362"/><line x1="-8.322" y1="-41.409" x2="0.584" y2="-31.169"/><line x1="-7.215" y1="-42.303" x2="0.897" y2="-32.976"/><line x1="-5.666" y1="-42.689" x2="0.003" y2="-36.171"/><g fill="#D6A36E" stroke="#D6A36E" stroke-width="0.132"><g fill="#4C5950" stroke="#4C5950" stroke-width="0.132" stroke-linejoin="round"><polygon points="-7.749,-18.249 -8.369,-19.013 -8.369,-19.253 -7.749,-18.489"/><polygon points="-7.471,-19.743 -8.468,-20.971 -9.121,-21.774 -9.121,-22.014 -8.468,-21.211 -7.471,-19.983"/><polygon points="-4.983,-20.497 -6.042,-19.637 -6.85,-18.979 -7.749,-18.249 -7.749,-18.489 -6.85,-19.219 -6.042,-19.877 -4.983,-20.737"/></g><polygon points="-7.749,-18.489 -8.369,-19.253 -7.471,-19.983 -8.468,-21.211 -9.121,-22.014 -8.313,-22.671 -7.254,-23.531 -6.601,-22.728 -5.604,-21.5 -4.983,-20.737 -6.042,-19.877 -6.85,-19.219"/></g></g><g stroke="#99AA77" stroke-width="0.132" stroke-linecap="butt"><line x1="14.429" y1="-36.074" x2="11.86" y2="-34.375"/><line x1="17.282" y1="-36.528" x2="11.393" y2="-32.634"/><line x1="20.135" y1="-36.982" x2="11.113" y2="-31.017"/><line x1="22.142" y1="-36.877" x2="10.833" y2="-29.4"/><line x1="23.157" y1="-36.116" x2="10.553" y2="-27.783"/><line x1="24.13" y1="-35.327" x2="10.273" y2="-26.166"/><line x1="24.789" y1="-34.331" x2="9.993" y2="-24.548"/><line x1="25.448" y1="-33.334" x2="9.713" y2="-22.931"/><line x1="26.106" y1="-32.338" x2="9.513" y2="-21.368"/><line x1="26.765" y1="-31.341" x2="9.925" y2="-20.207"/><line x1="27.424" y1="-30.345" x2="10.336" y2="-19.047"/><line x1="28.083" y1="-29.348" x2="11.148" y2="-18.152"/><line x1="28.742" y1="-28.352" x2="12.06" y2="-17.323"/><line x1="29.4" y1="-27.355" x2="12.973" y2="-16.494"/><line x1="30.059" y1="-26.359" x2="13.885" y2="-15.665"/><line x1="30.718" y1="-25.362" x2="14.797" y2="-14.837"/><line x1="31.377" y1="-24.366" x2="15.709" y2="-14.008"/><line x1="32.036" y1="-23.37" x2="16.622" y2="-13.179"/><line x1="32.694" y1="-22.373" x2="17.534" y2="-12.35"/><line x1="33.353" y1="-21.377" x2="18.446" y2="-11.521"/><line x1="34.012" y1="-20.38" x2="19.359" y2="-10.692"/><line x1="34.354" y1="-19.174" x2="20.331" y2="-9.903"/><line x1="34.286" y1="-17.697" x2="22.268" y2="-9.752"/><g fill="#D6A36E" stroke="#D6A36E" stroke-width="0.132"><g fill="#4C5950" stroke="#4C5950" stroke-width="0.132" stroke-linejoin="round"><polygon points="22.973,-34.389 22.365,-33.389 22.365,-33.629 22.973,-34.629"/><polygon points="23.905,-32.452 23.227,-31.337 22.63,-30.356 21.09,-31.293 19.839,-32.054 19.839,-32.294 21.09,-31.533 22.63,-30.596 23.227,-31.577 23.905,-32.692"/></g><polygon points="19.839,-32.294 20.436,-33.275 21.114,-34.39 21.723,-35.39 22.973,-34.629 22.365,-33.629 23.905,-32.692 23.227,-31.577 22.63,-30.596 21.09,-31.533"/></g></g><g/><g/><g/><g stroke="#99AA77" stroke-width="0.132" stroke-linecap="butt"><line x1="-26.329" y1="2.778" x2="-39.336" y2="-10.347"/><line x1="-26.227" y1="4.639" x2="-40.861" y2="-10.129"/><line x1="-27.105" y1="5.509" x2="-42.387" y2="-9.911"/><line x1="-27.984" y1="6.38" x2="-43.912" y2="-9.693"/><line x1="-28.863" y1="7.251" x2="-45.107" y2="-9.142"/><line x1="-29.741" y1="8.122" x2="-45.835" y2="-8.119"/><line x1="-30.62" y1="8.992" x2="-46.441" y2="-6.973"/><line x1="-31.499" y1="9.863" x2="-46.921" y2="-5.7"/><line x1="-32.377" y1="10.734" x2="-47.4" y2="-4.426"/><line x1="-33.28" y1="11.58" x2="-47.879" y2="-3.152"/><line x1="-34.309" y1="12.3" x2="-48.359" y2="-1.879"/><line x1="-35.455" y1="12.9" x2="-48.838" y2="-0.605"/><line x1="-36.719" y1="13.382" x2="-49.317" y2="0.669"/><line x1="-37.984" y1="13.863" x2="-49.797" y2="1.942"/><line x1="-39.248" y1="14.345" x2="-50.276" y2="3.216"/><line x1="-40.512" y1="14.826" x2="-50.755" y2="4.49"/><line x1="-42.055" y1="15.027" x2="-51.235" y2="5.763"/><line x1="-45.12" y1="13.691" x2="-51.714" y2="7.037"/><line x1="-49.381" y1="11.149" x2="-51.647" y2="8.862"/><g fill="#D6A36E" stroke="#D6A36E" stroke-width="0.132"><g fill="#4C5950" stroke="#4C5950" stroke-width="0.132" stroke-linejoin="round"><polygon points="-46.809,8.857 -48.076,9.081 -48.289,7.87 -50.415,8.244 -50.593,7.235 -50.593,6.995 -50.415,8.004 -48.289,7.63 -48.076,8.841 -46.809,8.617"/><polygon points="-48.467,6.86 -48.689,5.599 -48.689,5.359 -48.467,6.62"/></g><polygon points="-46.809,8.617 -48.076,8.841 -48.289,7.63 -50.415,8.004 -50.593,6.995 -48.467,6.62 -48.689,5.359 -47.422,5.136 -47.2,6.397 -47.022,7.407"/></g></g><g/><g stroke="#99AA77" stroke-width="0.132" stroke-linecap="butt"><line x1="-23.937" y1="-31.478" x2="-8.681" y2="-44.398"/><line x1="-26.032" y1="-31.658" x2="-8.642" y2="-46.385"/><line x1="-27.093" y1="-32.713" x2="-9.504" y2="-47.609"/><line x1="-28.057" y1="-33.851" x2="-10.622" y2="-48.616"/><line x1="-29.02" y1="-34.989" x2="-11.74" y2="-49.624"/><line x1="-29.984" y1="-36.127" x2="-12.857" y2="-50.631"/><line x1="-30.948" y1="-37.265" x2="-13.975" y2="-51.638"/><line x1="-31.911" y1="-38.403" x2="-15.093" y2="-52.646"/><line x1="-32.875" y1="-39.54" x2="-16.21" y2="-53.653"/><line x1="-33.838" y1="-40.678" x2="-17.328" y2="-54.661"/><line x1="-34.802" y1="-41.816" x2="-18.445" y2="-55.668"/><line x1="-35.766" y1="-42.954" x2="-19.563" y2="-56.675"/><line x1="-36.729" y1="-44.092" x2="-20.681" y2="-57.683"/><line x1="-37.693" y1="-45.23" x2="-21.798" y2="-58.69"/><line x1="-38.603" y1="-46.413" x2="-23.421" y2="-59.27"/><line x1="-38.563" y1="-48.4" x2="-25.516" y2="-59.45"/><g fill="#D6A36E" stroke="#D6A36E" stroke-width="0.132"><g fill="#4C5950" stroke="#4C5950" stroke-width="0.132" stroke-linejoin="round"><polygon points="-24.283,-52.651 -24.992,-53.508 -26.379,-55.186 -26.379,-55.426 -24.992,-53.748 -24.283,-52.891"/><polygon points="-21.548,-54.911 -22.233,-54.345 -23.485,-53.311 -24.283,-52.651 -24.283,-52.891 -23.485,-53.551 -22.233,-54.585 -21.548,-55.151"/></g><polygon points="-24.283,-52.891 -24.992,-53.748 -26.379,-55.426 -25.58,-56.086 -24.194,-54.408 -22.942,-55.443 -22.257,-56.009 -21.548,-55.151 -22.233,-54.585 -23.485,-53.551"/></g></g><g stroke="#99AA77" stroke-width="0.132" stroke-linecap="butt"><line x1="-53.371" y1="-30.415" x2="-59.377" y2="-22.709"/><line x1="-51.872" y1="-30.086" x2="-58.712" y2="-21.31"/><line x1="-50.698" y1="-29.34" x2="-57.618" y2="-20.462"/><line x1="-49.606" y1="-28.489" x2="-56.524" y2="-19.614"/><line x1="-48.514" y1="-27.638" x2="-55.43" y2="-18.766"/><line x1="-47.423" y1="-26.787" x2="-54.335" y2="-17.918"/><line x1="-46.331" y1="-25.936" x2="-53.241" y2="-17.07"/><line x1="-45.239" y1="-25.085" x2="-52.147" y2="-16.222"/><line x1="-44.147" y1="-24.234" x2="-51.053" y2="-15.374"/><line x1="-43.055" y1="-23.383" x2="-49.959" y2="-14.526"/><line x1="-41.963" y1="-22.532" x2="-48.864" y2="-13.678"/><line x1="-40.872" y1="-21.681" x2="-47.77" y2="-12.83"/><line x1="-39.78" y1="-20.83" x2="-46.55" y2="-12.144"/><line x1="-38.688" y1="-19.979" x2="-45.263" y2="-11.543"/><line x1="-37.596" y1="-19.128" x2="-43.308" y2="-11.8"/><line x1="-36.544" y1="-18.226" x2="-41.332" y2="-12.082"/><line x1="-35.669" y1="-17.097" x2="-39.333" y2="-12.396"/><line x1="-50.658" y1="-32.733" x2="-33.729" y2="-19.538"/><line x1="-50.906" y1="-34.703" x2="-32.192" y2="-20.116"/><line x1="-50.045" y1="-35.808" x2="-31.285" y2="-21.186"/><line x1="-49.183" y1="-36.914" x2="-30.378" y2="-22.256"/><line x1="-48.322" y1="-38.019" x2="-29.47" y2="-23.325"/><line x1="-47.46" y1="-39.124" x2="-28.563" y2="-24.395"/><line x1="-46.599" y1="-40.229" x2="-27.656" y2="-25.465"/><line x1="-45.737" y1="-41.334" x2="-26.781" y2="-26.559"/><line x1="-44.876" y1="-42.44" x2="-26.138" y2="-27.835"/><line x1="-44.014" y1="-43.545" x2="-28.93" y2="-31.787"/><line x1="-43.153" y1="-44.65" x2="-33.356" y2="-37.014"/><line x1="-41.483" y1="-45.125" x2="-37.783" y2="-42.241"/></g><g/><g stroke="#99AA77" stroke-width="0.132" stroke-linecap="butt"><line x1="23.019" y1="-63.087" x2="15.948" y2="-70.788"/><line x1="22.495" y1="-61.721" x2="14.725" y2="-70.183"/><line x1="21.709" y1="-60.64" x2="13.8" y2="-69.254"/><line x1="20.744" y1="-59.755" x2="13.032" y2="-68.153"/><line x1="19.779" y1="-58.869" x2="12.264" y2="-67.053"/><line x1="18.814" y1="-57.983" x2="11.496" y2="-65.952"/><line x1="17.85" y1="-57.097" x2="10.728" y2="-64.852"/><line x1="16.885" y1="-56.211" x2="9.96" y2="-63.751"/><line x1="15.92" y1="-55.325" x2="9.193" y2="-62.651"/><line x1="14.955" y1="-54.439" x2="8.425" y2="-61.55"/><line x1="13.99" y1="-53.553" x2="7.657" y2="-60.45"/><line x1="13.025" y1="-52.667" x2="6.889" y2="-59.349"/><line x1="12.06" y1="-51.781" x2="6.121" y2="-58.249"/><line x1="11.096" y1="-50.895" x2="5.353" y2="-57.148"/><line x1="10.131" y1="-50.009" x2="4.586" y2="-56.048"/><line x1="9.166" y1="-49.123" x2="3.818" y2="-54.947"/><line x1="8.201" y1="-48.237" x2="3.05" y2="-53.847"/><line x1="7.147" y1="-47.448" x2="2.5" y2="-52.509"/><line x1="5.924" y1="-46.843" x2="1.976" y2="-51.143"/><line x1="25.489" y1="-60.193" x2="7.442" y2="-43.621"/><line x1="27.273" y1="-59.423" x2="8.494" y2="-42.179"/><line x1="28.472" y1="-58.117" x2="9.546" y2="-40.737"/><line x1="29.672" y1="-56.81" x2="10.597" y2="-39.295"/><line x1="30.872" y1="-55.504" x2="11.958" y2="-38.136"/><line x1="32.071" y1="-54.198" x2="14.562" y2="-38.12"/><line x1="33.271" y1="-52.891" x2="17.734" y2="-38.625"/><line x1="31.233" y1="-48.613" x2="20.906" y2="-39.13"/><g fill="#D6A36E" stroke="#D6A36E" stroke-width="0.132"><g fill="#4C5950" stroke="#4C5950" stroke-width="0.132" stroke-linejoin="round"><polygon points="6.12,-54.262 5.652,-53.044 5.164,-51.773 4.857,-50.972 3.2,-51.609 1.635,-52.209 1.635,-52.449 3.2,-51.849 4.857,-51.212 5.164,-52.013 5.652,-53.284 6.12,-54.502"/></g><polygon points="1.635,-52.449 1.942,-53.249 2.43,-54.52 3.994,-53.92 4.462,-55.139 6.12,-54.502 5.652,-53.284 5.164,-52.013 4.857,-51.212 3.2,-51.849"/></g></g><g/><g/><g/><g/><g/><g/><g/><g/><g stroke="#99AA77" stroke-width="0.132" stroke-linecap="butt"><line x1="-54.16" y1="-34.716" x2="-44.339" y2="-47.315"/><line x1="-55.483" y1="-34.884" x2="-44.708" y2="-48.708"/><line x1="-56.807" y1="-35.052" x2="-45.232" y2="-49.903"/><line x1="-57.834" y1="-35.602" x2="-46.13" y2="-50.617"/><line x1="-58.739" y1="-36.308" x2="-47.028" y2="-51.332"/><line x1="-59.644" y1="-37.013" x2="-47.927" y2="-52.046"/><line x1="-60.549" y1="-37.719" x2="-48.825" y2="-52.761"/><line x1="-61.454" y1="-38.424" x2="-49.723" y2="-53.475"/><line x1="-62.359" y1="-39.13" x2="-50.621" y2="-54.189"/><line x1="-63.264" y1="-39.835" x2="-51.52" y2="-54.904"/><line x1="-64.17" y1="-40.541" x2="-52.418" y2="-55.618"/><line x1="-65.075" y1="-41.247" x2="-53.316" y2="-56.333"/><line x1="-65.98" y1="-41.952" x2="-54.214" y2="-57.047"/><line x1="-66.885" y1="-42.658" x2="-55.112" y2="-57.762"/><line x1="-67.79" y1="-43.363" x2="-56.011" y2="-58.476"/><line x1="-68.695" y1="-44.069" x2="-56.909" y2="-59.19"/><line x1="-69.601" y1="-44.774" x2="-57.807" y2="-59.905"/><line x1="-70.506" y1="-45.48" x2="-58.705" y2="-60.619"/><line x1="-71.411" y1="-46.185" x2="-59.603" y2="-61.334"/><line x1="-72.316" y1="-46.891" x2="-60.502" y2="-62.048"/><line x1="-73.221" y1="-47.596" x2="-61.521" y2="-62.608"/><line x1="-74.126" y1="-48.302" x2="-62.61" y2="-63.076"/><line x1="-75.031" y1="-49.007" x2="-63.7" y2="-63.545"/><line x1="-75.937" y1="-49.713" x2="-65.105" y2="-63.61"/><line x1="-76.842" y1="-50.418" x2="-66.712" y2="-63.414"/><line x1="-77.667" y1="-51.226" x2="-68.32" y2="-63.219"/><line x1="-78.37" y1="-52.191" x2="-69.927" y2="-63.023"/><line x1="-79.074" y1="-53.155" x2="-71.535" y2="-62.827"/><line x1="-78.88" y1="-55.27" x2="-73.142" y2="-62.631"/><line x1="-77.179" y1="-59.319" x2="-74.859" y2="-62.296"/><line x1="-57.381" y1="-32.003" x2="-79.272" y2="-49.066"/><line x1="-56.929" y1="-30.229" x2="-81.349" y2="-49.263"/><line x1="-57.619" y1="-29.344" x2="-81.84" y2="-48.224"/><line x1="-58.308" y1="-28.46" x2="-82.29" y2="-47.153"/><line x1="-58.997" y1="-27.575" x2="-82.74" y2="-46.082"/><line x1="-59.687" y1="-26.691" x2="-83.19" y2="-45.011"/><line x1="-60.376" y1="-25.807" x2="-83.64" y2="-43.939"/><line x1="-61.066" y1="-24.922" x2="-84.09" y2="-42.868"/><line x1="-61.824" y1="-24.091" x2="-84.54" y2="-41.797"/><line x1="-62.923" y1="-23.526" x2="-84.99" y2="-40.726"/><line x1="-64.333" y1="-23.204" x2="-85.44" y2="-39.655"/><line x1="-65.988" y1="-23.071" x2="-85.89" y2="-38.584"/><line x1="-67.643" y1="-22.939" x2="-86.34" y2="-37.513"/><line x1="-69.297" y1="-22.807" x2="-86.79" y2="-36.442"/><line x1="-70.952" y1="-22.675" x2="-86.549" y2="-34.832"/><line x1="-72.862" y1="-22.742" x2="-83.4" y2="-30.956"/></g><g/><g stroke="#99AA77" stroke-width="0.132" stroke-linecap="butt"><line x1="-52.2" y1="-78.856" x2="-60.306" y2="-66.185"/><line x1="-50.847" y1="-78.794" x2="-59.827" y2="-64.757"/><line x1="-49.493" y1="-78.733" x2="-59.197" y2="-63.566"/><line x1="-48.46" y1="-78.172" x2="-58.274" y2="-62.832"/><line x1="-47.472" y1="-77.54" x2="-57.351" y2="-62.098"/><line x1="-46.484" y1="-76.908" x2="-56.428" y2="-61.363"/><line x1="-45.496" y1="-76.276" x2="-55.505" y2="-60.629"/><line x1="-44.507" y1="-75.644" x2="-54.582" y2="-59.895"/><line x1="-43.519" y1="-75.011" x2="-53.659" y2="-59.161"/><line x1="-42.531" y1="-74.379" x2="-52.736" y2="-58.427"/><line x1="-41.543" y1="-73.747" x2="-51.813" y2="-57.693"/><line x1="-40.555" y1="-73.115" x2="-50.891" y2="-56.959"/><line x1="-39.567" y1="-72.483" x2="-49.968" y2="-56.225"/><line x1="-38.579" y1="-71.851" x2="-49.045" y2="-55.491"/><line x1="-37.591" y1="-71.219" x2="-48.122" y2="-54.757"/><line x1="-36.603" y1="-70.587" x2="-47.199" y2="-54.023"/><line x1="-35.615" y1="-69.955" x2="-46.276" y2="-53.289"/><line x1="-34.627" y1="-69.322" x2="-45.353" y2="-52.555"/><line x1="-33.638" y1="-68.69" x2="-44.43" y2="-51.821"/><line x1="-32.65" y1="-68.058" x2="-43.48" y2="-51.13"/><line x1="-31.662" y1="-67.426" x2="-42.179" y2="-50.987"/><line x1="-30.674" y1="-66.794" x2="-40.878" y2="-50.844"/><line x1="-29.686" y1="-66.162" x2="-39.034" y2="-51.549"/><line x1="-28.698" y1="-65.53" x2="-36.25" y2="-53.725"/><line x1="-27.746" y1="-64.841" x2="-33.465" y2="-55.902"/><line x1="-26.799" y1="-64.145" x2="-30.68" y2="-58.078"/><line x1="-26.075" y1="-63.1" x2="-27.895" y2="-60.255"/><line x1="-49.29" y1="-81.852" x2="-27.391" y2="-67.843"/><line x1="-49.786" y1="-83.718" x2="-25.712" y2="-68.317"/><line x1="-49.083" y1="-84.817" x2="-25.278" y2="-69.589"/><line x1="-48.379" y1="-85.916" x2="-25.101" y2="-71.025"/><line x1="-47.676" y1="-87.015" x2="-24.925" y2="-72.461"/><line x1="-46.973" y1="-88.115" x2="-24.749" y2="-73.897"/><line x1="-46.27" y1="-89.214" x2="-24.572" y2="-75.333"/><line x1="-45.567" y1="-90.313" x2="-24.396" y2="-76.769"/><line x1="-44.864" y1="-91.412" x2="-24.22" y2="-78.205"/><line x1="-43.291" y1="-91.955" x2="-24.043" y2="-79.642"/><line x1="-41.325" y1="-92.246" x2="-23.867" y2="-81.078"/><line x1="-38.339" y1="-91.885" x2="-23.69" y2="-82.514"/><line x1="-35.354" y1="-91.524" x2="-23.514" y2="-83.95"/><line x1="-32.368" y1="-91.164" x2="-23.338" y2="-85.386"/><line x1="-29.383" y1="-90.803" x2="-23.161" y2="-86.822"/><line x1="-26.398" y1="-90.442" x2="-23.943" y2="-88.872"/></g><g/><g/><g/><g/><g/><g/></g><g id="cityName" style="font: 6px IM Fell Great Primer, serif" fill="#4C5950" transform="translate(41.097 4)"><text text-anchor="middle" dominant-baseline="hanging" stroke="#FFF2C8" stroke-width="0.529">Aymeluma</text><text text-anchor="middle" dominant-baseline="hanging">Aymeluma</text></g><g id="scaleBar" transform="translate(4 68.328) scale(0.083 0.083)" stroke="#4C5950" stroke-width="1.6" stroke-linejoin="miter" stroke-linecap="butt" style="font: 27px IM Fell Great Primer, serif" fill="none"><path d="M 0,-12 L 0,0 L 151.106,0 L 151.106,-12 M 37.776,0 L 37.776,-6 M 75.553,0 L 75.553,-12 M 113.329,0 L 113.329,-6"/><text text-anchor="middle" fill="#4C5950" stroke="none" x="0" y="-20.1">0</text><text text-anchor="middle" fill="#4C5950" stroke="none" x="75.553" y="-20.1">25</text><text text-anchor="middle" fill="#4C5950" stroke="none" x="151.106" y="-20.1">50m</text></g><g id="compass" transform="translate(78.194 68.328) scale(0.083 0.083) translate(-80 -80) rotate(0 0 0)"><circle cx="0" cy="0" r="35.275" stroke="#4C5950" stroke-width="1.6" fill="none"/><polygon points="55.845,55.845 0,22.723 0,0" fill="#4C5950"/><polygon points="0,22.723 -55.845,55.845 0,0" fill="#CCC5A3"/><polygon points="-55.845,55.845 -22.723,0 0,0" fill="#4C5950"/><polygon points="-22.723,0 -55.845,-55.845 0,0" fill="#CCC5A3"/><polygon points="-55.845,-55.845 0,-22.723 0,0" fill="#4C5950"/><polygon points="0,-22.723 55.845,-55.845 0,0" fill="#CCC5A3"/><polygon points="55.845,-55.845 22.723,0 0,0" fill="#4C5950"/><polygon points="22.723,0 55.845,55.845 0,0" fill="#CCC5A3"/><polygon points="55.845,55.845 0,22.723 -55.845,55.845 -22.723,0 -55.845,-55.845 0,-22.723 55.845,-55.845 22.723,0" fill="none" stroke="#4C5950" stroke-width="1.6" stroke-linejoin="round"/><polygon points="80,0 16.248,16.248 0,0" fill="#4C5950"/><polygon points="16.248,16.248 0,80 0,0" fill="#CCC5A3"/><polygon points="0,80 -16.248,16.248 0,0" fill="#4C5950"/><polygon points="-16.248,16.248 -80,0 0,0" fill="#CCC5A3"/><polygon points="-80,0 -16.248,-16.248 0,0" fill="#4C5950"/><polygon points="-16.248,-16.248 0,-80 0,0" fill="#CCC5A3"/><polygon points="0,-80 16.248,-16.248 0,0" fill="#4C5950"/><polygon points="16.248,-16.248 80,0 0,0" fill="#CCC5A3"/><polygon points="80,0 16.248,16.248 0,80 -16.248,16.248 -80,0 -16.248,-16.248 0,-80 16.248,-16.248" fill="none" stroke="#4C5950" stroke-width="1.6" stroke-linejoin="round"/><text text-anchor="middle" dominant-baseline="baseline" style="font: 36px IM Fell Great Primer, serif" fill="#4C5950" x="0" y="-87.2" transform="rotate(0 0 0)">N</text></g></svg>
