<?xml version="1.0" encoding="UTF-8" standalone="no"?><svg width="139.537" height="135.303" xmlns="http://www.w3.org/2000/svg"><style><![CDATA[@import url("https://fonts.googleapis.com/css?family=IM+Fell+Great+Primer");]]></style><rect x="0" y="0" width="139.537" height="135.303" id="background" fill="#FFF2C8"/><g id="map" transform="translate(55.701 59.902)"><g fill="none"><polyline points="43.087,-8.772 69.864,-8 86.818,-10.03 95.619,-11.229 101.917,-12.275 107.596,-13.392 112.658,-14.58 117.728,-15.916 122.808,-17.398 127.897,-19.027 132.996,-20.803 137.923,-22.637 142.678,-24.53 147.26,-26.482 151.671,-28.493 155.91,-30.562 159.976,-32.69 163.871,-34.876 167.594,-37.121 171.565,-38.278 175.785,-38.345 180.253,-37.324 184.97,-35.214 190.65,-31.207 197.292,-25.304 207.038,-15.078 226.313,6.741" stroke="#A5A58C" stroke-width="2.225" stroke-linejoin="round" stroke-linecap="butt"/><polyline points="43.087,-8.772 69.864,-8 86.818,-10.03 95.619,-11.229 101.917,-12.275 107.596,-13.392 112.658,-14.58 117.728,-15.916 122.808,-17.398 127.897,-19.027 132.996,-20.803 137.923,-22.637 142.678,-24.53 147.26,-26.482 151.671,-28.493 155.91,-30.562 159.976,-32.69 163.871,-34.876 167.594,-37.121 171.565,-38.278 175.785,-38.345 180.253,-37.324 184.97,-35.214 190.65,-31.207 197.292,-25.304 207.038,-15.078 226.313,6.741" stroke="#FFF2C8" stroke-width="1.775" stroke-linejoin="round" stroke-linecap="round"/></g><g fill="none"><polyline points="-11.676,-35.895 -12.463,-47.525 -14.647,-52.822 -15.793,-55.559 -16.631,-57.504 -17.401,-59.244 -18.104,-60.779 -18.822,-62.306 -19.553,-63.825 -20.299,-65.335 -21.059,-66.837 -21.804,-68.458 -22.536,-70.199 -23.254,-72.059 -23.957,-74.039 -24.647,-76.139 -25.323,-78.358 -25.984,-80.697 -26.632,-83.156 -27.375,-85.536 -28.214,-87.84 -29.149,-90.065 -30.179,-92.213 -31.306,-94.284 -32.528,-96.276 -33.845,-98.191 -35.259,-100.029 -36.787,-101.96 -38.43,-103.984 -40.188,-106.102 -42.061,-108.313 -44.049,-110.618 -46.152,-113.016 -48.37,-115.507 -50.702,-118.092 -52.959,-120.664 -55.14,-123.224 -57.245,-125.77 -59.273,-128.304 -61.226,-130.825 -63.103,-133.333 -64.904,-135.828 -66.629,-138.311 -68.12,-141.194 -69.377,-144.476 -70.399,-148.158 -71.188,-152.241 -71.743,-156.723 -72.063,-161.605 -72.15,-166.887 -72.002,-172.569 -71.711,-178.308 -71.274,-184.104 -70.694,-189.958 -69.968,-195.869 -68.936,-202.605 -67.596,-210.166 -65.461,-220.855 -61.064,-241.578" stroke="#A5A58C" stroke-width="2.225" stroke-linejoin="round" stroke-linecap="butt"/><polyline points="-11.676,-35.895 -12.463,-47.525 -14.647,-52.822 -15.793,-55.559 -16.631,-57.504 -17.401,-59.244 -18.104,-60.779 -18.822,-62.306 -19.553,-63.825 -20.299,-65.335 -21.059,-66.837 -21.804,-68.458 -22.536,-70.199 -23.254,-72.059 -23.957,-74.039 -24.647,-76.139 -25.323,-78.358 -25.984,-80.697 -26.632,-83.156 -27.375,-85.536 -28.214,-87.84 -29.149,-90.065 -30.179,-92.213 -31.306,-94.284 -32.528,-96.276 -33.845,-98.191 -35.259,-100.029 -36.787,-101.96 -38.43,-103.984 -40.188,-106.102 -42.061,-108.313 -44.049,-110.618 -46.152,-113.016 -48.37,-115.507 -50.702,-118.092 -52.959,-120.664 -55.14,-123.224 -57.245,-125.77 -59.273,-128.304 -61.226,-130.825 -63.103,-133.333 -64.904,-135.828 -66.629,-138.311 -68.12,-141.194 -69.377,-144.476 -70.399,-148.158 -71.188,-152.241 -71.743,-156.723 -72.063,-161.605 -72.15,-166.887 -72.002,-172.569 -71.711,-178.308 -71.274,-184.104 -70.694,-189.958 -69.968,-195.869 -68.936,-202.605 -67.596,-210.166 -65.461,-220.855 -61.064,-241.578" stroke="#FFF2C8" stroke-width="1.775" stroke-linejoin="round" stroke-linecap="round"/></g><g fill="none"><polyline points="13.221,45.832 6.545,62.834 8.78,67.984 10.129,70.464 11.336,71.99 12.651,73.136 14.072,73.9 15.683,74.473 17.484,74.856 19.474,75.049 21.654,75.051 23.785,74.883 25.867,74.544 27.9,74.035 29.884,73.355 31.819,72.505 33.704,71.484 35.541,70.293 37.328,68.931 39.193,67.707 41.134,66.619 43.152,65.669 45.248,64.856 47.42,64.181 49.669,63.642 51.995,63.241 54.398,62.976 57.034,62.887 59.902,62.972 63.003,63.231 66.336,63.665 69.902,64.274 73.7,65.057 77.731,66.015 81.995,67.147 86.539,68.27 91.365,69.384 96.471,70.489 101.859,71.585 107.527,72.672 113.477,73.75 119.707,74.819 126.219,75.879 132.758,77.962 139.325,81.066 145.919,85.194 152.54,90.343 160.031,97.671 168.39,107.175 180.143,122.322 202.863,153.506" stroke="#A5A58C" stroke-width="2.225" stroke-linejoin="round" stroke-linecap="butt"/><polyline points="13.221,45.832 6.545,62.834 8.78,67.984 10.129,70.464 11.336,71.99 12.651,73.136 14.072,73.9 15.683,74.473 17.484,74.856 19.474,75.049 21.654,75.051 23.785,74.883 25.867,74.544 27.9,74.035 29.884,73.355 31.819,72.505 33.704,71.484 35.541,70.293 37.328,68.931 39.193,67.707 41.134,66.619 43.152,65.669 45.248,64.856 47.42,64.181 49.669,63.642 51.995,63.241 54.398,62.976 57.034,62.887 59.902,62.972 63.003,63.231 66.336,63.665 69.902,64.274 73.7,65.057 77.731,66.015 81.995,67.147 86.539,68.27 91.365,69.384 96.471,70.489 101.859,71.585 107.527,72.672 113.477,73.75 119.707,74.819 126.219,75.879 132.758,77.962 139.325,81.066 145.919,85.194 152.54,90.343 160.031,97.671 168.39,107.175 180.143,122.322 202.863,153.506" stroke="#FFF2C8" stroke-width="1.775" stroke-linejoin="round" stroke-linecap="round"/></g><g fill="none"><polyline points="150.621,-160.239 147.117,-157.008 145.3,-155.333 144.003,-154.137 142.835,-153.06 141.797,-152.103 140.759,-151.146 139.721,-150.188 138.682,-149.231 137.644,-148.274 136.588,-147.327 135.514,-146.391 134.422,-145.465 133.311,-144.55 132.183,-143.645 131.037,-142.75 129.873,-141.866 128.69,-140.992 127.508,-140.118 126.326,-139.245 125.143,-138.371 123.961,-137.497 122.778,-136.624 121.596,-135.75 120.414,-134.876 119.231,-134.002 118.054,-133.116 116.88,-132.216 115.712,-131.303 114.548,-130.377 113.388,-129.439 112.233,-128.487 111.083,-127.522 109.937,-126.544 108.791,-125.566 107.646,-124.589 106.5,-123.611 105.354,-122.633 104.208,-121.655 103.063,-120.677 101.917,-119.7 100.771,-118.722 99.632,-117.703 98.5,-116.643 97.374,-115.541 96.255,-114.399 95.143,-113.215 94.037,-111.99 92.938,-110.724 91.846,-109.417 90.754,-108.11 89.662,-106.803 88.57,-105.496 87.478,-104.189 86.385,-102.882 85.293,-101.575 84.201,-100.267 83.109,-98.96 82.006,-97.699 80.893,-96.484 79.769,-95.315 78.635,-94.192 77.49,-93.114 76.335,-92.083 75.169,-91.098 73.993,-90.159 72.816,-89.22 71.64,-88.28 70.464,-87.341 69.287,-86.402 68.111,-85.463 66.934,-84.523 65.758,-83.584 64.582,-82.645 63.415,-81.759 62.258,-80.928 61.11,-80.151 59.972,-79.427 58.843,-78.758 57.724,-78.143 56.614,-77.581 55.514,-77.074 54.414,-76.566 53.314,-76.059 52.213,-75.551 51.113,-75.044 50.013,-74.536 48.913,-74.029 47.813,-73.522 46.713,-73.014 45.625,-72.499 44.551,-71.976 43.489,-71.445 42.44,-70.906 41.404,-70.359 40.38,-69.804 39.369,-69.242 38.371,-68.672 37.373,-68.101 36.375,-67.531 35.377,-66.961 34.379,-66.391 33.381,-65.82 32.382,-65.25 31.384,-64.68 30.386,-64.109 29.453,-63.515 28.585,-62.897 27.782,-62.255 27.044,-61.588 26.37,-60.898 25.762,-60.184 25.219,-59.446 24.74,-58.684 24.262,-57.921 23.784,-57.159 23.305,-56.397 22.827,-55.635 22.349,-54.873 21.87,-54.11 21.392,-53.348 20.914,-52.586 20.488,-51.82 20.116,-51.05 19.797,-50.276 19.531,-49.498 19.318,-48.716 19.158,-47.931 19.052,-47.141 18.998,-46.347 18.944,-45.554 18.891,-44.76 18.837,-43.967 18.783,-43.173 18.73,-42.38 18.676,-41.586 18.622,-40.793 18.569,-39.999 18.473,-39.215 18.335,-38.439 18.155,-37.672 17.934,-36.914 17.67,-36.165 17.364,-35.425 17.016,-34.694 16.626,-33.972 16.236,-33.25 15.846,-32.527 15.456,-31.805 15.067,-31.083 14.677,-30.361 14.287,-29.638 13.897,-28.916 13.507,-28.194 13.129,-27.465 12.764,-26.73 12.41,-25.989 12.069,-25.241 11.74,-24.487 11.424,-23.726 11.119,-22.959 10.827,-22.185 10.535,-21.412 10.242,-20.638 9.95,-19.865 9.658,-19.091 9.329,-18.221 8.964,-17.254 8.452,-15.901 7.466,-13.29 6.805,-10.463 6.462,-8.996 6.217,-7.949 5.997,-7.006 5.801,-6.168 5.58,-5.226 5.335,-4.178 4.993,-2.712 4.331,0.116 2.226,2.418 1.134,3.612 0.354,4.465 -0.348,5.232 -0.972,5.914 -1.674,6.682 -2.454,7.534 -3.546,8.728 -5.651,11.03 -9.047,12.348 -10.808,13.031 -12.066,13.519 -13.198,13.958 -14.204,14.349 -15.21,14.739 -16.216,15.13 -17.223,15.52 -18.229,15.91 -19.207,16.273 -20.157,16.608 -21.078,16.915 -21.971,17.194 -22.837,17.446 -23.673,17.67 -24.482,17.866 -25.262,18.034 -26.043,18.202 -26.823,18.371 -27.604,18.539 -28.384,18.707 -29.165,18.876 -29.945,19.044 -30.726,19.212 -31.506,19.38 -32.284,19.529 -33.06,19.657 -33.833,19.765 -34.604,19.853 -35.372,19.921 -36.138,19.969 -36.902,19.997 -37.663,20.005 -38.424,20.013 -39.186,20.021 -39.947,20.029 -40.708,20.037 -41.469,20.045 -42.23,20.053 -42.992,20.06 -43.753,20.068 -44.554,20.037 -45.396,19.967 -46.277,19.858 -47.198,19.709 -48.16,19.522 -49.162,19.295 -50.204,19.03 -51.285,18.725 -52.367,18.42 -53.449,18.116 -54.531,17.811 -55.613,17.506 -56.695,17.202 -57.776,16.897 -58.858,16.592 -59.94,16.288 -61.022,15.957 -62.104,15.601 -63.185,15.219 -64.267,14.811 -65.349,14.377 -66.431,13.917 -67.512,13.432 -68.594,12.92 -69.675,12.409 -70.757,11.898 -71.839,11.386 -72.92,10.875 -74.002,10.364 -75.083,9.852 -76.165,9.341 -77.246,8.83 -78.386,8.335 -79.583,7.857 -80.838,7.395 -82.15,6.95 -83.521,6.521 -84.949,6.109 -86.435,5.714 -87.978,5.334 -89.522,4.955 -91.066,4.576 -92.609,4.197 -94.153,3.818 -95.697,3.439 -97.24,3.06 -98.784,2.681 -100.327,2.302 -101.902,1.976 -103.508,1.702 -105.145,1.481 -106.813,1.312 -108.512,1.197 -110.242,1.133 -112.003,1.123 -113.795,1.165 -115.587,1.207 -117.38,1.249 -119.172,1.291 -120.964,1.333 -122.756,1.375 -124.548,1.418 -126.341,1.46 -128.133,1.502 -129.877,1.477 -131.573,1.386 -133.222,1.228 -134.822,1.004 -136.374,0.713 -137.879,0.355 -139.335,-0.069 -140.744,-0.56 -142.152,-1.051 -143.56,-1.542 -144.969,-2.033 -146.377,-2.524 -147.786,-3.015 -149.194,-3.506 -150.603,-3.997 -152.011,-4.488 -153.436,-5.062 -154.878,-5.72 -156.337,-6.46 -157.812,-7.284 -159.304,-8.191 -160.812,-9.181 -162.337,-10.255 -163.879,-11.412 -165.421,-12.568 -166.963,-13.725 -168.504,-14.882 -170.046,-16.039 -171.588,-17.195 -173.13,-18.352 -174.672,-19.509 -176.213,-20.666 -178.152,-21.634 -180.487,-22.415 -183.22,-23.007 -186.349,-23.411 -189.875,-23.627 -193.797,-23.655 -198.117,-23.495 -202.833,-23.147 -207.549,-22.799 -212.265,-22.45 -216.982,-22.102 -221.698,-21.754 -227.004,-21.362 -232.899,-20.926 -241.152,-20.317 -257.07,-19.141" stroke="#4C5950" stroke-width="5.546" stroke-linejoin="round" stroke-linecap="butt"/><polyline points="150.621,-160.239 147.117,-157.008 145.3,-155.333 144.003,-154.137 142.835,-153.06 141.797,-152.103 140.759,-151.146 139.721,-150.188 138.682,-149.231 137.644,-148.274 136.588,-147.327 135.514,-146.391 134.422,-145.465 133.311,-144.55 132.183,-143.645 131.037,-142.75 129.873,-141.866 128.69,-140.992 127.508,-140.118 126.326,-139.245 125.143,-138.371 123.961,-137.497 122.778,-136.624 121.596,-135.75 120.414,-134.876 119.231,-134.002 118.054,-133.116 116.88,-132.216 115.712,-131.303 114.548,-130.377 113.388,-129.439 112.233,-128.487 111.083,-127.522 109.937,-126.544 108.791,-125.566 107.646,-124.589 106.5,-123.611 105.354,-122.633 104.208,-121.655 103.063,-120.677 101.917,-119.7 100.771,-118.722 99.632,-117.703 98.5,-116.643 97.374,-115.541 96.255,-114.399 95.143,-113.215 94.037,-111.99 92.938,-110.724 91.846,-109.417 90.754,-108.11 89.662,-106.803 88.57,-105.496 87.478,-104.189 86.385,-102.882 85.293,-101.575 84.201,-100.267 83.109,-98.96 82.006,-97.699 80.893,-96.484 79.769,-95.315 78.635,-94.192 77.49,-93.114 76.335,-92.083 75.169,-91.098 73.993,-90.159 72.816,-89.22 71.64,-88.28 70.464,-87.341 69.287,-86.402 68.111,-85.463 66.934,-84.523 65.758,-83.584 64.582,-82.645 63.415,-81.759 62.258,-80.928 61.11,-80.151 59.972,-79.427 58.843,-78.758 57.724,-78.143 56.614,-77.581 55.514,-77.074 54.414,-76.566 53.314,-76.059 52.213,-75.551 51.113,-75.044 50.013,-74.536 48.913,-74.029 47.813,-73.522 46.713,-73.014 45.625,-72.499 44.551,-71.976 43.489,-71.445 42.44,-70.906 41.404,-70.359 40.38,-69.804 39.369,-69.242 38.371,-68.672 37.373,-68.101 36.375,-67.531 35.377,-66.961 34.379,-66.391 33.381,-65.82 32.382,-65.25 31.384,-64.68 30.386,-64.109 29.453,-63.515 28.585,-62.897 27.782,-62.255 27.044,-61.588 26.37,-60.898 25.762,-60.184 25.219,-59.446 24.74,-58.684 24.262,-57.921 23.784,-57.159 23.305,-56.397 22.827,-55.635 22.349,-54.873 21.87,-54.11 21.392,-53.348 20.914,-52.586 20.488,-51.82 20.116,-51.05 19.797,-50.276 19.531,-49.498 19.318,-48.716 19.158,-47.931 19.052,-47.141 18.998,-46.347 18.944,-45.554 18.891,-44.76 18.837,-43.967 18.783,-43.173 18.73,-42.38 18.676,-41.586 18.622,-40.793 18.569,-39.999 18.473,-39.215 18.335,-38.439 18.155,-37.672 17.934,-36.914 17.67,-36.165 17.364,-35.425 17.016,-34.694 16.626,-33.972 16.236,-33.25 15.846,-32.527 15.456,-31.805 15.067,-31.083 14.677,-30.361 14.287,-29.638 13.897,-28.916 13.507,-28.194 13.129,-27.465 12.764,-26.73 12.41,-25.989 12.069,-25.241 11.74,-24.487 11.424,-23.726 11.119,-22.959 10.827,-22.185 10.535,-21.412 10.242,-20.638 9.95,-19.865 9.658,-19.091 9.329,-18.221 8.964,-17.254 8.452,-15.901 7.466,-13.29 6.805,-10.463 6.462,-8.996 6.217,-7.949 5.997,-7.006 5.801,-6.168 5.58,-5.226 5.335,-4.178 4.993,-2.712 4.331,0.116 2.226,2.418 1.134,3.612 0.354,4.465 -0.348,5.232 -0.972,5.914 -1.674,6.682 -2.454,7.534 -3.546,8.728 -5.651,11.03 -9.047,12.348 -10.808,13.031 -12.066,13.519 -13.198,13.958 -14.204,14.349 -15.21,14.739 -16.216,15.13 -17.223,15.52 -18.229,15.91 -19.207,16.273 -20.157,16.608 -21.078,16.915 -21.971,17.194 -22.837,17.446 -23.673,17.67 -24.482,17.866 -25.262,18.034 -26.043,18.202 -26.823,18.371 -27.604,18.539 -28.384,18.707 -29.165,18.876 -29.945,19.044 -30.726,19.212 -31.506,19.38 -32.284,19.529 -33.06,19.657 -33.833,19.765 -34.604,19.853 -35.372,19.921 -36.138,19.969 -36.902,19.997 -37.663,20.005 -38.424,20.013 -39.186,20.021 -39.947,20.029 -40.708,20.037 -41.469,20.045 -42.23,20.053 -42.992,20.06 -43.753,20.068 -44.554,20.037 -45.396,19.967 -46.277,19.858 -47.198,19.709 -48.16,19.522 -49.162,19.295 -50.204,19.03 -51.285,18.725 -52.367,18.42 -53.449,18.116 -54.531,17.811 -55.613,17.506 -56.695,17.202 -57.776,16.897 -58.858,16.592 -59.94,16.288 -61.022,15.957 -62.104,15.601 -63.185,15.219 -64.267,14.811 -65.349,14.377 -66.431,13.917 -67.512,13.432 -68.594,12.92 -69.675,12.409 -70.757,11.898 -71.839,11.386 -72.92,10.875 -74.002,10.364 -75.083,9.852 -76.165,9.341 -77.246,8.83 -78.386,8.335 -79.583,7.857 -80.838,7.395 -82.15,6.95 -83.521,6.521 -84.949,6.109 -86.435,5.714 -87.978,5.334 -89.522,4.955 -91.066,4.576 -92.609,4.197 -94.153,3.818 -95.697,3.439 -97.24,3.06 -98.784,2.681 -100.327,2.302 -101.902,1.976 -103.508,1.702 -105.145,1.481 -106.813,1.312 -108.512,1.197 -110.242,1.133 -112.003,1.123 -113.795,1.165 -115.587,1.207 -117.38,1.249 -119.172,1.291 -120.964,1.333 -122.756,1.375 -124.548,1.418 -126.341,1.46 -128.133,1.502 -129.877,1.477 -131.573,1.386 -133.222,1.228 -134.822,1.004 -136.374,0.713 -137.879,0.355 -139.335,-0.069 -140.744,-0.56 -142.152,-1.051 -143.56,-1.542 -144.969,-2.033 -146.377,-2.524 -147.786,-3.015 -149.194,-3.506 -150.603,-3.997 -152.011,-4.488 -153.436,-5.062 -154.878,-5.72 -156.337,-6.46 -157.812,-7.284 -159.304,-8.191 -160.812,-9.181 -162.337,-10.255 -163.879,-11.412 -165.421,-12.568 -166.963,-13.725 -168.504,-14.882 -170.046,-16.039 -171.588,-17.195 -173.13,-18.352 -174.672,-19.509 -176.213,-20.666 -178.152,-21.634 -180.487,-22.415 -183.22,-23.007 -186.349,-23.411 -189.875,-23.627 -193.797,-23.655 -198.117,-23.495 -202.833,-23.147 -207.549,-22.799 -212.265,-22.45 -216.982,-22.102 -221.698,-21.754 -227.004,-21.362 -232.899,-20.926 -241.152,-20.317 -257.07,-19.141" stroke="#779988" stroke-width="5.096" stroke-linejoin="round" stroke-linecap="round"/><polyline points="150.621,-160.239 147.117,-157.008 145.3,-155.333 144.003,-154.137 142.835,-153.06 141.797,-152.103 140.759,-151.146 139.721,-150.188 138.682,-149.231 137.644,-148.274 136.588,-147.327 135.514,-146.391 134.422,-145.465 133.311,-144.55 132.183,-143.645 131.037,-142.75 129.873,-141.866 128.69,-140.992 127.508,-140.118 126.326,-139.245 125.143,-138.371 123.961,-137.497 122.778,-136.624 121.596,-135.75 120.414,-134.876 119.231,-134.002 118.054,-133.116 116.88,-132.216 115.712,-131.303 114.548,-130.377 113.388,-129.439 112.233,-128.487 111.083,-127.522 109.937,-126.544 108.791,-125.566 107.646,-124.589 106.5,-123.611 105.354,-122.633 104.208,-121.655 103.063,-120.677 101.917,-119.7 100.771,-118.722 99.632,-117.703 98.5,-116.643 97.374,-115.541 96.255,-114.399 95.143,-113.215 94.037,-111.99 92.938,-110.724 91.846,-109.417 90.754,-108.11 89.662,-106.803 88.57,-105.496 87.478,-104.189 86.385,-102.882 85.293,-101.575 84.201,-100.267 83.109,-98.96 82.006,-97.699 80.893,-96.484 79.769,-95.315 78.635,-94.192 77.49,-93.114 76.335,-92.083 75.169,-91.098 73.993,-90.159 72.816,-89.22 71.64,-88.28 70.464,-87.341 69.287,-86.402 68.111,-85.463 66.934,-84.523 65.758,-83.584 64.582,-82.645 63.415,-81.759 62.258,-80.928 61.11,-80.151 59.972,-79.427 58.843,-78.758 57.724,-78.143 56.614,-77.581 55.514,-77.074 54.414,-76.566 53.314,-76.059 52.213,-75.551 51.113,-75.044 50.013,-74.536 48.913,-74.029 47.813,-73.522 46.713,-73.014 45.625,-72.499 44.551,-71.976 43.489,-71.445 42.44,-70.906 41.404,-70.359 40.38,-69.804 39.369,-69.242 38.371,-68.672 37.373,-68.101 36.375,-67.531 35.377,-66.961 34.379,-66.391 33.381,-65.82 32.382,-65.25 31.384,-64.68 30.386,-64.109 29.453,-63.515 28.585,-62.897 27.782,-62.255 27.044,-61.588 26.37,-60.898 25.762,-60.184 25.219,-59.446 24.74,-58.684 24.262,-57.921 23.784,-57.159 23.305,-56.397 22.827,-55.635 22.349,-54.873 21.87,-54.11 21.392,-53.348 20.914,-52.586 20.488,-51.82 20.116,-51.05 19.797,-50.276 19.531,-49.498 19.318,-48.716 19.158,-47.931 19.052,-47.141 18.998,-46.347 18.944,-45.554 18.891,-44.76 18.837,-43.967 18.783,-43.173 18.73,-42.38 18.676,-41.586 18.622,-40.793 18.569,-39.999 18.473,-39.215 18.335,-38.439 18.155,-37.672 17.934,-36.914 17.67,-36.165 17.364,-35.425 17.016,-34.694 16.626,-33.972 16.236,-33.25 15.846,-32.527 15.456,-31.805 15.067,-31.083 14.677,-30.361 14.287,-29.638 13.897,-28.916 13.507,-28.194 13.129,-27.465 12.764,-26.73 12.41,-25.989 12.069,-25.241 11.74,-24.487 11.424,-23.726 11.119,-22.959 10.827,-22.185 10.535,-21.412 10.242,-20.638 9.95,-19.865 9.658,-19.091 9.329,-18.221 8.964,-17.254 8.452,-15.901 7.466,-13.29 6.805,-10.463 6.462,-8.996 6.217,-7.949 5.997,-7.006 5.801,-6.168 5.58,-5.226 5.335,-4.178 4.993,-2.712 4.331,0.116 2.226,2.418 1.134,3.612 0.354,4.465 -0.348,5.232 -0.972,5.914 -1.674,6.682 -2.454,7.534 -3.546,8.728 -5.651,11.03 -9.047,12.348 -10.808,13.031 -12.066,13.519 -13.198,13.958 -14.204,14.349 -15.21,14.739 -16.216,15.13 -17.223,15.52 -18.229,15.91 -19.207,16.273 -20.157,16.608 -21.078,16.915 -21.971,17.194 -22.837,17.446 -23.673,17.67 -24.482,17.866 -25.262,18.034 -26.043,18.202 -26.823,18.371 -27.604,18.539 -28.384,18.707 -29.165,18.876 -29.945,19.044 -30.726,19.212 -31.506,19.38 -32.284,19.529 -33.06,19.657 -33.833,19.765 -34.604,19.853 -35.372,19.921 -36.138,19.969 -36.902,19.997 -37.663,20.005 -38.424,20.013 -39.186,20.021 -39.947,20.029 -40.708,20.037 -41.469,20.045 -42.23,20.053 -42.992,20.06 -43.753,20.068 -44.554,20.037 -45.396,19.967 -46.277,19.858 -47.198,19.709 -48.16,19.522 -49.162,19.295 -50.204,19.03 -51.285,18.725 -52.367,18.42 -53.449,18.116 -54.531,17.811 -55.613,17.506 -56.695,17.202 -57.776,16.897 -58.858,16.592 -59.94,16.288 -61.022,15.957 -62.104,15.601 -63.185,15.219 -64.267,14.811 -65.349,14.377 -66.431,13.917 -67.512,13.432 -68.594,12.92 -69.675,12.409 -70.757,11.898 -71.839,11.386 -72.92,10.875 -74.002,10.364 -75.083,9.852 -76.165,9.341 -77.246,8.83 -78.386,8.335 -79.583,7.857 -80.838,7.395 -82.15,6.95 -83.521,6.521 -84.949,6.109 -86.435,5.714 -87.978,5.334 -89.522,4.955 -91.066,4.576 -92.609,4.197 -94.153,3.818 -95.697,3.439 -97.24,3.06 -98.784,2.681 -100.327,2.302 -101.902,1.976 -103.508,1.702 -105.145,1.481 -106.813,1.312 -108.512,1.197 -110.242,1.133 -112.003,1.123 -113.795,1.165 -115.587,1.207 -117.38,1.249 -119.172,1.291 -120.964,1.333 -122.756,1.375 -124.548,1.418 -126.341,1.46 -128.133,1.502 -129.877,1.477 -131.573,1.386 -133.222,1.228 -134.822,1.004 -136.374,0.713 -137.879,0.355 -139.335,-0.069 -140.744,-0.56 -142.152,-1.051 -143.56,-1.542 -144.969,-2.033 -146.377,-2.524 -147.786,-3.015 -149.194,-3.506 -150.603,-3.997 -152.011,-4.488 -153.436,-5.062 -154.878,-5.72 -156.337,-6.46 -157.812,-7.284 -159.304,-8.191 -160.812,-9.181 -162.337,-10.255 -163.879,-11.412 -165.421,-12.568 -166.963,-13.725 -168.504,-14.882 -170.046,-16.039 -171.588,-17.195 -173.13,-18.352 -174.672,-19.509 -176.213,-20.666 -178.152,-21.634 -180.487,-22.415 -183.22,-23.007 -186.349,-23.411 -189.875,-23.627 -193.797,-23.655 -198.117,-23.495 -202.833,-23.147 -207.549,-22.799 -212.265,-22.45 -216.982,-22.102 -221.698,-21.754 -227.004,-21.362 -232.899,-20.926 -241.152,-20.317 -257.07,-19.141" stroke="#4C5950" stroke-width="3.327" stroke-linejoin="round" stroke-linecap="butt"/><polyline points="150.621,-160.239 147.117,-157.008 145.3,-155.333 144.003,-154.137 142.835,-153.06 141.797,-152.103 140.759,-151.146 139.721,-150.188 138.682,-149.231 137.644,-148.274 136.588,-147.327 135.514,-146.391 134.422,-145.465 133.311,-144.55 132.183,-143.645 131.037,-142.75 129.873,-141.866 128.69,-140.992 127.508,-140.118 126.326,-139.245 125.143,-138.371 123.961,-137.497 122.778,-136.624 121.596,-135.75 120.414,-134.876 119.231,-134.002 118.054,-133.116 116.88,-132.216 115.712,-131.303 114.548,-130.377 113.388,-129.439 112.233,-128.487 111.083,-127.522 109.937,-126.544 108.791,-125.566 107.646,-124.589 106.5,-123.611 105.354,-122.633 104.208,-121.655 103.063,-120.677 101.917,-119.7 100.771,-118.722 99.632,-117.703 98.5,-116.643 97.374,-115.541 96.255,-114.399 95.143,-113.215 94.037,-111.99 92.938,-110.724 91.846,-109.417 90.754,-108.11 89.662,-106.803 88.57,-105.496 87.478,-104.189 86.385,-102.882 85.293,-101.575 84.201,-100.267 83.109,-98.96 82.006,-97.699 80.893,-96.484 79.769,-95.315 78.635,-94.192 77.49,-93.114 76.335,-92.083 75.169,-91.098 73.993,-90.159 72.816,-89.22 71.64,-88.28 70.464,-87.341 69.287,-86.402 68.111,-85.463 66.934,-84.523 65.758,-83.584 64.582,-82.645 63.415,-81.759 62.258,-80.928 61.11,-80.151 59.972,-79.427 58.843,-78.758 57.724,-78.143 56.614,-77.581 55.514,-77.074 54.414,-76.566 53.314,-76.059 52.213,-75.551 51.113,-75.044 50.013,-74.536 48.913,-74.029 47.813,-73.522 46.713,-73.014 45.625,-72.499 44.551,-71.976 43.489,-71.445 42.44,-70.906 41.404,-70.359 40.38,-69.804 39.369,-69.242 38.371,-68.672 37.373,-68.101 36.375,-67.531 35.377,-66.961 34.379,-66.391 33.381,-65.82 32.382,-65.25 31.384,-64.68 30.386,-64.109 29.453,-63.515 28.585,-62.897 27.782,-62.255 27.044,-61.588 26.37,-60.898 25.762,-60.184 25.219,-59.446 24.74,-58.684 24.262,-57.921 23.784,-57.159 23.305,-56.397 22.827,-55.635 22.349,-54.873 21.87,-54.11 21.392,-53.348 20.914,-52.586 20.488,-51.82 20.116,-51.05 19.797,-50.276 19.531,-49.498 19.318,-48.716 19.158,-47.931 19.052,-47.141 18.998,-46.347 18.944,-45.554 18.891,-44.76 18.837,-43.967 18.783,-43.173 18.73,-42.38 18.676,-41.586 18.622,-40.793 18.569,-39.999 18.473,-39.215 18.335,-38.439 18.155,-37.672 17.934,-36.914 17.67,-36.165 17.364,-35.425 17.016,-34.694 16.626,-33.972 16.236,-33.25 15.846,-32.527 15.456,-31.805 15.067,-31.083 14.677,-30.361 14.287,-29.638 13.897,-28.916 13.507,-28.194 13.129,-27.465 12.764,-26.73 12.41,-25.989 12.069,-25.241 11.74,-24.487 11.424,-23.726 11.119,-22.959 10.827,-22.185 10.535,-21.412 10.242,-20.638 9.95,-19.865 9.658,-19.091 9.329,-18.221 8.964,-17.254 8.452,-15.901 7.466,-13.29 6.805,-10.463 6.462,-8.996 6.217,-7.949 5.997,-7.006 5.801,-6.168 5.58,-5.226 5.335,-4.178 4.993,-2.712 4.331,0.116 2.226,2.418 1.134,3.612 0.354,4.465 -0.348,5.232 -0.972,5.914 -1.674,6.682 -2.454,7.534 -3.546,8.728 -5.651,11.03 -9.047,12.348 -10.808,13.031 -12.066,13.519 -13.198,13.958 -14.204,14.349 -15.21,14.739 -16.216,15.13 -17.223,15.52 -18.229,15.91 -19.207,16.273 -20.157,16.608 -21.078,16.915 -21.971,17.194 -22.837,17.446 -23.673,17.67 -24.482,17.866 -25.262,18.034 -26.043,18.202 -26.823,18.371 -27.604,18.539 -28.384,18.707 -29.165,18.876 -29.945,19.044 -30.726,19.212 -31.506,19.38 -32.284,19.529 -33.06,19.657 -33.833,19.765 -34.604,19.853 -35.372,19.921 -36.138,19.969 -36.902,19.997 -37.663,20.005 -38.424,20.013 -39.186,20.021 -39.947,20.029 -40.708,20.037 -41.469,20.045 -42.23,20.053 -42.992,20.06 -43.753,20.068 -44.554,20.037 -45.396,19.967 -46.277,19.858 -47.198,19.709 -48.16,19.522 -49.162,19.295 -50.204,19.03 -51.285,18.725 -52.367,18.42 -53.449,18.116 -54.531,17.811 -55.613,17.506 -56.695,17.202 -57.776,16.897 -58.858,16.592 -59.94,16.288 -61.022,15.957 -62.104,15.601 -63.185,15.219 -64.267,14.811 -65.349,14.377 -66.431,13.917 -67.512,13.432 -68.594,12.92 -69.675,12.409 -70.757,11.898 -71.839,11.386 -72.92,10.875 -74.002,10.364 -75.083,9.852 -76.165,9.341 -77.246,8.83 -78.386,8.335 -79.583,7.857 -80.838,7.395 -82.15,6.95 -83.521,6.521 -84.949,6.109 -86.435,5.714 -87.978,5.334 -89.522,4.955 -91.066,4.576 -92.609,4.197 -94.153,3.818 -95.697,3.439 -97.24,3.06 -98.784,2.681 -100.327,2.302 -101.902,1.976 -103.508,1.702 -105.145,1.481 -106.813,1.312 -108.512,1.197 -110.242,1.133 -112.003,1.123 -113.795,1.165 -115.587,1.207 -117.38,1.249 -119.172,1.291 -120.964,1.333 -122.756,1.375 -124.548,1.418 -126.341,1.46 -128.133,1.502 -129.877,1.477 -131.573,1.386 -133.222,1.228 -134.822,1.004 -136.374,0.713 -137.879,0.355 -139.335,-0.069 -140.744,-0.56 -142.152,-1.051 -143.56,-1.542 -144.969,-2.033 -146.377,-2.524 -147.786,-3.015 -149.194,-3.506 -150.603,-3.997 -152.011,-4.488 -153.436,-5.062 -154.878,-5.72 -156.337,-6.46 -157.812,-7.284 -159.304,-8.191 -160.812,-9.181 -162.337,-10.255 -163.879,-11.412 -165.421,-12.568 -166.963,-13.725 -168.504,-14.882 -170.046,-16.039 -171.588,-17.195 -173.13,-18.352 -174.672,-19.509 -176.213,-20.666 -178.152,-21.634 -180.487,-22.415 -183.22,-23.007 -186.349,-23.411 -189.875,-23.627 -193.797,-23.655 -198.117,-23.495 -202.833,-23.147 -207.549,-22.799 -212.265,-22.45 -216.982,-22.102 -221.698,-21.754 -227.004,-21.362 -232.899,-20.926 -241.152,-20.317 -257.07,-19.141" stroke="#779988" stroke-width="3.103" stroke-linejoin="round" stroke-linecap="round"/><g fill="none"><line x1="5.019" y1="-15.31" x2="10.502" y2="-12.371" stroke="#4C5950" stroke-width="2.225" stroke-linejoin="round" stroke-linecap="butt"/><line x1="5.019" y1="-15.31" x2="10.502" y2="-12.371" stroke="#FFF2C8" stroke-width="1.775" stroke-linejoin="round" stroke-linecap="round"/></g><g fill="none"><line x1="7.474" y1="-0.318" x2="1.539" y2="-1.39" stroke="#4C5950" stroke-width="2.225" stroke-linejoin="round" stroke-linecap="butt"/><line x1="7.474" y1="-0.318" x2="1.539" y2="-1.39" stroke="#FFF2C8" stroke-width="1.775" stroke-linejoin="round" stroke-linecap="round"/></g><g fill="none"><line x1="-4.219" y1="13.861" x2="-7.395" y2="8.38" stroke="#4C5950" stroke-width="2.225" stroke-linejoin="round" stroke-linecap="butt"/><line x1="-4.219" y1="13.861" x2="-7.395" y2="8.38" stroke="#FFF2C8" stroke-width="1.775" stroke-linejoin="round" stroke-linecap="round"/></g></g><g fill="#D6A36E" stroke="#4C5950" stroke-width="0.225"><polygon points="-5.269,-2.699 -3.822,-3.665 -3.02,-2.465 -4.467,-1.498"/></g><g fill="#D6A36E" stroke="#D6A36E" stroke-width="0.225"><g fill="#4C5950" stroke="#4C5950" stroke-width="0.225" stroke-linejoin="round"><polygon points="1.583,-15.378 -0.862,-12.939 -3.392,-15.475 -7.245,-11.631 -7.245,-12.431 -3.392,-16.275 -0.862,-13.739 1.583,-16.178"/><polygon points="-4.715,-9.095 -6.886,-6.93 -9.416,-9.466 -12.309,-6.58 -12.309,-7.38 -9.416,-10.266 -6.886,-7.73 -4.715,-9.895"/><polygon points="-9.779,-4.043 -13.022,-0.809 -15.552,-3.345 -18.6,-6.401 -21.335,-9.143 -21.335,-9.943 -18.6,-7.201 -15.552,-4.145 -13.022,-1.609 -9.779,-4.843"/></g><polygon points="-21.335,-9.943 -18.093,-13.177 -15.2,-16.063 -13.028,-18.229 -9.176,-22.072 -6.73,-24.512 -3.995,-21.77 -0.947,-18.714 1.583,-16.178 -0.862,-13.739 -3.392,-16.275 -7.245,-12.431 -4.715,-9.895 -6.886,-7.73 -9.416,-10.266 -12.309,-7.38 -9.779,-4.843 -13.022,-1.609 -15.552,-4.145 -18.6,-7.201"/></g><g fill="#D6A36E" stroke="#D6A36E" stroke-width="0.225"><g fill="#4C5950" stroke="#4C5950" stroke-width="0.225" stroke-linejoin="round"><polygon points="-11.115,9.318 -14.792,10.745 -16.686,5.865 -16.686,5.465 -14.792,10.345 -11.115,8.918"/><polygon points="-8.309,8.229 -11.115,9.318 -13.008,4.438 -13.008,4.038 -11.115,8.918 -8.309,7.829"/><polygon points="-16.686,5.865 -17.521,3.712 -17.521,3.312 -16.686,5.465"/><polygon points="-10.827,3.592 -16.686,5.865 -16.686,5.465 -10.827,3.192"/><polygon points="-14.792,10.745 -16.241,11.307 -17.325,8.511 -17.325,8.111 -16.241,10.907 -14.792,10.345"/><polygon points="-16.241,11.307 -20.075,12.794 -20.075,12.394 -16.241,10.907"/></g><polygon points="-11.115,8.918 -14.792,10.345 -16.686,5.465 -13.008,4.038"/><polygon points="-13.008,4.038 -10.827,3.192 -8.309,7.829 -11.115,8.918"/><polygon points="-16.686,5.465 -17.521,3.312 -16.459,-0.466 -12.779,-0.405 -10.827,3.192"/><polygon points="-17.325,8.111 -15.877,7.549 -14.792,10.345 -16.241,10.907"/><polygon points="-16.241,10.907 -20.075,12.394 -19.059,8.784 -17.325,8.111"/></g><g fill="#D6A36E" stroke="#D6A36E" stroke-width="0.225"><g fill="#4C5950" stroke="#4C5950" stroke-width="0.225" stroke-linejoin="round"><polygon points="16.494,-2.571 8.367,-1.45 8.367,-1.85 16.494,-2.971"/><polygon points="23.151,-6.989 16.02,-6.006 15.556,-9.368 15.556,-9.768 16.02,-6.406 23.151,-7.389"/><polygon points="21.21,-10.147 18.248,-9.739 17.537,-14.891 17.537,-15.291 18.248,-10.139 21.21,-10.547"/><polygon points="25.134,-3.763 16.494,-2.571 16.02,-6.006 16.02,-6.406 16.494,-2.971 25.134,-4.163"/></g><polygon points="16.494,-2.971 8.367,-1.85 10.891,-12.648 11.579,-14.469 14.846,-14.919"/><polygon points="21.21,-10.547 23.151,-7.389 16.02,-6.406 15.556,-9.768"/><polygon points="17.537,-15.291 18.236,-15.387 21.21,-10.547 18.248,-10.139"/><polygon points="23.151,-7.389 25.134,-4.163 16.494,-2.971 16.02,-6.406"/></g><g fill="#D6A36E" stroke="#D6A36E" stroke-width="0.225"><g fill="#4C5950" stroke="#4C5950" stroke-width="0.225" stroke-linejoin="round"><polygon points="26.067,12.455 23.891,12.33 23.891,11.93 26.067,12.055"/><polygon points="23.891,12.33 20.216,12.118 20.216,11.718 23.891,11.93"/><polygon points="24.124,8.276 23.891,12.33 23.891,11.93 24.124,7.876"/><polygon points="25.98,8.383 23.733,8.253 23.733,7.853 25.98,7.983"/><polygon points="25.919,5.533 20.612,5.227 20.612,4.827 25.919,5.133"/><polygon points="15.749,6.07 15.416,11.842 11.675,11.627 11.675,11.227 15.416,11.442 15.749,5.67"/><polygon points="15.843,4.427 15.749,6.07 12.35,5.874 12.35,5.474 15.749,5.67 15.843,4.027"/><polygon points="20.642,4.703 20.216,12.118 15.416,11.842 15.416,11.442 20.216,11.718 20.642,4.303"/><polygon points="20.98,-1.171 20.642,4.703 17.885,4.544 17.885,4.144 20.642,4.303 20.98,-1.571"/><polygon points="18.191,-0.786 18.068,1.353 14.11,1.125 14.11,0.725 18.068,0.953 18.191,-1.186"/><polygon points="13.926,4.316 12.542,4.237 12.542,3.837 13.926,3.916"/><polygon points="14.188,-0.234 13.926,4.316 13.926,3.916 14.188,-0.634"/></g><polygon points="24.124,7.876 25.98,7.983 26.067,12.055 23.891,11.93"/><polygon points="23.891,11.93 20.216,11.718 20.449,7.664 24.124,7.876"/><polygon points="23.896,5.016 25.919,5.133 25.98,7.983 23.733,7.853"/><polygon points="25.828,0.893 25.919,5.133 20.612,4.827 20.843,0.819"/><polygon points="15.749,5.67 15.416,11.442 11.675,11.227 12.35,5.474"/><polygon points="12.35,5.474 12.542,3.837 15.843,4.027 15.749,5.67"/><polygon points="15.843,4.027 20.642,4.303 20.216,11.718 15.416,11.442"/><polygon points="18.191,-1.186 20.98,-1.571 20.642,4.303 17.885,4.144"/><polygon points="14.11,0.725 14.188,-0.634 18.191,-1.186 18.068,0.953"/><polygon points="13.926,3.916 12.542,3.837 13.047,-0.477 14.188,-0.634"/><g fill="#4C5950" stroke="#4C5950" stroke-width="0.225" stroke-linejoin="round"><polygon points="12.229,0.036 11.929,2.59 9.772,2.337 9.772,1.937 11.929,2.19 12.229,-0.364"/><polygon points="11.929,2.59 11.58,5.568 9.423,5.316 9.423,4.916 11.58,5.168 11.929,2.19"/><polygon points="9.423,5.316 4.902,4.786 4.902,4.386 9.423,4.916"/><polygon points="10.006,0.343 9.423,5.316 9.423,4.916 10.006,-0.057"/><polygon points="11.58,5.568 10.875,11.581 8.013,11.416 8.013,11.016 10.875,11.181 11.58,5.168"/><polygon points="6.296,9.527 6.087,11.305 3.646,11.165 3.646,10.765 6.087,10.905 6.296,9.127"/><polygon points="8.437,7.792 8.013,11.416 6.087,11.305 6.087,10.905 8.013,11.016 8.437,7.392"/></g><polygon points="9.772,1.937 10.006,-0.057 12.229,-0.364 11.929,2.19"/><polygon points="11.929,2.19 11.58,5.168 9.423,4.916 9.772,1.937"/><polygon points="9.423,4.916 4.902,4.386 8.816,0.107 10.006,-0.057"/><polygon points="8.737,4.835 11.58,5.168 10.875,11.181 8.013,11.016"/><polygon points="6.296,9.127 6.087,10.905 3.646,10.765 4.021,8.86"/><polygon points="6.525,7.168 8.437,7.392 8.013,11.016 6.087,10.905"/></g><g fill="#D6A36E" stroke="#D6A36E" stroke-width="0.225"><g fill="#4C5950" stroke="#4C5950" stroke-width="0.225" stroke-linejoin="round"><polygon points="24.512,14.932 21.946,18.511 17.172,15.089 17.172,14.689 21.946,18.111 24.512,14.532"/><polygon points="19.078,22.511 17.737,24.381 15.917,22.763 15.917,22.363 17.737,23.981 19.078,22.111"/><polygon points="15.917,22.763 13.323,20.457 13.323,20.057 15.917,22.363"/><polygon points="17.11,21.1 15.917,22.763 15.917,22.363 17.11,20.7"/><polygon points="21.946,18.511 19.078,22.511 16.499,20.662 16.499,20.262 19.078,22.111 21.946,18.111"/><polygon points="8.479,16.151 6.183,14.11 6.183,13.71 8.479,15.751"/><polygon points="11.242,12.403 8.479,16.151 8.479,15.751 11.242,12.003"/><polygon points="18.786,12.837 15.711,17.127 13.334,15.422 13.334,15.022 15.711,16.727 18.786,12.437"/><polygon points="13.334,15.422 11.158,13.862 11.158,13.462 13.334,15.022"/><polygon points="15.329,12.638 13.334,15.422 13.334,15.022 15.329,12.238"/><polygon points="15.711,17.127 13.323,20.457 10.902,18.305 10.902,17.905 13.323,20.057 15.711,16.727"/></g><polygon points="24.512,14.532 21.946,18.111 17.172,14.689 18.786,12.437 21.834,12.613"/><polygon points="17.11,20.7 19.078,22.111 17.737,23.981 15.917,22.363"/><polygon points="15.917,22.363 13.323,20.057 14.304,18.688 17.11,20.7"/><polygon points="19.367,16.262 21.946,18.111 19.078,22.111 16.499,20.262"/><polygon points="8.479,15.751 6.183,13.71 7.872,11.809 11.242,12.003"/><polygon points="15.329,12.238 18.786,12.437 15.711,16.727 13.334,15.022"/><polygon points="13.334,15.022 11.158,13.462 11.242,12.003 15.329,12.238"/><polygon points="15.711,16.727 13.323,20.057 10.902,17.905 11.158,13.462"/><g fill="#4C5950" stroke="#4C5950" stroke-width="0.225" stroke-linejoin="round"><polygon points="4.031,13.267 1.86,15.71 -2.125,12.167 -2.125,11.767 1.86,15.31 4.031,12.867"/><polygon points="1.86,15.71 -0.703,18.593 -1.588,16.844 -1.588,16.444 -0.703,18.193 1.86,15.31"/><polygon points="-1.588,16.844 -3.157,13.743 -3.157,13.343 -1.588,16.444"/><polygon points="0.497,14.498 -1.588,16.844 -1.588,16.444 0.497,14.098"/><polygon points="7.35,16.217 4.04,19.94 0.722,16.99 0.722,16.59 4.04,19.54 7.35,15.817"/><polygon points="4.04,19.94 1.452,22.851 -0.703,18.593 -0.703,18.193 1.452,22.451 4.04,19.54"/><polygon points="8.838,25.454 5.548,29.155 3.756,27.403 3.756,27.003 5.548,28.755 8.838,25.054"/><polygon points="3.756,27.403 1.452,22.851 1.452,22.451 3.756,27.003"/><polygon points="7.078,23.89 3.756,27.403 3.756,27.003 7.078,23.49"/><polygon points="12.768,21.034 10.688,23.373 8.934,21.815 8.934,21.415 10.688,22.973 12.768,20.634"/><polygon points="7.084,23.896 3.42,20.638 3.42,20.238 7.084,23.496"/><polygon points="11.014,19.475 7.084,23.896 7.084,23.496 11.014,19.075"/><polygon points="17.269,25.035 13.204,30.704 8.158,26.219 8.158,25.819 13.204,30.304 17.269,24.635"/><polygon points="8.824,32.361 5.548,29.155 5.548,28.755 8.824,31.961"/><polygon points="11.58,29.261 8.824,32.361 8.824,31.961 11.58,28.861"/><polygon points="13.204,30.704 10.7,34.196 8.824,32.361 8.824,31.961 10.7,33.796 13.204,30.304"/></g><polygon points="-2.125,11.767 -1.788,11.253 2.493,11.5 4.031,12.867 1.86,15.31"/><polygon points="0.497,14.098 1.86,15.31 -0.703,18.193 -1.588,16.444"/><polygon points="-1.588,16.444 -3.157,13.343 -2.125,11.767 0.497,14.098"/><polygon points="0.722,16.59 4.031,12.867 7.35,15.817 4.04,19.54"/><polygon points="4.04,19.54 1.452,22.451 -0.703,18.193 0.722,16.59"/><polygon points="7.078,23.49 8.838,25.054 5.548,28.755 3.756,27.003"/><polygon points="3.756,27.003 1.452,22.451 3.42,20.238 7.078,23.49"/><polygon points="8.934,21.415 11.014,19.075 12.768,20.634 10.688,22.973"/><polygon points="7.084,23.496 3.42,20.238 7.35,15.817 11.014,19.075"/><polygon points="8.158,25.819 12.768,20.634 17.269,24.635 13.204,30.304"/><polygon points="8.824,31.961 5.548,28.755 8.158,25.819 11.58,28.861"/><polygon points="11.58,28.861 13.204,30.304 10.7,33.796 8.824,31.961"/></g><g fill="#D6A36E" stroke="#D6A36E" stroke-width="0.225"><g fill="#4C5950" stroke="#4C5950" stroke-width="0.225" stroke-linejoin="round"><polygon points="-4.723,32.516 -7.385,34.251 -7.385,33.851 -4.723,32.116"/><polygon points="-4.723,32.516 -7.385,34.251 -9.158,31.529 -9.158,31.129 -7.385,33.851 -4.723,32.116"/><polygon points="-9.158,31.529 -11.743,27.561 -11.743,27.161 -9.158,31.129"/><polygon points="-6.876,30.043 -9.158,31.529 -9.158,31.129 -6.876,29.643"/><polygon points="-7.385,34.251 -11.881,37.18 -14.032,32.638 -14.032,32.238 -11.881,36.78 -7.385,33.851"/><polygon points="-10.104,30.078 -12.107,31.383 -13.749,28.862 -13.749,28.462 -12.107,30.983 -10.104,29.678"/><polygon points="-12.107,31.383 -14.032,32.638 -15.334,29.89 -15.334,29.49 -14.032,32.238 -12.107,30.983"/></g><polygon points="-4.723,32.116 -7.385,33.851"/><polygon points="-6.876,29.643 -4.723,32.116 -7.385,33.851 -9.158,31.129"/><polygon points="-9.158,31.129 -11.743,27.161 -10.014,26.04 -6.876,29.643"/><polygon points="-10.104,29.678 -7.385,33.851 -11.881,36.78 -14.032,32.238"/><polygon points="-13.749,28.462 -11.743,27.161 -10.104,29.678 -12.107,30.983"/><polygon points="-12.107,30.983 -14.032,32.238 -15.334,29.49 -13.749,28.462"/><g fill="#4C5950" stroke="#4C5950" stroke-width="0.225" stroke-linejoin="round"><polygon points="-1.293,30.281 -4.046,32.075 -9.336,26 -9.336,25.6 -4.046,31.675 -1.293,29.881"/><polygon points="1.914,28.192 -1.293,30.281 -5.629,23.596 -5.629,23.196 -1.293,29.881 1.914,27.792"/></g><polygon points="-1.293,29.881 -4.046,31.675 -9.336,25.6 -5.629,23.196"/><polygon points="-5.629,23.196 -1.702,20.648 1.914,27.792 -1.293,29.881"/><g fill="#4C5950" stroke="#4C5950" stroke-width="0.225" stroke-linejoin="round"><polygon points="-11.14,23.136 -13.598,17.946 -13.598,17.546 -11.14,22.736"/><polygon points="-7.95,21.625 -11.14,23.136 -11.14,22.736 -7.95,21.225"/><polygon points="-7.036,23.555 -8.276,24.359 -9.274,22.252 -9.274,21.852 -8.276,23.959 -7.036,23.155"/><polygon points="-8.276,24.359 -10.024,25.492 -11.14,23.136 -11.14,22.736 -10.024,25.092 -8.276,23.959"/><polygon points="-15.882,24.37 -17.569,25.17 -19.843,20.369 -19.843,19.969 -17.569,24.77 -15.882,23.97"/><polygon points="-17.069,21.863 -18.097,19.692 -18.097,19.292 -17.069,21.463"/><polygon points="-12.718,19.803 -17.069,21.863 -17.069,21.463 -12.718,19.403"/><polygon points="-10.024,25.492 -15.679,29.16 -17.569,25.17 -17.569,24.77 -15.679,28.76 -10.024,25.092"/><polygon points="-5.026,22.251 -7.036,23.555 -9.069,19.263 -9.069,18.863 -7.036,23.155 -5.026,21.851"/><polygon points="-2.065,20.33 -5.026,22.251 -6.922,18.246 -6.922,17.846 -5.026,21.851 -2.065,19.93"/><polygon points="-9.069,19.263 -10.299,16.666 -10.299,16.266 -9.069,18.863"/><polygon points="-3.855,16.793 -9.069,19.263 -9.069,18.863 -3.855,16.393"/></g><polygon points="-11.14,22.736 -13.598,17.546 -10.299,16.266 -7.95,21.225"/><polygon points="-9.274,21.852 -7.95,21.225 -7.036,23.155 -8.276,23.959"/><polygon points="-8.276,23.959 -10.024,25.092 -11.14,22.736 -9.274,21.852"/><polygon points="-15.882,23.97 -17.569,24.77 -19.843,19.969 -18.097,19.292"/><polygon points="-17.069,21.463 -18.097,19.292 -13.598,17.546 -12.718,19.403"/><polygon points="-11.531,21.91 -10.024,25.092 -15.679,28.76 -17.569,24.77"/><polygon points="-5.026,21.851 -7.036,23.155 -9.069,18.863 -6.922,17.846"/><polygon points="-6.922,17.846 -3.855,16.393 -2.065,19.93 -5.026,21.851"/><polygon points="-9.069,18.863 -10.299,16.266 -4.967,14.197 -3.855,16.393"/></g><g fill="#D6A36E" stroke="#D6A36E" stroke-width="0.225"><g fill="#4C5950" stroke="#4C5950" stroke-width="0.225" stroke-linejoin="round"><polygon points="-20.763,-10.844 -23.573,-10.397 -24.148,-14.007 -24.148,-14.407 -23.573,-10.797 -20.763,-11.244"/><polygon points="-23.573,-10.397 -26.333,-9.957 -26.728,-13.737 -26.728,-14.137 -26.333,-10.357 -23.573,-10.797"/></g><polygon points="-24.148,-14.407 -22.059,-14.626 -20.763,-11.244 -23.573,-10.797"/><polygon points="-23.573,-10.797 -26.333,-10.357 -26.728,-14.137 -24.148,-14.407"/><g fill="#4C5950" stroke="#4C5950" stroke-width="0.225" stroke-linejoin="round"><polygon points="-15.242,-16.351 -18.306,-13.295 -20.195,-17.458 -20.195,-17.858 -18.306,-13.695 -15.242,-16.751"/><polygon points="-18.306,-13.295 -20.143,-11.462 -22.108,-16.59 -22.108,-16.99 -20.143,-11.862 -18.306,-13.695"/></g><polygon points="-20.195,-17.858 -16.505,-19.532 -15.242,-16.751 -18.306,-13.695"/><polygon points="-18.306,-13.695 -20.143,-11.862 -22.108,-16.99 -20.195,-17.858"/><g fill="#4C5950" stroke="#4C5950" stroke-width="0.225" stroke-linejoin="round"><polygon points="-15.692,-19.277 -17.392,-23.025 -17.392,-23.425 -15.692,-19.677"/><polygon points="-11.42,-20.163 -15.692,-19.277 -15.692,-19.677 -11.42,-20.563"/><polygon points="-9.082,-22.496 -11.42,-20.163 -13.517,-24.783 -13.517,-25.183 -11.42,-20.563 -9.082,-22.896"/><polygon points="-7.262,-24.311 -9.082,-22.496 -10.7,-26.061 -10.7,-26.461 -9.082,-22.896 -7.262,-24.711"/><polygon points="-8.559,-27.033 -11.293,-25.792 -13.185,-29.961 -13.185,-30.361 -11.293,-26.192 -8.559,-27.433"/><polygon points="-14.484,-24.344 -17.392,-23.025 -19.284,-27.194 -19.284,-27.594 -17.392,-23.425 -14.484,-24.744"/><polygon points="-10.53,-31.166 -12.201,-30.407 -13.471,-33.205 -13.471,-33.605 -12.201,-30.807 -10.53,-31.566"/><polygon points="-14.973,-32.523 -15.679,-34.08 -15.679,-34.48 -14.973,-32.923"/><polygon points="-11.852,-33.94 -14.973,-32.523 -14.973,-32.923 -11.852,-34.34"/><polygon points="-13.703,-29.726 -17.17,-28.153 -19.29,-32.825 -19.29,-33.225 -17.17,-28.553 -13.703,-30.126"/><polygon points="-17.17,-28.153 -19.284,-27.194 -21.492,-32.06 -21.492,-32.46 -19.284,-27.594 -17.17,-28.553"/></g><polygon points="-15.692,-19.677 -17.392,-23.425 -13.517,-25.183 -11.42,-20.563"/><polygon points="-9.082,-22.896 -11.42,-20.563 -13.517,-25.183 -10.7,-26.461"/><polygon points="-10.7,-26.461 -8.559,-27.433 -7.262,-24.711 -9.082,-22.896"/><polygon points="-13.185,-30.361 -10.53,-31.566 -8.559,-27.433 -11.293,-26.192"/><polygon points="-14.484,-24.744 -17.392,-23.425 -19.284,-27.594 -16.376,-28.913"/><polygon points="-13.471,-33.605 -11.852,-34.34 -10.53,-31.566 -12.201,-30.807"/><polygon points="-14.973,-32.923 -15.679,-34.48 -12.453,-35.602 -11.852,-34.34"/><polygon points="-19.29,-33.225 -15.679,-34.48 -13.703,-30.126 -17.17,-28.553"/><polygon points="-17.17,-28.553 -19.284,-27.594 -21.492,-32.46 -19.29,-33.225"/></g><g fill="#D6A36E" stroke="#D6A36E" stroke-width="0.225"><g fill="#4C5950" stroke="#4C5950" stroke-width="0.225" stroke-linejoin="round"><polygon points="-26.444,14.634 -30.659,15.543 -31.347,13.778 -31.347,13.378 -30.659,15.143 -26.444,14.234"/><polygon points="-20.243,10.436 -21.099,13.481 -26.444,14.634 -28.292,9.894 -28.292,9.494 -26.444,14.234 -21.099,13.081 -20.243,10.036"/><polygon points="-20.89,-4.639 -23.181,-3.746 -24.567,-7.3 -24.567,-7.7 -23.181,-4.146 -20.89,-5.039"/></g><polygon points="-27.381,11.831 -26.444,14.234 -30.659,15.143 -31.347,13.378"/><polygon points="-21.488,6.841 -20.243,10.036 -21.099,13.081 -26.444,14.234 -28.292,9.494"/><polygon points="-24.567,-7.7 -23.416,-7.963 -20.89,-5.039 -23.181,-4.146"/></g><g fill="#D6A36E" stroke="#D6A36E" stroke-width="0.225"><g fill="#4C5950" stroke="#4C5950" stroke-width="0.225" stroke-linejoin="round"><polygon points="23.241,-14.551 20.17,-13.367 17.518,-17.683 17.518,-18.083 20.17,-13.767 23.241,-14.951"/><polygon points="17.518,-17.683 14.523,-22.556 14.523,-22.956 17.518,-18.083"/><polygon points="21.17,-19.927 17.518,-17.683 17.518,-18.083 21.17,-20.327"/><polygon points="19.992,-22.982 14.523,-22.556 14.523,-22.956 19.992,-23.382"/><polygon points="27.186,-4.314 25.989,-3.899 20.17,-13.367 20.17,-13.767 25.989,-4.299 27.186,-4.714"/></g><polygon points="21.17,-20.327 23.241,-14.951 20.17,-13.767 17.518,-18.083"/><polygon points="17.518,-18.083 14.523,-22.956 19.992,-23.382 21.17,-20.327"/><polygon points="14.523,-22.956 17.376,-28.24 18.062,-28.39 19.992,-23.382"/><polygon points="23.241,-14.951 27.186,-4.714 25.989,-4.299 20.17,-13.767"/><g fill="#4C5950" stroke="#4C5950" stroke-width="0.225" stroke-linejoin="round"><polygon points="31.482,-16.259 23.028,-17.33 21.037,-22.495 21.037,-22.895 23.028,-17.73 31.482,-16.659"/></g><polygon points="30.042,-24.871 31.482,-16.659 23.028,-17.73 21.037,-22.895"/><g fill="#4C5950" stroke="#4C5950" stroke-width="0.225" stroke-linejoin="round"><polygon points="42.529,-9.637 38.57,-8.263 36.287,-14.843 36.287,-15.243 38.57,-8.663 42.529,-10.037"/><polygon points="38.57,-8.263 27.943,-4.576 25.493,-10.933 25.493,-11.333 27.943,-4.976 38.57,-8.663"/></g><polygon points="36.287,-15.243 41.738,-14.553 42.529,-10.037 38.57,-8.663"/><polygon points="36.287,-15.243 38.57,-8.663 27.943,-4.976 25.493,-11.333"/></g><g fill="#D6A36E" stroke="#D6A36E" stroke-width="0.225"><g fill="#4C5950" stroke="#4C5950" stroke-width="0.225" stroke-linejoin="round"><polygon points="-0.947,-25.324 -3.107,-25.316 -3.242,-27.108 -3.242,-27.508 -3.107,-25.716 -0.947,-25.724"/><polygon points="-3.107,-25.316 -5.521,-25.308 -6.271,-26.88 -6.271,-27.28 -5.521,-25.708 -3.107,-25.716"/><polygon points="-0.937,-25.188 -1.093,-27.27 -1.093,-27.67 -0.937,-25.588"/><polygon points="4.269,-25.579 -0.937,-25.188 -0.937,-25.588 4.269,-25.979"/><polygon points="9.373,-28.057 8.885,-27.153 7.015,-22.204 4.545,-21.906 4.112,-27.661 4.112,-28.061 4.545,-22.306 7.015,-22.604 8.885,-27.553 9.373,-28.457"/></g><polygon points="-3.242,-27.508 -1.093,-27.67 -0.947,-25.724 -3.107,-25.716"/><polygon points="-3.107,-25.716 -5.521,-25.708 -6.271,-27.28 -3.242,-27.508"/><polygon points="-0.937,-25.588 -1.093,-27.67 4.112,-28.061 4.269,-25.979"/><polygon points="4.112,-28.061 9.373,-28.457 8.885,-27.553 7.015,-22.604 4.545,-22.306"/><g fill="#4C5950" stroke="#4C5950" stroke-width="0.225" stroke-linejoin="round"><polygon points="11.929,-32.792 9.825,-28.894 6.409,-28.637 6.218,-32.511 6.218,-32.911 6.409,-29.037 9.825,-29.294 11.929,-33.192"/></g><polygon points="11.929,-33.192 9.825,-29.294 6.409,-29.037 6.218,-32.911"/><g fill="#4C5950" stroke="#4C5950" stroke-width="0.225" stroke-linejoin="round"><polygon points="-4.74,-27.797 -6.64,-27.654 -10.417,-35.578 -10.417,-35.978 -6.64,-28.054 -4.74,-28.197"/><polygon points="-1.731,-28.024 -4.74,-27.797 -5.181,-32.176 -5.181,-32.576 -4.74,-28.197 -1.731,-28.424"/><polygon points="0.569,-28.197 -1.731,-28.024 -1.868,-29.394 -1.868,-29.794 -1.731,-28.424 0.569,-28.597"/><polygon points="-3.22,-32.373 -5.181,-32.176 -5.572,-36.065 -5.572,-36.465 -5.181,-32.576 -3.22,-32.773"/><polygon points="5.468,-31.482 2.841,-31.218 2.54,-34.211 2.54,-34.611 2.841,-31.618 5.468,-31.882"/><polygon points="5.611,-28.577 0.569,-28.197 0.291,-30.961 0.291,-31.361 0.569,-28.597 5.611,-28.977"/></g><polygon points="-4.74,-28.197 -6.64,-28.054 -10.417,-35.978 -5.572,-36.465"/><polygon points="-1.731,-28.424 -4.74,-28.197 -5.181,-32.576 -2.178,-32.877"/><polygon points="0.426,-30.025 0.569,-28.597 -1.731,-28.424 -1.868,-29.794"/><polygon points="-3.22,-32.773 -5.181,-32.576 -5.572,-36.465 -3.611,-36.663"/><polygon points="2.54,-34.611 5.32,-34.89 5.468,-31.882 2.841,-31.618"/><polygon points="5.468,-31.882 5.611,-28.977 0.569,-28.597 0.291,-31.361"/><g fill="#4C5950" stroke="#4C5950" stroke-width="0.225" stroke-linejoin="round"><polygon points="-11.119,-42.476 -11.439,-47.201 -11.439,-47.601 -11.119,-42.876"/><polygon points="-5.301,-42.915 -11.119,-42.476 -11.119,-42.876 -5.301,-43.315"/><polygon points="-4.85,-36.942 -10.705,-36.353 -11.119,-42.476 -11.119,-42.876 -10.705,-36.753 -4.85,-37.342"/><polygon points="0.957,-37.526 -1.438,-37.285 -1.54,-38.643 -1.54,-39.043 -1.438,-37.685 0.957,-37.926"/><polygon points="-1.438,-37.285 -4.85,-36.942 -4.95,-38.276 -4.95,-38.676 -4.85,-37.342 -1.438,-37.685"/></g><polygon points="-11.119,-42.876 -11.439,-47.601 -5.657,-48.038 -5.301,-43.315"/><polygon points="-5.301,-43.315 -4.85,-37.342 -10.705,-36.753 -11.119,-42.876"/><polygon points="0.859,-39.224 0.957,-37.926 -1.438,-37.685 -1.54,-39.043"/><polygon points="-1.532,-38.934 -1.438,-37.685 -4.85,-37.342 -4.95,-38.676"/></g><g fill="#D6A36E" stroke="#D6A36E" stroke-width="0.225"><g fill="#4C5950" stroke="#4C5950" stroke-width="0.225" stroke-linejoin="round"><polygon points="21.403,29.964 16.306,27.751 16.306,27.351 21.403,29.564"/><polygon points="23.818,24.404 21.403,29.964 21.403,29.564 23.818,24.004"/><polygon points="29.159,20.67 28.357,23.271 23.672,21.237 23.672,20.837 28.357,22.871 29.159,20.27"/><polygon points="28.357,23.271 27.514,26.009 22.538,23.848 22.538,23.448 27.514,25.609 28.357,22.871"/><polygon points="22.538,23.848 19.919,22.711 19.919,22.311 22.538,23.448"/><polygon points="24.75,18.755 22.538,23.848 22.538,23.448 24.75,18.355"/><polygon points="30.557,16.135 29.159,20.67 23.229,18.094 23.229,17.694 29.159,20.27 30.557,15.735"/></g><polygon points="21.403,29.564 16.306,27.351 19.919,22.311 23.818,24.004"/><polygon points="23.672,20.837 24.75,18.355 29.159,20.27 28.357,22.871"/><polygon points="28.357,22.871 27.514,25.609 22.538,23.448 23.672,20.837"/><polygon points="22.538,23.448 19.919,22.311 23.229,17.694 24.75,18.355"/><polygon points="23.229,17.694 26.574,13.029 30.557,15.735 29.159,20.27"/><g fill="#4C5950" stroke="#4C5950" stroke-width="0.225" stroke-linejoin="round"><polygon points="24.115,32.015 20.777,39.701 16.834,37.644 16.834,37.244 20.777,39.301 24.115,31.615"/><polygon points="13.903,36.114 11.288,34.75 11.288,34.35 13.903,35.714"/><polygon points="15.126,33.769 13.903,36.114 13.903,35.714 15.126,33.369"/><polygon points="20.574,30.477 18.058,35.299 12.844,32.579 12.844,32.179 18.058,34.899 20.574,30.077"/><polygon points="19.704,42.171 18.452,45.054 14.131,45.366 14.131,44.966 18.452,44.654 19.704,41.771"/><polygon points="23.391,44.697 18.452,45.054 18.452,44.654 23.391,44.297"/></g><polygon points="20.574,30.077 24.115,31.615 20.777,39.301 16.834,37.244"/><polygon points="13.903,35.714 11.288,34.35 12.844,32.179 15.126,33.369"/><polygon points="12.844,32.179 15.829,28.016 20.574,30.077 18.058,34.899"/><polygon points="19.704,41.771 18.452,44.654 14.131,44.966 16.169,40.245"/><polygon points="23.391,44.297 18.452,44.654 20.891,39.04 23.083,40.021"/></g><g fill="#D6A36E" stroke="#D6A36E" stroke-width="0.225"><g fill="#4C5950" stroke="#4C5950" stroke-width="0.225" stroke-linejoin="round"><polygon points="40.433,3.704 35.021,4.981 32.862,-4.166 32.862,-4.566 35.021,4.581 40.433,3.304"/><polygon points="35.021,4.981 26.749,6.933 26.558,-1.979 26.558,-2.379 26.749,6.533 35.021,4.581"/></g><polygon points="32.862,-4.566 39.502,-6.87 40.433,3.304 35.021,4.581"/><polygon points="35.021,4.581 26.749,6.533 26.558,-2.379 32.862,-4.566"/><g fill="#4C5950" stroke="#4C5950" stroke-width="0.225" stroke-linejoin="round"><polygon points="34.306,12.641 26.861,12.162 26.766,7.751 26.766,7.351 26.861,11.762 34.306,12.241"/></g><polygon points="34.306,12.241 26.861,11.762 26.766,7.351 33.709,5.712"/><g fill="#4C5950" stroke="#4C5950" stroke-width="0.225" stroke-linejoin="round"><polygon points="35.826,18.747 32.633,16.578 32.633,16.178 35.826,18.347"/><polygon points="39.215,13.759 35.826,18.747 35.826,18.347 39.215,13.359"/><polygon points="41.936,20.136 40.652,22.026 35.826,18.747 35.826,18.347 40.652,21.626 41.936,19.736"/></g><polygon points="35.826,18.347 32.633,16.178 34.744,13.071 39.215,13.359"/><polygon points="41.698,17.133 41.936,19.736 40.652,21.626 35.826,18.347 38.245,14.787"/><g fill="#4C5950" stroke="#4C5950" stroke-width="0.225" stroke-linejoin="round"><polygon points="45.564,23.241 43.159,23.73 43.062,23.663 42.82,21.02 42.82,20.62 43.062,23.263 43.159,23.33 45.564,22.841"/></g><polygon points="45.564,22.841 43.159,23.33 43.062,23.263 42.82,20.62 44.851,20.093"/><g fill="#4C5950" stroke="#4C5950" stroke-width="0.225" stroke-linejoin="round"><polygon points="45.236,7.517 44.911,3.966 44.911,3.566 45.236,7.117"/><polygon points="52.322,6.869 45.236,7.517 45.236,7.117 52.322,6.469"/></g><polygon points="45.236,7.117 44.911,3.566 52.036,3.345 52.322,6.469"/><g fill="#4C5950" stroke="#4C5950" stroke-width="0.225" stroke-linejoin="round"><polygon points="51.228,-2.518 51.072,-7.541 51.072,-7.941 51.228,-2.918"/><polygon points="57.439,-2.711 51.228,-2.518 51.228,-2.918 57.439,-3.111"/><polygon points="51.25,-1.809 46.09,-1.649 45.902,-7.69 45.902,-8.09 46.09,-2.049 51.25,-2.209"/><polygon points="46.09,-1.649 44.756,-1.607 43.242,-7.767 43.242,-8.167 44.756,-2.007 46.09,-2.049"/><polygon points="40.569,-3.583 40.281,-6.74 40.281,-7.14 40.569,-3.983"/><polygon points="44.06,-4.441 40.569,-3.583 40.569,-3.983 44.06,-4.841"/><polygon points="44.756,-1.607 40.762,-1.483 40.569,-3.583 40.569,-3.983 40.762,-1.883 44.756,-2.007"/></g><polygon points="51.228,-2.918 51.072,-7.941 57.247,-7.764 57.439,-3.111"/><polygon points="45.902,-8.09 51.072,-7.941 51.25,-2.209 46.09,-2.049"/><polygon points="46.09,-2.049 44.756,-2.007 43.242,-8.167 45.902,-8.09"/><polygon points="40.569,-3.983 40.281,-7.14 43.242,-8.167 44.06,-4.841"/><polygon points="44.06,-4.841 44.756,-2.007 40.762,-1.883 40.569,-3.983"/><g fill="#4C5950" stroke="#4C5950" stroke-width="0.225" stroke-linejoin="round"><polygon points="63.759,-0.64 58.334,-0.416 58.247,-2.533 58.247,-2.933 58.334,-0.816 63.759,-1.04"/><polygon points="60.888,-2.642 58.247,-2.533 58.049,-7.34 58.049,-7.74 58.247,-2.933 60.888,-3.042"/><polygon points="63.666,-2.756 60.888,-2.642 60.698,-7.264 60.698,-7.664 60.888,-3.042 63.666,-3.156"/><polygon points="63.615,-3.923 63.472,-7.184 63.472,-7.584 63.615,-4.323"/><polygon points="68.895,-7.028 66.45,-2.419 63.615,-3.923 63.615,-4.323 66.45,-2.819 68.895,-7.428"/></g><polygon points="63.666,-3.156 63.759,-1.04 58.334,-0.816 58.247,-2.933"/><polygon points="60.888,-3.042 58.247,-2.933 58.049,-7.74 60.698,-7.664"/><polygon points="60.698,-7.664 63.472,-7.584 63.666,-3.156 60.888,-3.042"/><polygon points="63.615,-4.323 63.472,-7.584 68.895,-7.428 66.45,-2.819"/></g><g fill="#D6A36E" stroke="#D6A36E" stroke-width="0.225"><g fill="#4C5950" stroke="#4C5950" stroke-width="0.225" stroke-linejoin="round"><polygon points="-15.831,44.601 -18.001,49.044 -20.451,47.624 -20.451,47.224 -18.001,48.644 -15.831,44.201"/></g><polygon points="-17.978,42.956 -15.831,44.201 -18.001,48.644 -20.451,47.224"/><g fill="#4C5950" stroke="#4C5950" stroke-width="0.225" stroke-linejoin="round"><polygon points="-14.607,42.095 -15.479,43.88 -20.43,41.011 -20.43,40.611 -15.479,43.48 -14.607,41.695"/><polygon points="-12.939,38.68 -14.607,42.095 -19.436,39.296 -19.436,38.896 -14.607,41.695 -12.939,38.28"/></g><polygon points="-14.607,41.695 -15.479,43.48 -20.43,40.611 -19.436,38.896"/><polygon points="-19.436,38.896 -17.405,35.392 -12.939,38.28 -14.607,41.695"/><g fill="#4C5950" stroke="#4C5950" stroke-width="0.225" stroke-linejoin="round"><polygon points="-15.514,31.378 -17.691,34.654 -19.296,33.616 -19.296,33.216 -17.691,34.254 -15.514,30.978"/><polygon points="-19.296,33.616 -22.835,31.329 -22.835,30.929 -19.296,33.216"/><polygon points="-17.236,30.431 -19.296,33.616 -19.296,33.216 -17.236,30.031"/><polygon points="-12.49,37.762 -12.585,37.956 -17.691,34.654 -17.691,34.254 -12.585,37.556 -12.49,37.362"/></g><polygon points="-17.236,30.031 -15.514,30.978 -17.691,34.254 -19.296,33.216"/><polygon points="-19.296,33.216 -22.835,30.929 -20.899,28.016 -17.236,30.031"/><polygon points="-15.514,30.978 -12.49,37.362 -12.585,37.556 -17.691,34.254"/><g fill="#4C5950" stroke="#4C5950" stroke-width="0.225" stroke-linejoin="round"><polygon points="-24.922,22.719 -26.036,24.143 -27.996,22.278 -27.996,21.878 -26.036,23.743 -24.922,22.319"/><polygon points="-18.974,24.074 -20.417,26.245 -26.027,21.854 -26.027,21.454 -20.417,25.845 -18.974,23.674"/></g><polygon points="-27.996,21.878 -26.027,21.454 -24.922,22.319 -26.036,23.743"/><polygon points="-26.027,21.454 -20.581,20.28 -18.974,23.674 -20.417,25.845"/></g><g fill="#D6A36E" stroke="#D6A36E" stroke-width="0.225"><g fill="#4C5950" stroke="#4C5950" stroke-width="0.225" stroke-linejoin="round"><polygon points="12.169,45.773 10.052,51.166 4.593,49.653 4.593,49.253 10.052,50.766 12.169,45.373"/><polygon points="12.169,45.773 5.941,44.787 5.941,44.387 12.169,45.373"/><polygon points="4.593,49.653 0.563,48.537 0.563,48.137 4.593,49.253"/><polygon points="6.746,41.884 4.593,49.653 4.593,49.253 6.746,41.484"/></g><polygon points="12.169,45.373 10.052,50.766 4.593,49.253 5.941,44.387"/><polygon points="5.941,44.387 6.746,41.484 11.379,42.421 12.169,45.373"/><polygon points="4.593,49.253 0.563,48.137 3.22,40.772 6.746,41.484"/><g fill="#4C5950" stroke="#4C5950" stroke-width="0.225" stroke-linejoin="round"><polygon points="11.148,41.958 7.075,41.135 7.075,40.735 11.148,41.558"/><polygon points="7.075,41.135 3.494,40.411 3.494,40.011 7.075,40.735"/><polygon points="7.76,37.747 7.075,41.135 7.075,40.735 7.76,37.347"/><polygon points="10.262,38.649 4.836,36.692 4.836,36.292 10.262,38.249"/></g><polygon points="7.76,37.347 10.262,38.249 11.148,41.558 7.075,40.735"/><polygon points="7.075,40.735 3.494,40.011 4.836,36.292 7.76,37.347"/><polygon points="4.836,36.292 6.285,32.275 9.505,35.424 10.262,38.249"/><g fill="#4C5950" stroke="#4C5950" stroke-width="0.225" stroke-linejoin="round"><polygon points="5.657,32.06 3.634,37.667 -0.131,35.928 -0.131,35.528 3.634,37.267 5.657,31.66"/><polygon points="0.774,33.368 -0.131,35.928 -5.026,33.668 -5.026,33.268 -0.131,35.528 0.774,32.968"/></g><polygon points="5.657,31.66 3.634,37.267 -0.131,35.528 1.555,30.761"/><polygon points="0.774,32.968 -0.131,35.528 -5.026,33.268 -0.817,30.526"/><g fill="#4C5950" stroke="#4C5950" stroke-width="0.225" stroke-linejoin="round"><polygon points="-2.537,35.698 -4.669,40.496 -6.802,39.754 -6.802,39.354 -4.669,40.096 -2.537,35.298"/><polygon points="-6.802,39.754 -11.736,38.04 -11.736,37.64 -6.802,39.354"/><polygon points="-4.581,34.755 -6.802,39.754 -6.802,39.354 -4.581,34.355"/><polygon points="-5.885,43.234 -7.276,46.364 -9.176,45.016 -9.176,44.616 -7.276,45.964 -5.885,42.834"/><polygon points="-9.176,45.016 -13.608,41.872 -13.608,41.472 -9.176,44.616"/><polygon points="-6.834,39.743 -9.176,45.016 -9.176,44.616 -6.834,39.343"/><polygon points="1.941,42.358 -0.21,48.322 -7.276,46.364 -7.276,45.964 -0.21,47.922 1.941,41.958"/><polygon points="3.361,38.422 1.941,42.358 -2.108,40.559 -2.108,40.159 1.941,41.958 3.361,38.022"/><polygon points="-2.108,40.559 -4.27,39.599 -4.27,39.199 -2.108,40.159"/><polygon points="-0.389,36.69 -2.108,40.559 -2.108,40.159 -0.389,36.29"/></g><polygon points="-4.581,34.355 -2.537,35.298 -4.669,40.096 -6.802,39.354"/><polygon points="-6.802,39.354 -11.736,37.64 -5.817,33.784 -4.581,34.355"/><polygon points="-5.885,42.834 -7.276,45.964 -9.176,44.616 -7.973,41.907"/><polygon points="-9.176,44.616 -13.608,41.472 -11.736,37.64 -6.834,39.343"/><polygon points="1.941,41.958 -0.21,47.922 -7.276,45.964 -4.27,39.199"/><polygon points="-0.389,36.29 3.361,38.022 1.941,41.958 -2.108,40.159"/><polygon points="-2.108,40.159 -4.27,39.199 -2.537,35.298 -0.389,36.29"/><g fill="#4C5950" stroke="#4C5950" stroke-width="0.225" stroke-linejoin="round"><polygon points="5.264,50.669 4.727,52.607 1.764,51.786 1.764,51.386 4.727,52.207 5.264,50.269"/><polygon points="9.758,51.915 8.279,55.682 4.189,54.549 4.189,54.149 8.279,55.282 9.758,51.515"/><polygon points="7.072,58.756 5.735,62.161 2.372,61.109 2.372,60.709 5.735,61.761 7.072,58.356"/><polygon points="8.279,55.682 7.072,58.756 3.312,57.715 3.312,57.315 7.072,58.356 8.279,55.282"/><polygon points="-15.056,55.656 -19.641,54.222 -19.641,53.822 -15.056,55.256"/><polygon points="-12.276,46.772 -15.056,55.656 -15.056,55.256 -12.276,46.372"/></g><polygon points="1.764,51.386 2.301,49.448 5.264,50.269 4.727,52.207"/><polygon points="4.189,54.149 5.264,50.269 9.758,51.515 8.279,55.282"/><polygon points="7.072,58.356 5.735,61.761 2.372,60.709 3.312,57.315"/><polygon points="3.312,57.315 4.189,54.149 8.279,55.282 7.072,58.356"/><polygon points="-15.056,55.256 -19.641,53.822 -15.878,46.12 -12.276,46.372"/></g><g stroke="#99AA77" stroke-width="0.225" stroke-linecap="butt"><line x1="-38.489" y1="16.441" x2="-37.925" y2="14.441"/><line x1="-39.681" y1="16.453" x2="-38.668" y2="12.853"/><line x1="-40.874" y1="16.465" x2="-39.41" y2="11.265"/><line x1="-42.067" y1="16.478" x2="-40.152" y2="9.677"/><line x1="-43.26" y1="16.49" x2="-40.894" y2="8.089"/><line x1="-44.453" y1="16.503" x2="-41.636" y2="6.501"/><line x1="-45.615" y1="16.409" x2="-42.378" y2="4.914"/><line x1="-46.749" y1="16.21" x2="-43.12" y2="3.326"/><line x1="-47.872" y1="15.975" x2="-43.862" y2="1.738"/><line x1="-48.974" y1="15.664" x2="-44.604" y2="0.15"/><line x1="-50.076" y1="15.354" x2="-45.356" y2="-1.405"/><line x1="-51.177" y1="15.044" x2="-46.288" y2="-2.319"/><line x1="-52.279" y1="14.733" x2="-47.219" y2="-3.234"/><line x1="-53.381" y1="14.423" x2="-48.392" y2="-3.293"/><line x1="-54.483" y1="14.113" x2="-49.588" y2="-3.269"/><line x1="-55.585" y1="13.802" x2="-50.784" y2="-3.245"/><line x1="-56.687" y1="13.492" x2="-51.98" y2="-3.222"/><line x1="-57.789" y1="13.182" x2="-53.176" y2="-3.198"/><line x1="-58.891" y1="12.871" x2="-54.372" y2="-3.174"/><line x1="-59.993" y1="12.561" x2="-55.568" y2="-3.151"/><line x1="-60.818" y1="11.27" x2="-57.116" y2="-1.875"/><g fill="#D6A36E" stroke="#D6A36E" stroke-width="0.225"><g fill="#4C5950" stroke="#4C5950" stroke-width="0.225" stroke-linejoin="round"><polygon points="-40.616,15.063 -43.048,14.888 -43.048,14.648 -40.616,14.823"/><polygon points="-39.582,11.807 -39.72,13.716 -40.515,13.659 -40.616,15.063 -40.616,14.823 -40.515,13.419 -39.72,13.476 -39.582,11.567"/></g><polygon points="-40.616,14.823 -43.048,14.648 -42.946,13.243 -42.808,11.334 -40.377,11.51 -39.582,11.567 -39.72,13.476 -40.515,13.419"/></g></g><g/><g/><g stroke="#99AA77" stroke-width="0.225" stroke-linecap="butt"><line x1="57.789" y1="-40.114" x2="54.316" y2="-39.105"/><line x1="58.992" y1="-39.287" x2="48.574" y2="-36.259"/><line x1="59.987" y1="-38.4" x2="42.831" y2="-33.414"/><line x1="60.303" y1="-37.315" x2="41.242" y2="-31.775"/><line x1="60.618" y1="-36.23" x2="40.424" y2="-30.361"/><line x1="60.933" y1="-35.145" x2="40.518" y2="-29.211"/><line x1="61.249" y1="-34.06" x2="40.714" y2="-28.092"/><line x1="61.564" y1="-32.975" x2="40.911" y2="-26.972"/><line x1="61.879" y1="-31.89" x2="41.107" y2="-25.852"/><line x1="62.195" y1="-30.805" x2="41.303" y2="-24.733"/><line x1="62.51" y1="-29.72" x2="41.5" y2="-23.613"/><line x1="62.826" y1="-28.635" x2="41.696" y2="-22.494"/><line x1="63.141" y1="-27.549" x2="41.892" y2="-21.374"/><line x1="63.456" y1="-26.464" x2="42.089" y2="-20.254"/><line x1="63.772" y1="-25.379" x2="42.285" y2="-19.135"/><line x1="64.087" y1="-24.294" x2="42.482" y2="-18.015"/><line x1="64.402" y1="-23.209" x2="42.678" y2="-16.896"/><line x1="64.718" y1="-22.124" x2="42.875" y2="-15.776"/><line x1="65.033" y1="-21.039" x2="44.077" y2="-14.949"/><line x1="65.348" y1="-19.954" x2="45.28" y2="-14.122"/><line x1="65.664" y1="-18.869" x2="48.303" y2="-13.824"/><line x1="65.979" y1="-17.784" x2="51.987" y2="-13.718"/><line x1="66.294" y1="-16.699" x2="55.67" y2="-13.612"/><line x1="66.106" y1="-15.468" x2="59.354" y2="-13.505"/><line x1="65.288" y1="-14.053" x2="63.037" y2="-13.399"/><g fill="#D6A36E" stroke="#D6A36E" stroke-width="0.225"><g fill="#4C5950" stroke="#4C5950" stroke-width="0.225" stroke-linejoin="round"><polygon points="45.445,-29.979 44.291,-29.169 43.336,-30.53 41.843,-29.482 40.933,-30.78 40.933,-31.02 41.843,-29.722 43.336,-30.77 44.291,-29.409 45.445,-30.219"/></g><polygon points="40.933,-31.02 42.425,-32.067 43.58,-32.877 44.49,-31.58 45.445,-30.219 44.291,-29.409 43.336,-30.77 41.843,-29.722"/></g></g><g/><g stroke="#99AA77" stroke-width="0.225" stroke-linecap="butt"><line x1="25.121" y1="-51.22" x2="23.801" y2="-50.466"/><line x1="26.035" y1="-50.041" x2="22.77" y2="-48.176"/><line x1="26.768" y1="-48.759" x2="22.58" y2="-46.366"/><line x1="27.501" y1="-47.476" x2="22.46" y2="-44.597"/><line x1="28.233" y1="-46.194" x2="22.341" y2="-42.827"/><line x1="28.966" y1="-44.912" x2="22.221" y2="-41.058"/><line x1="29.699" y1="-43.629" x2="22.101" y2="-39.288"/><line x1="30.432" y1="-42.347" x2="22.632" y2="-37.89"/><line x1="31.164" y1="-41.064" x2="24.01" y2="-36.976"/><line x1="31.897" y1="-39.782" x2="26.144" y2="-36.494"/><line x1="32.63" y1="-38.499" x2="28.278" y2="-36.013"/><line x1="33.363" y1="-37.217" x2="30.412" y2="-35.531"/><line x1="33.8" y1="-35.766" x2="32.546" y2="-35.049"/><line x1="26.504" y1="-54.773" x2="38.548" y2="-33.694"/><line x1="27.414" y1="-56.222" x2="39.964" y2="-34.258"/><line x1="28.324" y1="-57.672" x2="41.333" y2="-34.903"/><line x1="29.276" y1="-59.047" x2="42.688" y2="-35.575"/><line x1="30.485" y1="-59.974" x2="44.042" y2="-36.246"/><line x1="31.762" y1="-60.78" x2="45.397" y2="-36.917"/><line x1="33.072" y1="-61.529" x2="46.751" y2="-37.588"/><line x1="34.382" y1="-62.278" x2="48.106" y2="-38.26"/><line x1="35.693" y1="-63.026" x2="49.46" y2="-38.931"/><line x1="37.003" y1="-63.775" x2="50.815" y2="-39.602"/><line x1="38.313" y1="-64.524" x2="52.17" y2="-40.273"/><line x1="39.624" y1="-65.273" x2="53.524" y2="-40.944"/><line x1="40.934" y1="-66.021" x2="54.879" y2="-41.616"/><line x1="42.244" y1="-66.77" x2="56.233" y2="-42.287"/><line x1="44.666" y1="-65.573" x2="56.682" y2="-44.543"/></g><g stroke="#99AA77" stroke-width="0.225" stroke-linecap="butt"><line x1="61.494" y1="36.84" x2="61.588" y2="28.856"/><line x1="60.261" y1="37.236" x2="60.373" y2="27.748"/><line x1="59.03" y1="37.449" x2="59.156" y2="26.877"/><line x1="57.802" y1="37.434" x2="57.938" y2="26.005"/><line x1="56.574" y1="37.42" x2="56.72" y2="25.133"/><line x1="55.346" y1="37.405" x2="55.502" y2="24.262"/><line x1="54.118" y1="37.391" x2="54.283" y2="23.545"/><line x1="52.891" y1="37.376" x2="53.058" y2="23.279"/><line x1="51.663" y1="37.362" x2="51.828" y2="23.398"/><line x1="50.435" y1="37.347" x2="50.597" y2="23.648"/><line x1="49.207" y1="37.332" x2="49.366" y2="23.898"/><line x1="47.979" y1="37.318" x2="48.135" y2="24.148"/><line x1="46.751" y1="37.303" x2="46.904" y2="24.398"/><line x1="45.523" y1="37.289" x2="45.673" y2="24.648"/><line x1="44.295" y1="37.274" x2="44.44" y2="25.079"/><line x1="43.067" y1="37.26" x2="43.199" y2="26.121"/><line x1="41.839" y1="37.245" x2="41.947" y2="28.189"/><line x1="40.611" y1="37.23" x2="40.692" y2="30.412"/><line x1="39.383" y1="37.209" x2="39.438" y2="32.636"/><line x1="38.165" y1="36.384" x2="38.183" y2="34.86"/><line x1="60.576" y1="40.223" x2="35.327" y2="39.924"/><line x1="62.049" y1="41.752" x2="34.479" y2="41.426"/><line x1="62.031" y1="43.264" x2="33.632" y2="42.927"/><line x1="62.014" y1="44.776" x2="33.195" y2="44.434"/><line x1="61.996" y1="46.287" x2="33.646" y2="45.951"/><line x1="61.978" y1="47.799" x2="34.575" y2="47.474"/><line x1="61.96" y1="49.31" x2="35.503" y2="48.997"/><line x1="61.942" y1="50.822" x2="36.432" y2="50.519"/><line x1="61.924" y1="52.333" x2="37.361" y2="52.042"/><line x1="61.906" y1="53.845" x2="38.29" y2="53.565"/><line x1="61.709" y1="55.354" x2="39.219" y2="55.088"/><line x1="60.16" y1="56.848" x2="40.148" y2="56.61"/><line x1="49.915" y1="58.238" x2="41.889" y2="58.143"/></g><g stroke="#99AA77" stroke-width="0.225" stroke-linecap="butt"><line x1="39.022" y1="59.797" x2="30.761" y2="46.252"/><line x1="38.575" y1="61.444" x2="28.971" y2="45.698"/><line x1="37.584" y1="62.2" x2="27.58" y2="45.799"/><line x1="36.592" y1="62.955" x2="26.189" y2="45.899"/><line x1="35.601" y1="63.71" x2="24.798" y2="46"/><line x1="34.609" y1="64.466" x2="23.407" y2="46.1"/><line x1="33.618" y1="65.221" x2="22.016" y2="46.2"/><line x1="32.626" y1="65.976" x2="20.625" y2="46.301"/><line x1="31.635" y1="66.731" x2="19.425" y2="46.713"/><line x1="30.643" y1="67.487" x2="18.491" y2="47.563"/><line x1="29.652" y1="68.242" x2="17.701" y2="48.649"/><line x1="28.637" y1="68.959" x2="17.132" y2="50.098"/><line x1="27.461" y1="69.411" x2="16.564" y2="51.546"/><line x1="26.279" y1="69.855" x2="15.995" y2="52.994"/><line x1="24.826" y1="69.854" x2="15.426" y2="54.443"/><line x1="23.373" y1="69.853" x2="14.857" y2="55.891"/><line x1="21.92" y1="69.851" x2="14.289" y2="57.34"/><line x1="20.467" y1="69.85" x2="13.72" y2="58.788"/><line x1="19.014" y1="69.848" x2="13.151" y2="60.236"/><line x1="17.561" y1="69.847" x2="12.701" y2="61.878"/><line x1="15.96" y1="69.603" x2="13.157" y2="65.007"/><g fill="#D6A36E" stroke="#D6A36E" stroke-width="0.225"><g fill="#4C5950" stroke="#4C5950" stroke-width="0.225" stroke-linejoin="round"><polygon points="16.936,62.064 15.833,62.278 15.833,62.038 16.936,61.824"/><polygon points="16.047,63.379 14.739,63.633 13.734,63.828 13.52,62.726 13.275,61.464 13.047,60.288 13.047,60.048 13.275,61.224 13.52,62.486 13.734,63.588 14.739,63.393 16.047,63.139"/></g><polygon points="16.691,60.561 16.936,61.824 15.833,62.038 16.047,63.139 14.739,63.393 13.734,63.588 13.52,62.486 13.275,61.224 13.047,60.048 14.053,59.853 14.281,61.029 15.588,60.775"/></g></g><g stroke="#99AA77" stroke-width="0.225" stroke-linecap="butt"><line x1="69.749" y1="-2.367" x2="67.667" y2="-1.726"/><line x1="70.94" y1="-1.106" x2="66.635" y2="0.219"/><line x1="71.397" y1="0.38" x2="65.603" y2="2.164"/><line x1="71.855" y1="1.866" x2="64.571" y2="4.108"/><line x1="72.312" y1="3.353" x2="63.54" y2="6.053"/><line x1="72.77" y1="4.839" x2="62.508" y2="7.998"/><line x1="73.227" y1="6.325" x2="61.476" y2="9.943"/><line x1="73.685" y1="7.812" x2="60.444" y2="11.887"/><line x1="74.142" y1="9.298" x2="59.412" y2="13.832"/><line x1="74.6" y1="10.784" x2="58.381" y2="15.777"/><line x1="75.057" y1="12.271" x2="57.349" y2="17.722"/><line x1="75.515" y1="13.757" x2="56.585" y2="19.584"/><line x1="75.972" y1="15.243" x2="56.265" y2="21.309"/><line x1="76.43" y1="16.729" x2="56.84" y2="22.76"/><line x1="76.887" y1="18.216" x2="58.429" y2="23.897"/><line x1="77.345" y1="19.702" x2="60.019" y2="25.035"/><line x1="77.802" y1="21.188" x2="61.609" y2="26.173"/><line x1="78.26" y1="22.675" x2="63.699" y2="27.157"/><line x1="78.4" y1="24.259" x2="68.546" y2="27.292"/><line x1="78.08" y1="25.985" x2="74.795" y2="26.996"/></g><g stroke="#99AA77" stroke-width="0.225" stroke-linecap="butt"><line x1="-79.546" y1="36.046" x2="-79.586" y2="40.182"/><line x1="-77.998" y1="35.896" x2="-78.058" y2="41.929"/><line x1="-76.451" y1="35.802" x2="-76.529" y2="43.659"/><line x1="-74.906" y1="35.817" x2="-75" y2="45.388"/><line x1="-73.36" y1="35.832" x2="-73.471" y2="47.118"/><line x1="-71.814" y1="35.848" x2="-71.928" y2="47.387"/><line x1="-70.269" y1="35.863" x2="-70.381" y2="47.237"/><line x1="-68.723" y1="35.878" x2="-68.83" y2="46.718"/><line x1="-67.177" y1="35.893" x2="-67.277" y2="45.967"/><line x1="-65.631" y1="35.909" x2="-65.723" y2="45.215"/><line x1="-64.086" y1="35.924" x2="-64.17" y2="44.464"/><line x1="-62.54" y1="35.939" x2="-62.617" y2="43.712"/><line x1="-60.994" y1="35.954" x2="-61.063" y2="42.961"/><line x1="-59.449" y1="35.97" x2="-59.51" y2="42.21"/><line x1="-57.903" y1="35.985" x2="-57.957" y2="41.458"/><line x1="-56.357" y1="36" x2="-56.404" y2="40.707"/><line x1="-54.811" y1="36.015" x2="-54.85" y2="39.955"/><line x1="-53.266" y1="36.031" x2="-53.297" y2="39.204"/><line x1="-51.72" y1="36.046" x2="-51.744" y2="38.453"/><line x1="-50.175" y1="36.121" x2="-50.19" y2="37.701"/><line x1="-62.346" y1="33.221" x2="-45.115" y2="33.391"/><line x1="-63.308" y1="31.772" x2="-44.853" y2="31.954"/><line x1="-63.294" y1="30.332" x2="-45.167" y2="30.511"/><line x1="-63.28" y1="28.893" x2="-45.482" y2="29.069"/><line x1="-63.266" y1="27.453" x2="-45.797" y2="27.626"/><line x1="-63.251" y1="26.014" x2="-46.112" y2="26.183"/><line x1="-63.237" y1="24.574" x2="-46.47" y2="24.74"/><line x1="-63.223" y1="23.134" x2="-48.293" y2="23.282"/><line x1="-63.209" y1="21.695" x2="-53.582" y2="21.79"/><line x1="-62.689" y1="20.26" x2="-58.88" y2="20.298"/><line x1="-79.31" y1="33.001" x2="-66.069" y2="33.132"/><line x1="-80.273" y1="31.446" x2="-65.307" y2="31.594"/><line x1="-80.258" y1="29.901" x2="-65.291" y2="30.049"/><line x1="-80.243" y1="28.356" x2="-65.276" y2="28.504"/><line x1="-80.227" y1="26.811" x2="-65.261" y2="26.959"/><line x1="-80.212" y1="25.266" x2="-65.246" y2="25.414"/><line x1="-80.197" y1="23.721" x2="-65.23" y2="23.869"/><line x1="-80.182" y1="22.176" x2="-65.215" y2="22.324"/><line x1="-80.166" y1="20.631" x2="-65.2" y2="20.779"/><line x1="-80.151" y1="19.086" x2="-65.718" y2="19.229"/><line x1="-80.136" y1="17.541" x2="-66.902" y2="17.672"/><line x1="-80.12" y1="15.996" x2="-70.24" y2="16.094"/><line x1="-80.105" y1="14.451" x2="-73.578" y2="14.516"/><line x1="-79.343" y1="12.914" x2="-76.917" y2="12.938"/></g><g stroke="#99AA77" stroke-width="0.225" stroke-linecap="butt"><line x1="-52.03" y1="71.226" x2="-39.462" y2="79.414"/><line x1="-51.885" y1="69.33" x2="-37.759" y2="78.534"/><line x1="-51.385" y1="67.666" x2="-36.54" y2="77.338"/><line x1="-50.508" y1="66.246" x2="-35.62" y2="75.947"/><line x1="-49.632" y1="64.827" x2="-34.7" y2="74.557"/><line x1="-48.756" y1="63.408" x2="-33.779" y2="73.166"/><line x1="-47.879" y1="61.989" x2="-32.859" y2="71.775"/><line x1="-47.003" y1="60.57" x2="-31.939" y2="70.385"/><line x1="-46.127" y1="59.151" x2="-31.019" y2="68.994"/><line x1="-45.25" y1="57.731" x2="-30.098" y2="67.604"/><line x1="-44.374" y1="56.312" x2="-29.178" y2="66.213"/><line x1="-43.498" y1="54.893" x2="-28.258" y2="64.822"/><line x1="-42.621" y1="53.474" x2="-27.338" y2="63.432"/><line x1="-41.745" y1="52.055" x2="-26.418" y2="62.041"/><line x1="-40.869" y1="50.635" x2="-25.497" y2="60.651"/><line x1="-39.993" y1="49.216" x2="-24.577" y2="59.26"/><line x1="-39.116" y1="47.797" x2="-23.657" y2="57.87"/><line x1="-38.24" y1="46.378" x2="-23.18" y2="56.19"/><line x1="-37.048" y1="45.164" x2="-23.036" y2="54.294"/><line x1="-35.345" y1="44.284" x2="-29.052" y2="48.384"/><line x1="-47.879" y1="57.016" x2="-38.143" y2="41.248"/><line x1="-49.543" y1="57.378" x2="-38.91" y2="40.158"/><line x1="-50.716" y1="56.946" x2="-39.86" y2="39.365"/><line x1="-51.759" y1="56.303" x2="-40.811" y2="38.572"/><line x1="-52.801" y1="55.659" x2="-41.761" y2="37.779"/><line x1="-53.844" y1="55.015" x2="-42.755" y2="37.056"/><line x1="-54.887" y1="54.371" x2="-44.419" y2="37.418"/><line x1="-55.929" y1="53.728" x2="-46.219" y2="38.002"/><line x1="-56.972" y1="53.084" x2="-48.272" y2="38.995"/><line x1="-58.014" y1="52.44" x2="-50.326" y2="39.988"/><line x1="-59.057" y1="51.796" x2="-52.379" y2="40.982"/><line x1="-60.099" y1="51.153" x2="-54.432" y2="41.975"/><line x1="-61.142" y1="50.509" x2="-56.486" y2="42.968"/><line x1="-62.184" y1="49.865" x2="-58.539" y2="43.962"/><line x1="-63.227" y1="49.222" x2="-60.592" y2="44.955"/><line x1="-64.076" y1="48.265" x2="-62.646" y2="45.948"/><line x1="-55.533" y1="69.146" x2="-50.204" y2="60.515"/><line x1="-57.142" y1="68.89" x2="-51.08" y2="59.072"/><line x1="-58.402" y1="68.069" x2="-52.36" y2="58.282"/><line x1="-59.663" y1="67.247" x2="-53.639" y2="57.492"/><line x1="-60.923" y1="66.426" x2="-54.919" y2="56.702"/><line x1="-62.183" y1="65.605" x2="-56.198" y2="55.912"/><line x1="-63.444" y1="64.784" x2="-57.478" y2="55.122"/><line x1="-64.704" y1="63.963" x2="-58.757" y2="54.332"/><line x1="-65.964" y1="63.142" x2="-60.037" y2="53.542"/><line x1="-67.225" y1="62.32" x2="-61.316" y2="52.752"/><line x1="-68.485" y1="61.499" x2="-62.596" y2="51.962"/><line x1="-69.496" y1="60.275" x2="-63.875" y2="51.172"/><line x1="-70.258" y1="58.646" x2="-65.155" y2="50.382"/><line x1="-70.595" y1="56.329" x2="-66.455" y2="49.624"/><line x1="-70.931" y1="54.011" x2="-67.838" y2="49.002"/><line x1="-71.268" y1="51.694" x2="-69.881" y2="49.448"/></g><g stroke="#99AA77" stroke-width="0.225" stroke-linecap="butt"><line x1="-11.039" y1="91.505" x2="-4.711" y2="95.017"/><line x1="-10.671" y1="89.783" x2="-3.125" y2="93.97"/><line x1="-9.941" y1="88.261" x2="-1.997" y2="92.669"/><line x1="-9.124" y1="86.788" x2="-1.011" y2="91.29"/><line x1="-8.306" y1="85.315" x2="-0.024" y2="89.911"/><line x1="-7.489" y1="83.842" x2="0.963" y2="88.532"/><line x1="-6.672" y1="82.369" x2="1.949" y2="87.153"/><line x1="-5.854" y1="80.896" x2="2.936" y2="85.774"/><line x1="-5.037" y1="79.423" x2="3.922" y2="84.395"/><line x1="-4.219" y1="77.95" x2="4.909" y2="83.016"/><line x1="-3.402" y1="76.477" x2="5.896" y2="81.636"/><line x1="-2.585" y1="75.004" x2="6.751" y2="80.185"/><line x1="-1.767" y1="73.531" x2="7.12" y2="78.463"/><line x1="-0.95" y1="72.058" x2="6.729" y2="76.319"/><line x1="-0.133" y1="70.585" x2="5.628" y2="73.782"/><line x1="0.685" y1="69.112" x2="4.526" y2="71.244"/><line x1="2.082" y1="67.961" x2="3.425" y2="68.706"/><line x1="-28.502" y1="71.484" x2="-10.345" y2="81.559"/><line x1="-28.999" y1="69.566" x2="-8.276" y2="81.065"/><line x1="-28.204" y1="68.365" x2="-7.548" y2="79.827"/><line x1="-27.409" y1="67.164" x2="-6.852" y2="78.572"/><line x1="-26.615" y1="65.963" x2="-6.155" y2="77.317"/><line x1="-25.82" y1="64.762" x2="-5.459" y2="76.061"/><line x1="-25.025" y1="63.562" x2="-4.762" y2="74.806"/><line x1="-24.231" y1="62.361" x2="-4.065" y2="73.551"/><line x1="-23.436" y1="61.16" x2="-3.369" y2="72.295"/><line x1="-22.641" y1="59.959" x2="-2.672" y2="71.04"/><line x1="-21.847" y1="58.758" x2="-1.976" y2="69.785"/><line x1="-21.052" y1="57.557" x2="-1.279" y2="68.529"/><line x1="-19.46" y1="56.799" x2="-0.583" y2="67.274"/><line x1="-17.031" y1="56.505" x2="0.114" y2="66.019"/><line x1="-10.247" y1="58.628" x2="0.741" y2="64.725"/><line x1="-3.462" y1="60.75" x2="1.062" y2="63.261"/><line x1="-32.085" y1="74.229" x2="-36.026" y2="81.332"/><line x1="-30.57" y1="74.054" x2="-35.13" y2="82.271"/><line x1="-29.235" y1="74.203" x2="-34.089" y2="82.951"/><line x1="-28.144" y1="74.791" x2="-32.936" y2="83.426"/><line x1="-27.06" y1="75.392" x2="-31.782" y2="83.901"/><line x1="-25.976" y1="75.993" x2="-30.628" y2="84.376"/><line x1="-24.892" y1="76.595" x2="-29.474" y2="84.852"/><line x1="-23.808" y1="77.196" x2="-28.32" y2="85.327"/><line x1="-22.724" y1="77.798" x2="-27.166" y2="85.802"/><line x1="-21.641" y1="78.399" x2="-26.012" y2="86.277"/><line x1="-20.557" y1="79.001" x2="-24.858" y2="86.752"/><line x1="-19.473" y1="79.602" x2="-23.704" y2="87.227"/><line x1="-18.389" y1="80.204" x2="-22.55" y2="87.702"/><line x1="-17.305" y1="80.805" x2="-21.396" y2="88.177"/><line x1="-16.221" y1="81.406" x2="-20.242" y2="88.653"/><line x1="-15.137" y1="82.008" x2="-19.088" y2="89.128"/><line x1="-14.054" y1="82.609" x2="-17.934" y2="89.603"/><line x1="-12.97" y1="83.211" x2="-16.78" y2="90.078"/><line x1="-11.969" y1="83.961" x2="-15.535" y2="90.388"/><line x1="-11.072" y1="84.9" x2="-14.2" y2="90.536"/><g fill="#D6A36E" stroke="#D6A36E" stroke-width="0.225"><g fill="#4C5950" stroke="#4C5950" stroke-width="0.225" stroke-linejoin="round"><polygon points="-13.539,82.321 -13.701,83.385 -13.883,84.581 -15.853,84.281 -16.045,85.544 -17.235,85.363 -17.235,85.123 -16.045,85.304 -15.853,84.041 -13.883,84.341 -13.701,83.145 -13.539,82.081"/></g><polygon points="-13.539,82.081 -13.701,83.145 -13.883,84.341 -15.853,84.041 -16.045,85.304 -17.235,85.123 -17.042,83.86 -16.86,82.663 -16.698,81.6 -15.508,81.781"/></g></g><g/><g/><g/><g stroke="#99AA77" stroke-width="0.225" stroke-linecap="butt"><line x1="62.061" y1="-40.876" x2="62.613" y2="-36.533"/><line x1="63.147" y1="-42.031" x2="64.801" y2="-29.003"/><line x1="64.322" y1="-42.476" x2="66.442" y2="-25.782"/><line x1="65.535" y1="-42.63" x2="67.767" y2="-25.05"/><line x1="66.747" y1="-42.784" x2="69.024" y2="-24.859"/><line x1="67.96" y1="-42.938" x2="70.237" y2="-25.013"/><line x1="69.173" y1="-43.092" x2="71.449" y2="-25.167"/><line x1="70.385" y1="-43.246" x2="72.662" y2="-25.321"/><line x1="71.598" y1="-43.4" x2="73.874" y2="-25.475"/><line x1="72.81" y1="-43.554" x2="75.087" y2="-25.629"/><line x1="74.023" y1="-43.708" x2="76.3" y2="-25.783"/><line x1="75.236" y1="-43.862" x2="77.512" y2="-25.937"/><line x1="76.448" y1="-44.016" x2="78.725" y2="-26.091"/><line x1="77.661" y1="-44.17" x2="79.937" y2="-26.245"/><line x1="78.874" y1="-44.324" x2="81.15" y2="-26.399"/><line x1="80.086" y1="-44.478" x2="82.363" y2="-26.553"/><line x1="81.299" y1="-44.632" x2="83.575" y2="-26.707"/><line x1="82.511" y1="-44.786" x2="84.788" y2="-26.861"/><line x1="83.783" y1="-44.476" x2="85.963" y2="-27.306"/><line x1="85.108" y1="-43.744" x2="87.049" y2="-28.461"/><line x1="87.546" y1="-24.493" x2="67.466" y2="-21.943"/><line x1="88.335" y1="-23.187" x2="67.269" y2="-20.512"/><line x1="88.51" y1="-21.804" x2="67.663" y2="-19.156"/><line x1="88.686" y1="-20.421" x2="68.057" y2="-17.801"/><line x1="88.862" y1="-19.037" x2="68.451" y2="-16.445"/><line x1="89.037" y1="-17.654" x2="68.845" y2="-15.09"/><line x1="88.664" y1="-16.201" x2="70.042" y2="-13.836"/><line x1="92.351" y1="-16.722" x2="105.614" y2="-18.407"/><line x1="91.202" y1="-18.353" x2="105.877" y2="-20.217"/><line x1="90.747" y1="-20.072" x2="105.392" y2="-21.932"/><line x1="90.524" y1="-21.82" x2="104.727" y2="-23.624"/><line x1="90.302" y1="-23.568" x2="104.062" y2="-25.316"/><line x1="90.08" y1="-25.317" x2="103.397" y2="-27.008"/><line x1="89.858" y1="-27.065" x2="102.731" y2="-28.7"/><line x1="89.636" y1="-28.813" x2="102.066" y2="-30.392"/><line x1="89.414" y1="-30.562" x2="101.401" y2="-32.084"/><line x1="89.192" y1="-32.31" x2="100.736" y2="-33.776"/><line x1="88.97" y1="-34.058" x2="100.071" y2="-35.468"/><line x1="88.748" y1="-35.807" x2="99.406" y2="-37.16"/><line x1="88.526" y1="-37.555" x2="98.741" y2="-38.852"/><line x1="88.304" y1="-39.303" x2="98.075" y2="-40.544"/><line x1="88.082" y1="-41.052" x2="97.41" y2="-42.236"/><line x1="87.954" y1="-42.812" x2="96.648" y2="-43.916"/><line x1="88.217" y1="-44.622" x2="95.5" y2="-45.547"/></g><g/><g/><g stroke="#99AA77" stroke-width="0.225" stroke-linecap="butt"><line x1="90.267" y1="-4.388" x2="74.084" y2="-2.45"/><line x1="91.366" y1="-2.883" x2="73.556" y2="-0.75"/><line x1="92.122" y1="-1.337" x2="73.642" y2="0.876"/><line x1="92.316" y1="0.277" x2="74.128" y2="2.454"/><line x1="92.509" y1="1.89" x2="74.614" y2="4.032"/><line x1="92.702" y1="3.504" x2="75.1" y2="5.611"/><line x1="92.895" y1="5.117" x2="75.586" y2="7.189"/><line x1="93.088" y1="6.73" x2="76.072" y2="8.768"/><line x1="93.281" y1="8.344" x2="76.557" y2="10.346"/><line x1="93.475" y1="9.957" x2="77.043" y2="11.924"/><line x1="93.668" y1="11.571" x2="77.529" y2="13.503"/><line x1="93.861" y1="13.184" x2="78.015" y2="15.081"/><line x1="94.054" y1="14.797" x2="78.501" y2="16.659"/><line x1="94.247" y1="16.411" x2="78.987" y2="18.238"/><line x1="94.44" y1="18.024" x2="79.473" y2="19.816"/><line x1="94.633" y1="19.638" x2="79.958" y2="21.394"/><line x1="94.827" y1="21.251" x2="80.444" y2="22.973"/><line x1="95.02" y1="22.864" x2="81.212" y2="24.517"/><line x1="95.213" y1="24.478" x2="82.311" y2="26.023"/><line x1="95.122" y1="26.125" x2="85.115" y2="27.323"/><line x1="94.593" y1="27.825" x2="91.257" y2="28.224"/><line x1="94.574" y1="-3.79" x2="98.535" y2="29.292"/><line x1="95.788" y1="-5.867" x2="100.023" y2="29.51"/><line x1="97.23" y1="-6.04" x2="101.401" y2="28.798"/><line x1="98.672" y1="-6.212" x2="102.706" y2="27.482"/><line x1="100.114" y1="-6.385" x2="103.997" y2="26.053"/><line x1="101.555" y1="-6.557" x2="105.288" y2="24.624"/><line x1="102.997" y1="-6.73" x2="106.58" y2="23.195"/><line x1="104.439" y1="-6.903" x2="107.871" y2="21.766"/><line x1="105.881" y1="-7.075" x2="109.163" y2="20.337"/><line x1="107.323" y1="-7.248" x2="110.454" y2="18.908"/><line x1="108.921" y1="-6.111" x2="111.505" y2="15.475"/></g><g/><g stroke="#99AA77" stroke-width="0.225" stroke-linecap="butt"><line x1="66.754" y1="-60.452" x2="75.688" y2="-45.965"/><line x1="67.617" y1="-62.224" x2="76.764" y2="-47.393"/><line x1="68.924" y1="-63.278" x2="77.832" y2="-48.834"/><line x1="70.341" y1="-64.152" x2="78.884" y2="-50.301"/><line x1="71.759" y1="-65.027" x2="79.936" y2="-51.767"/><line x1="73.177" y1="-65.901" x2="80.988" y2="-53.234"/><line x1="74.594" y1="-66.775" x2="82.041" y2="-54.701"/><line x1="76.012" y1="-67.649" x2="83.093" y2="-56.168"/><line x1="77.429" y1="-68.524" x2="84.145" y2="-57.634"/><line x1="78.847" y1="-69.398" x2="85.197" y2="-59.101"/><line x1="80.264" y1="-70.272" x2="86.249" y2="-60.568"/><line x1="81.682" y1="-71.146" x2="87.301" y2="-62.035"/><line x1="83.099" y1="-72.02" x2="88.353" y2="-63.501"/><line x1="84.517" y1="-72.895" x2="89.405" y2="-64.968"/><line x1="85.934" y1="-73.769" x2="90.457" y2="-66.435"/><line x1="87.394" y1="-74.574" x2="91.477" y2="-67.954"/><line x1="89.024" y1="-75.104" x2="92.31" y2="-69.776"/><line x1="80.324" y1="-89.344" x2="73.184" y2="-84.941"/><line x1="81.85" y1="-88.323" x2="57.998" y2="-73.612"/><line x1="82.727" y1="-86.901" x2="58.629" y2="-72.039"/><line x1="83.605" y1="-85.478" x2="59.506" y2="-70.617"/><line x1="84.482" y1="-84.056" x2="60.383" y2="-69.195"/><line x1="85.359" y1="-82.634" x2="61.261" y2="-67.772"/><line x1="86.236" y1="-81.212" x2="62.138" y2="-66.35"/><line x1="87.113" y1="-79.79" x2="63.015" y2="-64.928"/><line x1="86.894" y1="-77.692" x2="64.774" y2="-64.05"/><line x1="52.052" y1="-71.542" x2="46.732" y2="-68.261"/><line x1="55.469" y1="-71.957" x2="46.978" y2="-66.721"/><line x1="56.62" y1="-70.975" x2="47.521" y2="-65.363"/><line x1="57.605" y1="-69.89" x2="48.257" y2="-64.125"/><line x1="58.361" y1="-68.664" x2="48.994" y2="-62.887"/><line x1="59.117" y1="-67.438" x2="49.73" y2="-61.649"/><line x1="59.873" y1="-66.212" x2="50.467" y2="-60.411"/><line x1="60.629" y1="-64.986" x2="51.203" y2="-59.173"/><line x1="61.385" y1="-63.76" x2="51.94" y2="-57.935"/><line x1="62.141" y1="-62.535" x2="52.676" y2="-56.697"/><line x1="62.897" y1="-61.309" x2="53.413" y2="-55.459"/><line x1="63.653" y1="-60.083" x2="54.149" y2="-54.221"/><line x1="64.409" y1="-58.857" x2="54.886" y2="-52.983"/><line x1="65.165" y1="-57.631" x2="55.622" y2="-51.745"/><line x1="65.921" y1="-56.405" x2="56.359" y2="-50.507"/><line x1="66.677" y1="-55.179" x2="57.095" y2="-49.269"/><line x1="67.434" y1="-53.953" x2="57.832" y2="-48.031"/><line x1="68.19" y1="-52.727" x2="58.568" y2="-46.793"/><line x1="68.946" y1="-51.501" x2="59.599" y2="-45.737"/><line x1="69.702" y1="-50.275" x2="60.751" y2="-44.755"/><line x1="70.458" y1="-49.049" x2="62.743" y2="-44.291"/><line x1="71.012" y1="-47.699" x2="66.198" y2="-44.73"/><line x1="71.258" y1="-46.158" x2="69.654" y2="-45.169"/><line x1="94.246" y1="-67.112" x2="80.119" y2="-47.418"/><line x1="95.392" y1="-66.365" x2="81.244" y2="-46.641"/><line x1="96.17" y1="-65.104" x2="83.094" y2="-46.876"/><line x1="96.947" y1="-63.843" x2="84.945" y2="-47.111"/><line x1="97.725" y1="-62.582" x2="86.796" y2="-47.346"/><line x1="98.503" y1="-61.321" x2="88.647" y2="-47.581"/><line x1="98.889" y1="-59.514" x2="90.498" y2="-47.816"/><line x1="98.003" y1="-55.933" x2="92.349" y2="-48.051"/><line x1="96.668" y1="-51.727" x2="94.404" y2="-48.572"/><g fill="#D6A36E" stroke="#D6A36E" stroke-width="0.225"><g fill="#4C5950" stroke="#4C5950" stroke-width="0.225" stroke-linejoin="round"><polygon points="72.126,-48.381 71.211,-47.176 70.462,-47.745 69.334,-46.261 68.019,-47.261 68.019,-47.501 69.334,-46.501 70.462,-47.985 71.211,-47.416 72.126,-48.621"/><polygon points="69.146,-48.745 68.374,-49.332 68.374,-49.572 69.146,-48.985"/></g><polygon points="68.374,-49.572 69.289,-50.776 70.061,-50.19 71.377,-49.19 72.126,-48.621 71.211,-47.416 70.462,-47.985 69.334,-46.501 68.019,-47.501 69.146,-48.985"/></g></g><g/><g/><g/><g/><g/><g/><g/><g/><g/><g/><g/><g/><g/><g/><g/><g/><g/><g/><g/><g/><g/><g/><g/><g/><g/><g/><g/><g/><g/><g/><g/><g/><g/><g/><g/><g/><g/><g/><g/><g/><g/><g/><g/><g/><g/><g/><g/><g/><g/><g/><g/><g/><g/><g/><g/><g/><g/><g/><g id="pins" style="font: 3px IM Fell Great Primer, serif" fill="#FFF2C8"><g id="1" transform="translate(-13.59 22.318)"><circle cx="0" cy="0" r="3"/><circle cx="0" cy="0" r="2.551" fill="#4C5950"/><text text-anchor="middle" dominant-baseline="middle">1</text></g><g id="2" transform="translate(24.99 -20.285)"><circle cx="0" cy="0" r="3"/><circle cx="0" cy="0" r="2.551" fill="#4C5950"/><text text-anchor="middle" dominant-baseline="middle">2</text></g></g></g><g id="legend" transform="translate(4 4) scale(0.14 0.14)" fill="#4C5950" style="font: 18px IM Fell Great Primer, serif"><rect x="0" y="0" width="167.24" height="82.13" fill="#FFF2C8" stroke="#4C5950" stroke-width="3.2"/><rect x="6.4" y="6.4" width="154.44" height="69.33" fill="#FFF2C8" stroke="#4C5950" stroke-width="1.6"/><text text-anchor="end" dominant-baseline="hanging" x="29.36" y="15.5">1.</text><text text-anchor="start" dominant-baseline="hanging" x="42.36" y="15.5">Narrowbridge</text><text text-anchor="end" dominant-baseline="hanging" x="29.36" y="42.5">2.</text><text text-anchor="start" dominant-baseline="hanging" x="42.36" y="42.5">Hilden Cross</text></g><g id="cityName" style="font: 7px IM Fell Great Primer, serif" fill="#4C5950" transform="translate(69.769 4)"><text text-anchor="middle" dominant-baseline="hanging" stroke="#FFF2C8" stroke-width="0.899">Carnelu</text><text text-anchor="middle" dominant-baseline="hanging">Carnelu</text></g><g id="scaleBar" transform="translate(4 131.303) scale(0.14 0.14)" stroke="#4C5950" stroke-width="1.6" stroke-linejoin="miter" stroke-linecap="butt" style="font: 18px IM Fell Great Primer, serif" fill="none"><path d="M 0,-12 L 0,0 L 178.017,0 L 178.017,-12 M 44.504,0 L 44.504,-6 M 89.009,0 L 89.009,-12 M 133.513,0 L 133.513,-6"/><text text-anchor="middle" fill="#4C5950" stroke="none" x="0" y="-17.4">0</text><text text-anchor="middle" fill="#4C5950" stroke="none" x="89.009" y="-17.4">50</text><text text-anchor="middle" fill="#4C5950" stroke="none" x="178.017" y="-17.4">100m</text></g><g id="compass" transform="translate(135.537 131.303) scale(0.14 0.14) translate(-80 -80) rotate(0 0 0)"><circle cx="0" cy="0" r="30.527" stroke="#4C5950" stroke-width="1.6" fill="none"/><polygon points="35.414,35.414 0,3.645 0,0" fill="#4C5950"/><polygon points="0,3.645 -35.414,35.414 0,0" fill="#CCC5A3"/><polygon points="-35.414,35.414 -3.645,0 0,0" fill="#4C5950"/><polygon points="-3.645,0 -35.414,-35.414 0,0" fill="#CCC5A3"/><polygon points="-35.414,-35.414 0,-3.645 0,0" fill="#4C5950"/><polygon points="0,-3.645 35.414,-35.414 0,0" fill="#CCC5A3"/><polygon points="35.414,-35.414 3.645,0 0,0" fill="#4C5950"/><polygon points="3.645,0 35.414,35.414 0,0" fill="#CCC5A3"/><polygon points="35.414,35.414 0,3.645 -35.414,35.414 -3.645,0 -35.414,-35.414 0,-3.645 35.414,-35.414 3.645,0" fill="none" stroke="#4C5950" stroke-width="1.6" stroke-linejoin="round"/><polygon points="80,0 14.191,14.191 0,0" fill="#4C5950"/><polygon points="14.191,14.191 0,80 0,0" fill="#CCC5A3"/><polygon points="0,80 -14.191,14.191 0,0" fill="#4C5950"/><polygon points="-14.191,14.191 -80,0 0,0" fill="#CCC5A3"/><polygon points="-80,0 -14.191,-14.191 0,0" fill="#4C5950"/><polygon points="-14.191,-14.191 0,-80 0,0" fill="#CCC5A3"/><polygon points="0,-80 14.191,-14.191 0,0" fill="#4C5950"/><polygon points="14.191,-14.191 80,0 0,0" fill="#CCC5A3"/><polygon points="80,0 14.191,14.191 0,80 -14.191,14.191 -80,0 -14.191,-14.191 0,-80 14.191,-14.191" fill="none" stroke="#4C5950" stroke-width="1.6" stroke-linejoin="round"/><text text-anchor="middle" dominant-baseline="baseline" style="font: 24px IM Fell Great Primer, serif" fill="#4C5950" x="0" y="-84.8" transform="rotate(0 0 0)">N</text></g></svg>