<?xml version="1.0" encoding="UTF-8"?>
<svg width="536.82" height="339.12" version="1.1" viewBox="0 0 142.03 89.727" xmlns="http://www.w3.org/2000/svg">
  <g transform="translate(-34.285 -82.202)">
    <path d="m90.391 162.54-54.57-22.326 57.477 14.138-30.442-48.772 37.82 43.784 5.3141-56.589 3.717 56.705 39.04-42.791-31.805 47.967 57.854-12.648-55.179 20.908-29.225-0.37766z"
        fill="#e4af28"/>
  </g>
  <g transform="translate(-34.285 -82.202)">
    <path d="m55.335 164.14 40.449-3.3348-31.045-27.131 34.652 21.941-9.7536-40.834 15.619 38.836 15.263-38.939-9.3802 40.897 34.45-22.171-30.796 27.337 40.478 3.0652"
        fill="#e4af28" image-rendering="auto"/>
  </g>
  <g transform="translate(-34.285 -82.202)">
    <path transform="matrix(.99998 -.0070287 -.0069342 -.99998 0 0)" d="m138.15-168.15a34.012 34.242 0 0 1-33.747 34.241 34.012 34.242 0 0 1-34.272-33.709"
        fill="#9b111e" stroke="#fff" stroke-width="1.9791"/>
  </g>
  <g transform="translate(-34.285 -82.202)">
    <g transform="matrix(.97906 0 0 1.0214 0 -2.2324)" stroke="#47484e" stroke-width="1.973" aria-label="†">
      <path d="m112.45 116.94-3.7683 49.918h-2.2512l-3.5726-49.918 3.0832-7.8303-20.359 2.3002v-7.6345l20.359 2.1044-2.1044-20.31h7.6345l-2.3002 20.31 20.359-2.1044v7.6345l-20.359-2.3002z"
          stroke="#ffffff" stroke-width="1.973" fill="#484a4e"/>
    </g>
  </g>
</svg>
