<?xml version="1.0" encoding="UTF-8" standalone="no"?><svg width="71.973" height="74.786" xmlns="http://www.w3.org/2000/svg"><style><![CDATA[@import url("https://fonts.googleapis.com/css?family=IM+Fell+Great+Primer");]]></style><rect x="0" y="0" width="71.973" height="74.786" id="background" fill="#FFF2C8"/><g id="map" transform="translate(40.997 30.396)"><g fill="none"><polyline points="-9.242,-10.992 -15.948,-23.557 -21.617,-27.001 -24.426,-28.837 -26.265,-30.212 -27.763,-31.51 -28.921,-32.73 -29.948,-34 -30.845,-35.32 -31.612,-36.689 -32.248,-38.109 -32.707,-39.601 -32.991,-41.164 -33.099,-42.8 -33.031,-44.507 -32.786,-46.286 -32.366,-48.136 -31.769,-50.059 -30.996,-52.053 -30.569,-54.069 -30.486,-56.104 -30.748,-58.161 -31.356,-60.238 -32.556,-62.606 -34.35,-65.264 -37.482,-69.023 -44.189,-76.313" stroke="#A5A58C" stroke-width="2.12" stroke-linejoin="round" stroke-linecap="butt"/><polyline points="-9.242,-10.992 -15.948,-23.557 -21.617,-27.001 -24.426,-28.837 -26.265,-30.212 -27.763,-31.51 -28.921,-32.73 -29.948,-34 -30.845,-35.32 -31.612,-36.689 -32.248,-38.109 -32.707,-39.601 -32.991,-41.164 -33.099,-42.8 -33.031,-44.507 -32.786,-46.286 -32.366,-48.136 -31.769,-50.059 -30.996,-52.053 -30.569,-54.069 -30.486,-56.104 -30.748,-58.161 -31.356,-60.238 -32.556,-62.606 -34.35,-65.264 -37.482,-69.023 -44.189,-76.313" stroke="#FFF2C8" stroke-width="1.88" stroke-linejoin="round" stroke-linecap="round"/></g><g fill="none"><polyline points="-17.688,15.94 -34.164,19.993 -41.397,22.074 -45.189,23.17 -47.953,23.974 -50.49,24.718 -52.802,25.401 -55.157,26.101 -57.553,26.818 -59.992,27.551 -62.473,28.3 -64.823,29.156 -67.042,30.116 -69.131,31.182 -71.089,32.354 -73.095,33.83 -75.151,35.611 -77.793,38.295 -82.636,43.673" stroke="#A5A58C" stroke-width="2.12" stroke-linejoin="round" stroke-linecap="butt"/><polyline points="-17.688,15.94 -34.164,19.993 -41.397,22.074 -45.189,23.17 -47.953,23.974 -50.49,24.718 -52.802,25.401 -55.157,26.101 -57.553,26.818 -59.992,27.551 -62.473,28.3 -64.823,29.156 -67.042,30.116 -69.131,31.182 -71.089,32.354 -73.095,33.83 -75.151,35.611 -77.793,38.295 -82.636,43.673" stroke="#FFF2C8" stroke-width="1.88" stroke-linejoin="round" stroke-linecap="round"/></g><g fill="none"><polyline points="-43.616,58.708 -41.659,57.382 -40.645,56.695 -39.92,56.204 -39.268,55.762 -38.688,55.369 -38.108,54.976 -37.528,54.584 -36.948,54.191 -36.368,53.798 -35.768,53.421 -35.147,53.06 -34.505,52.714 -33.843,52.384 -33.161,52.07 -32.458,51.772 -31.734,51.49 -30.99,51.223 -30.245,50.956 -29.501,50.689 -28.757,50.422 -28.012,50.156 -27.268,49.889 -26.524,49.622 -25.78,49.355 -25.035,49.089 -24.285,48.773 -23.528,48.407 -22.765,47.993 -21.995,47.529 -21.22,47.016 -20.438,46.453 -19.649,45.842 -18.855,45.181 -18.06,44.52 -17.266,43.859 -16.471,43.198 -15.677,42.537 -14.783,41.793 -13.79,40.967 -12.399,39.81 -9.718,37.58 -6.663,35.721 -5.079,34.757 -3.947,34.069 -2.929,33.449 -2.024,32.898 -1.119,32.348 -0.214,31.797 0.692,31.246 1.597,30.695 2.442,30.121 3.228,29.522 3.953,28.899 4.619,28.252 5.226,27.581 5.772,26.886 6.259,26.167 6.685,25.424 7.112,24.681 7.539,23.938 7.966,23.194 8.392,22.451 8.819,21.708 9.246,20.965 9.673,20.222 10.099,19.479 10.454,18.747 10.736,18.026 10.945,17.315 11.082,16.616 11.147,15.928 11.139,15.25 11.058,14.584 10.905,13.929 10.753,13.273 10.6,12.618 10.447,11.962 10.294,11.307 10.141,10.651 9.988,9.996 9.836,9.34 9.683,8.685 9.552,7.979 9.443,7.223 9.356,6.417 9.291,5.561 9.249,4.654 9.228,3.697 9.229,2.69 9.252,1.633 9.276,0.576 9.299,-0.482 9.322,-1.539 9.346,-2.596 9.369,-3.653 9.392,-4.711 9.415,-5.768 9.439,-6.825 9.478,-7.866 9.535,-8.89 9.607,-9.898 9.697,-10.889 9.802,-11.864 9.924,-12.822 10.063,-13.764 10.218,-14.689 10.373,-15.615 10.528,-16.54 10.683,-17.465 10.838,-18.39 10.994,-19.316 11.149,-20.241 11.304,-21.166 11.459,-22.091 11.657,-22.947 11.898,-23.733 12.183,-24.45 12.51,-25.097 12.881,-25.674 13.295,-26.182 13.751,-26.621 14.251,-26.989 14.751,-27.358 15.251,-27.727 15.751,-28.096 16.251,-28.464 16.751,-28.833 17.251,-29.202 17.751,-29.571 18.251,-29.94 18.827,-30.2 19.481,-30.353 20.211,-30.397 21.018,-30.333 21.901,-30.16 22.861,-29.88 23.898,-29.491 25.012,-28.994 26.126,-28.498 27.24,-28.001 28.353,-27.504 29.467,-27.007 30.581,-26.51 31.695,-26.013 32.808,-25.517 33.922,-25.02 35.02,-24.595 36.1,-24.242 37.165,-23.962 38.213,-23.753 39.245,-23.617 40.261,-23.552 41.26,-23.56 42.242,-23.64 43.225,-23.72 44.208,-23.8 45.19,-23.88 46.173,-23.959 47.156,-24.039 48.138,-24.119 49.121,-24.199 50.104,-24.279 51.133,-24.289 52.209,-24.229 53.332,-24.098 54.502,-23.898 55.718,-23.628 56.981,-23.288 58.291,-22.878 59.648,-22.397 61.004,-21.917 62.361,-21.437 63.717,-20.957 65.074,-20.477 66.43,-19.996 67.787,-19.516 69.143,-19.036 70.5,-18.556 71.913,-18.255 73.384,-18.133 74.912,-18.19 76.496,-18.427 78.138,-18.843 79.836,-19.438 81.592,-20.212 83.405,-21.166 85.217,-22.119 87.03,-23.073 88.842,-24.027 90.655,-24.98 92.694,-26.053 94.96,-27.245 98.132,-28.913 104.25,-32.132" stroke="#4C5950" stroke-width="4.591" stroke-linejoin="round" stroke-linecap="butt"/><polyline points="-43.616,58.708 -41.659,57.382 -40.645,56.695 -39.92,56.204 -39.268,55.762 -38.688,55.369 -38.108,54.976 -37.528,54.584 -36.948,54.191 -36.368,53.798 -35.768,53.421 -35.147,53.06 -34.505,52.714 -33.843,52.384 -33.161,52.07 -32.458,51.772 -31.734,51.49 -30.99,51.223 -30.245,50.956 -29.501,50.689 -28.757,50.422 -28.012,50.156 -27.268,49.889 -26.524,49.622 -25.78,49.355 -25.035,49.089 -24.285,48.773 -23.528,48.407 -22.765,47.993 -21.995,47.529 -21.22,47.016 -20.438,46.453 -19.649,45.842 -18.855,45.181 -18.06,44.52 -17.266,43.859 -16.471,43.198 -15.677,42.537 -14.783,41.793 -13.79,40.967 -12.399,39.81 -9.718,37.58 -6.663,35.721 -5.079,34.757 -3.947,34.069 -2.929,33.449 -2.024,32.898 -1.119,32.348 -0.214,31.797 0.692,31.246 1.597,30.695 2.442,30.121 3.228,29.522 3.953,28.899 4.619,28.252 5.226,27.581 5.772,26.886 6.259,26.167 6.685,25.424 7.112,24.681 7.539,23.938 7.966,23.194 8.392,22.451 8.819,21.708 9.246,20.965 9.673,20.222 10.099,19.479 10.454,18.747 10.736,18.026 10.945,17.315 11.082,16.616 11.147,15.928 11.139,15.25 11.058,14.584 10.905,13.929 10.753,13.273 10.6,12.618 10.447,11.962 10.294,11.307 10.141,10.651 9.988,9.996 9.836,9.34 9.683,8.685 9.552,7.979 9.443,7.223 9.356,6.417 9.291,5.561 9.249,4.654 9.228,3.697 9.229,2.69 9.252,1.633 9.276,0.576 9.299,-0.482 9.322,-1.539 9.346,-2.596 9.369,-3.653 9.392,-4.711 9.415,-5.768 9.439,-6.825 9.478,-7.866 9.535,-8.89 9.607,-9.898 9.697,-10.889 9.802,-11.864 9.924,-12.822 10.063,-13.764 10.218,-14.689 10.373,-15.615 10.528,-16.54 10.683,-17.465 10.838,-18.39 10.994,-19.316 11.149,-20.241 11.304,-21.166 11.459,-22.091 11.657,-22.947 11.898,-23.733 12.183,-24.45 12.51,-25.097 12.881,-25.674 13.295,-26.182 13.751,-26.621 14.251,-26.989 14.751,-27.358 15.251,-27.727 15.751,-28.096 16.251,-28.464 16.751,-28.833 17.251,-29.202 17.751,-29.571 18.251,-29.94 18.827,-30.2 19.481,-30.353 20.211,-30.397 21.018,-30.333 21.901,-30.16 22.861,-29.88 23.898,-29.491 25.012,-28.994 26.126,-28.498 27.24,-28.001 28.353,-27.504 29.467,-27.007 30.581,-26.51 31.695,-26.013 32.808,-25.517 33.922,-25.02 35.02,-24.595 36.1,-24.242 37.165,-23.962 38.213,-23.753 39.245,-23.617 40.261,-23.552 41.26,-23.56 42.242,-23.64 43.225,-23.72 44.208,-23.8 45.19,-23.88 46.173,-23.959 47.156,-24.039 48.138,-24.119 49.121,-24.199 50.104,-24.279 51.133,-24.289 52.209,-24.229 53.332,-24.098 54.502,-23.898 55.718,-23.628 56.981,-23.288 58.291,-22.878 59.648,-22.397 61.004,-21.917 62.361,-21.437 63.717,-20.957 65.074,-20.477 66.43,-19.996 67.787,-19.516 69.143,-19.036 70.5,-18.556 71.913,-18.255 73.384,-18.133 74.912,-18.19 76.496,-18.427 78.138,-18.843 79.836,-19.438 81.592,-20.212 83.405,-21.166 85.217,-22.119 87.03,-23.073 88.842,-24.027 90.655,-24.98 92.694,-26.053 94.96,-27.245 98.132,-28.913 104.25,-32.132" stroke="#779988" stroke-width="4.35" stroke-linejoin="round" stroke-linecap="round"/><polyline points="-43.616,58.708 -41.659,57.382 -40.645,56.695 -39.92,56.204 -39.268,55.762 -38.688,55.369 -38.108,54.976 -37.528,54.584 -36.948,54.191 -36.368,53.798 -35.768,53.421 -35.147,53.06 -34.505,52.714 -33.843,52.384 -33.161,52.07 -32.458,51.772 -31.734,51.49 -30.99,51.223 -30.245,50.956 -29.501,50.689 -28.757,50.422 -28.012,50.156 -27.268,49.889 -26.524,49.622 -25.78,49.355 -25.035,49.089 -24.285,48.773 -23.528,48.407 -22.765,47.993 -21.995,47.529 -21.22,47.016 -20.438,46.453 -19.649,45.842 -18.855,45.181 -18.06,44.52 -17.266,43.859 -16.471,43.198 -15.677,42.537 -14.783,41.793 -13.79,40.967 -12.399,39.81 -9.718,37.58 -6.663,35.721 -5.079,34.757 -3.947,34.069 -2.929,33.449 -2.024,32.898 -1.119,32.348 -0.214,31.797 0.692,31.246 1.597,30.695 2.442,30.121 3.228,29.522 3.953,28.899 4.619,28.252 5.226,27.581 5.772,26.886 6.259,26.167 6.685,25.424 7.112,24.681 7.539,23.938 7.966,23.194 8.392,22.451 8.819,21.708 9.246,20.965 9.673,20.222 10.099,19.479 10.454,18.747 10.736,18.026 10.945,17.315 11.082,16.616 11.147,15.928 11.139,15.25 11.058,14.584 10.905,13.929 10.753,13.273 10.6,12.618 10.447,11.962 10.294,11.307 10.141,10.651 9.988,9.996 9.836,9.34 9.683,8.685 9.552,7.979 9.443,7.223 9.356,6.417 9.291,5.561 9.249,4.654 9.228,3.697 9.229,2.69 9.252,1.633 9.276,0.576 9.299,-0.482 9.322,-1.539 9.346,-2.596 9.369,-3.653 9.392,-4.711 9.415,-5.768 9.439,-6.825 9.478,-7.866 9.535,-8.89 9.607,-9.898 9.697,-10.889 9.802,-11.864 9.924,-12.822 10.063,-13.764 10.218,-14.689 10.373,-15.615 10.528,-16.54 10.683,-17.465 10.838,-18.39 10.994,-19.316 11.149,-20.241 11.304,-21.166 11.459,-22.091 11.657,-22.947 11.898,-23.733 12.183,-24.45 12.51,-25.097 12.881,-25.674 13.295,-26.182 13.751,-26.621 14.251,-26.989 14.751,-27.358 15.251,-27.727 15.751,-28.096 16.251,-28.464 16.751,-28.833 17.251,-29.202 17.751,-29.571 18.251,-29.94 18.827,-30.2 19.481,-30.353 20.211,-30.397 21.018,-30.333 21.901,-30.16 22.861,-29.88 23.898,-29.491 25.012,-28.994 26.126,-28.498 27.24,-28.001 28.353,-27.504 29.467,-27.007 30.581,-26.51 31.695,-26.013 32.808,-25.517 33.922,-25.02 35.02,-24.595 36.1,-24.242 37.165,-23.962 38.213,-23.753 39.245,-23.617 40.261,-23.552 41.26,-23.56 42.242,-23.64 43.225,-23.72 44.208,-23.8 45.19,-23.88 46.173,-23.959 47.156,-24.039 48.138,-24.119 49.121,-24.199 50.104,-24.279 51.133,-24.289 52.209,-24.229 53.332,-24.098 54.502,-23.898 55.718,-23.628 56.981,-23.288 58.291,-22.878 59.648,-22.397 61.004,-21.917 62.361,-21.437 63.717,-20.957 65.074,-20.477 66.43,-19.996 67.787,-19.516 69.143,-19.036 70.5,-18.556 71.913,-18.255 73.384,-18.133 74.912,-18.19 76.496,-18.427 78.138,-18.843 79.836,-19.438 81.592,-20.212 83.405,-21.166 85.217,-22.119 87.03,-23.073 88.842,-24.027 90.655,-24.98 92.694,-26.053 94.96,-27.245 98.132,-28.913 104.25,-32.132" stroke="#4C5950" stroke-width="2.754" stroke-linejoin="round" stroke-linecap="butt"/><polyline points="-43.616,58.708 -41.659,57.382 -40.645,56.695 -39.92,56.204 -39.268,55.762 -38.688,55.369 -38.108,54.976 -37.528,54.584 -36.948,54.191 -36.368,53.798 -35.768,53.421 -35.147,53.06 -34.505,52.714 -33.843,52.384 -33.161,52.07 -32.458,51.772 -31.734,51.49 -30.99,51.223 -30.245,50.956 -29.501,50.689 -28.757,50.422 -28.012,50.156 -27.268,49.889 -26.524,49.622 -25.78,49.355 -25.035,49.089 -24.285,48.773 -23.528,48.407 -22.765,47.993 -21.995,47.529 -21.22,47.016 -20.438,46.453 -19.649,45.842 -18.855,45.181 -18.06,44.52 -17.266,43.859 -16.471,43.198 -15.677,42.537 -14.783,41.793 -13.79,40.967 -12.399,39.81 -9.718,37.58 -6.663,35.721 -5.079,34.757 -3.947,34.069 -2.929,33.449 -2.024,32.898 -1.119,32.348 -0.214,31.797 0.692,31.246 1.597,30.695 2.442,30.121 3.228,29.522 3.953,28.899 4.619,28.252 5.226,27.581 5.772,26.886 6.259,26.167 6.685,25.424 7.112,24.681 7.539,23.938 7.966,23.194 8.392,22.451 8.819,21.708 9.246,20.965 9.673,20.222 10.099,19.479 10.454,18.747 10.736,18.026 10.945,17.315 11.082,16.616 11.147,15.928 11.139,15.25 11.058,14.584 10.905,13.929 10.753,13.273 10.6,12.618 10.447,11.962 10.294,11.307 10.141,10.651 9.988,9.996 9.836,9.34 9.683,8.685 9.552,7.979 9.443,7.223 9.356,6.417 9.291,5.561 9.249,4.654 9.228,3.697 9.229,2.69 9.252,1.633 9.276,0.576 9.299,-0.482 9.322,-1.539 9.346,-2.596 9.369,-3.653 9.392,-4.711 9.415,-5.768 9.439,-6.825 9.478,-7.866 9.535,-8.89 9.607,-9.898 9.697,-10.889 9.802,-11.864 9.924,-12.822 10.063,-13.764 10.218,-14.689 10.373,-15.615 10.528,-16.54 10.683,-17.465 10.838,-18.39 10.994,-19.316 11.149,-20.241 11.304,-21.166 11.459,-22.091 11.657,-22.947 11.898,-23.733 12.183,-24.45 12.51,-25.097 12.881,-25.674 13.295,-26.182 13.751,-26.621 14.251,-26.989 14.751,-27.358 15.251,-27.727 15.751,-28.096 16.251,-28.464 16.751,-28.833 17.251,-29.202 17.751,-29.571 18.251,-29.94 18.827,-30.2 19.481,-30.353 20.211,-30.397 21.018,-30.333 21.901,-30.16 22.861,-29.88 23.898,-29.491 25.012,-28.994 26.126,-28.498 27.24,-28.001 28.353,-27.504 29.467,-27.007 30.581,-26.51 31.695,-26.013 32.808,-25.517 33.922,-25.02 35.02,-24.595 36.1,-24.242 37.165,-23.962 38.213,-23.753 39.245,-23.617 40.261,-23.552 41.26,-23.56 42.242,-23.64 43.225,-23.72 44.208,-23.8 45.19,-23.88 46.173,-23.959 47.156,-24.039 48.138,-24.119 49.121,-24.199 50.104,-24.279 51.133,-24.289 52.209,-24.229 53.332,-24.098 54.502,-23.898 55.718,-23.628 56.981,-23.288 58.291,-22.878 59.648,-22.397 61.004,-21.917 62.361,-21.437 63.717,-20.957 65.074,-20.477 66.43,-19.996 67.787,-19.516 69.143,-19.036 70.5,-18.556 71.913,-18.255 73.384,-18.133 74.912,-18.19 76.496,-18.427 78.138,-18.843 79.836,-19.438 81.592,-20.212 83.405,-21.166 85.217,-22.119 87.03,-23.073 88.842,-24.027 90.655,-24.98 92.694,-26.053 94.96,-27.245 98.132,-28.913 104.25,-32.132" stroke="#779988" stroke-width="2.634" stroke-linejoin="round" stroke-linecap="round"/><g fill="none"><line x1="-11.282" y1="35.385" x2="-8.153" y2="39.775" stroke="#4C5950" stroke-width="0.92" stroke-linejoin="round" stroke-linecap="butt"/><line x1="-11.282" y1="35.385" x2="-8.153" y2="39.775" stroke="#FFF2C8" stroke-width="0.68" stroke-linejoin="round" stroke-linecap="round"/></g></g><g fill="#D6A36E" stroke="#4C5950" stroke-width="0.12"><polygon points="-4.705,0.085 -4.854,-1.6 -3.734,-1.699 -3.585,-0.014"/></g><g fill="#D6A36E" stroke="#D6A36E" stroke-width="0.12"><g fill="#4C5950" stroke="#4C5950" stroke-width="0.12" stroke-linejoin="round"><polygon points="-18.347,13.572 -19.092,11.967 -19.092,11.567 -18.347,13.172"/><polygon points="-16.368,12.653 -18.347,13.572 -18.347,13.172 -16.368,12.253"/><polygon points="-15.826,13.819 -17.756,14.843 -18.347,13.572 -18.347,13.172 -17.756,14.443 -15.826,13.419"/><polygon points="-12.923,12.277 -15.826,13.819 -17.113,11.047 -17.113,10.647 -15.826,13.419 -12.923,11.877"/><polygon points="-14.136,9.665 -16.622,10.819 -17.54,8.844 -17.54,8.444 -16.622,10.419 -14.136,9.265"/><polygon points="-16.622,10.819 -19.092,11.967 -20.178,9.628 -20.178,9.228 -19.092,11.567 -16.622,10.419"/><polygon points="-8.401,9.875 -12.923,12.277 -14.884,8.054 -14.884,7.654 -12.923,11.877 -8.401,9.475"/></g><polygon points="-18.347,13.172 -19.092,11.567 -17.113,10.647 -16.368,12.253"/><polygon points="-16.368,12.253 -15.826,13.419 -17.756,14.443 -18.347,13.172"/><polygon points="-17.113,10.647 -14.136,9.265 -12.923,11.877 -15.826,13.419"/><polygon points="-17.54,8.444 -14.884,7.654 -14.136,9.265 -16.622,10.419"/><polygon points="-16.622,10.419 -19.092,11.567 -20.178,9.228 -17.54,8.444"/><polygon points="-14.884,7.654 -8.724,5.823 -8.401,9.475 -12.923,11.877"/><g fill="#4C5950" stroke="#4C5950" stroke-width="0.12" stroke-linejoin="round"><polygon points="-21.254,3.434 -22.781,4.024 -24.356,0.633 -24.356,0.233 -22.781,3.624 -21.254,3.034"/><polygon points="-14.457,7.093 -17.221,7.915 -18.236,5.286 -18.236,4.886 -17.221,7.515 -14.457,6.693"/><polygon points="-12.33,6.461 -14.457,7.093 -15.554,4.25 -15.554,3.85 -14.457,6.693 -12.33,6.061"/><polygon points="-21.463,6.863 -22.781,4.024 -22.781,3.624 -21.463,6.463"/><polygon points="-18.125,5.574 -21.463,6.863 -21.463,6.463 -18.125,5.174"/><polygon points="-17.221,7.915 -20.519,8.895 -21.463,6.863 -21.463,6.463 -20.519,8.495 -17.221,7.515"/><polygon points="-9.924,5.745 -12.33,6.461 -13.8,2.653 -13.8,2.253 -12.33,6.061 -9.924,5.345"/><polygon points="-8.796,5.41 -9.924,5.745 -11.466,1.752 -11.466,1.352 -9.924,5.345 -8.796,5.01"/><polygon points="-13.8,2.653 -15.342,-1.34 -15.342,-1.74 -13.8,2.253"/><polygon points="-9.197,0.876 -13.8,2.653 -13.8,2.253 -9.197,0.476"/></g><polygon points="-21.254,3.034 -22.781,3.624 -24.356,0.233 -22.598,-0.446"/><polygon points="-14.457,6.693 -17.221,7.515 -18.236,4.886 -15.554,3.85"/><polygon points="-15.554,3.85 -13.491,3.054 -12.33,6.061 -14.457,6.693"/><polygon points="-21.463,6.463 -22.781,3.624 -19.25,2.26 -18.125,5.174"/><polygon points="-18.125,5.174 -17.221,7.515 -20.519,8.495 -21.463,6.463"/><polygon points="-9.924,5.345 -12.33,6.061 -13.8,2.253 -11.466,1.352"/><polygon points="-11.466,1.352 -9.197,0.476 -8.796,5.01 -9.924,5.345"/><polygon points="-13.8,2.253 -15.342,-1.74 -9.589,-3.961 -9.197,0.476"/></g><g fill="#D6A36E" stroke="#D6A36E" stroke-width="0.12"><g fill="#4C5950" stroke="#4C5950" stroke-width="0.12" stroke-linejoin="round"/><polygon points="12.251,5.668"/></g><g fill="#D6A36E" stroke="#D6A36E" stroke-width="0.12"><g fill="#4C5950" stroke="#4C5950" stroke-width="0.12" stroke-linejoin="round"><polygon points="-11.943,-18.177 -14.645,-23.239 -14.645,-23.639 -11.943,-18.577"/><polygon points="-6.2,-23.775 -6.833,-18.501 -11.943,-18.177 -11.943,-18.577 -6.833,-18.901 -6.2,-24.175"/></g><polygon points="-11.943,-18.577 -14.645,-23.639 -6.2,-24.175 -6.833,-18.901"/></g><g fill="#D6A36E" stroke="#D6A36E" stroke-width="0.12"><g fill="#4C5950" stroke="#4C5950" stroke-width="0.12" stroke-linejoin="round"><polygon points="5.521,14.019 3.943,15.062 0.326,9.59 0.326,9.19 3.943,14.662 5.521,13.619"/><polygon points="4.954,11.713 4.197,8.638 4.197,8.238 4.954,11.313"/><polygon points="7.088,11.188 4.954,11.713 4.954,11.313 7.088,10.788"/><polygon points="7.451,12.743 5.521,14.019 4.954,11.713 4.954,11.313 5.521,13.619 7.451,12.343"/><polygon points="-2.51,17.038 -3.42,15.661 -3.42,15.261 -2.51,16.638"/><polygon points="0.018,15.367 -2.51,17.038 -2.51,16.638 0.018,14.967"/><polygon points="-0.71,13.869 -3.42,15.661 -6.349,11.232 -6.349,10.832 -3.42,15.261 -0.71,13.469"/><polygon points="1.98,12.091 -0.71,13.869 -2.998,10.408 -2.998,10.008 -0.71,13.469 1.98,11.691"/></g><polygon points="5.521,13.619 3.943,14.662 0.326,9.19 4.197,8.238"/><polygon points="4.954,11.313 4.197,8.238 6.369,7.704 7.088,10.788"/><polygon points="7.088,10.788 7.451,12.343 5.521,13.619 4.954,11.313"/><polygon points="-2.51,16.638 -3.42,15.261 -0.892,13.59 0.018,14.967"/><polygon points="-0.71,13.469 -3.42,15.261 -6.349,10.832 -2.998,10.008"/><polygon points="-2.998,10.008 0.326,9.19 1.98,11.691 -0.71,13.469"/></g><g fill="#D6A36E" stroke="#D6A36E" stroke-width="0.12"><g fill="#4C5950" stroke="#4C5950" stroke-width="0.12" stroke-linejoin="round"><polygon points="-6.875,19.234 -14.631,23.081 -16.983,16.697 -16.983,16.297 -14.631,22.681 -6.875,18.834"/></g><polygon points="-6.875,18.834 -14.631,22.681 -16.983,16.297 -9.978,12.577"/></g><g fill="#D6A36E" stroke="#D6A36E" stroke-width="0.12"><g fill="#4C5950" stroke="#4C5950" stroke-width="0.12" stroke-linejoin="round"><polygon points="-18.513,15.113 -21.544,15.858 -22.295,12.806 -22.295,12.406 -21.544,15.458 -18.513,14.713"/><polygon points="-22.295,12.806 -23.059,9.701 -23.059,9.301 -22.295,12.406"/><polygon points="-19.862,12.208 -22.295,12.806 -22.295,12.406 -19.862,11.808"/><polygon points="-21.544,15.858 -27.449,17.311 -28.062,14.493 -28.062,14.093 -27.449,16.911 -21.544,15.458"/></g><polygon points="-19.862,11.808 -18.513,14.713 -21.544,15.458 -22.295,12.406"/><polygon points="-22.295,12.406 -23.059,9.301 -21.235,8.852 -19.862,11.808"/><polygon points="-22.233,12.659 -21.544,15.458 -27.449,16.911 -28.062,14.093"/></g><g stroke="#99AA77" stroke-width="0.12" stroke-linecap="butt"><line x1="-30.206" y1="-25.476" x2="-33.854" y2="-19.469"/><line x1="-28.702" y1="-25.221" x2="-36.924" y2="-11.686"/><line x1="-27.491" y1="-24.485" x2="-36.244" y2="-10.075"/><line x1="-26.279" y1="-23.749" x2="-35.049" y2="-9.313"/><line x1="-25.068" y1="-23.013" x2="-33.853" y2="-8.551"/><line x1="-23.856" y1="-22.277" x2="-32.658" y2="-7.789"/><line x1="-22.645" y1="-21.541" x2="-31.462" y2="-7.027"/><line x1="-21.434" y1="-20.805" x2="-30.267" y2="-6.265"/><line x1="-20.335" y1="-19.884" x2="-29.047" y2="-5.543"/><line x1="-19.318" y1="-18.828" x2="-27.594" y2="-5.205"/><line x1="-18.543" y1="-17.375" x2="-25.607" y2="-5.745"/><line x1="-17.767" y1="-15.921" x2="-23.441" y2="-6.582"/><line x1="-16.991" y1="-14.468" x2="-21.274" y2="-7.418"/><line x1="-16.216" y1="-13.015" x2="-19.107" y2="-8.255"/><line x1="-15.44" y1="-11.562" x2="-16.941" y2="-9.092"/><g fill="#D6A36E" stroke="#D6A36E" stroke-width="0.12"><g fill="#4C5950" stroke="#4C5950" stroke-width="0.12" stroke-linejoin="round"><polygon points="-29.51,-20.475 -31.485,-21.051 -31.485,-21.291 -29.51,-20.715"/><polygon points="-28.483,-23.994 -28.806,-22.887 -28.806,-23.127 -28.483,-24.234"/><polygon points="-27.474,-22.498 -27.886,-21.087 -29.218,-21.476 -29.51,-20.475 -29.51,-20.715 -29.218,-21.716 -27.886,-21.327 -27.474,-22.738"/></g><polygon points="-29.51,-20.715 -31.485,-21.291 -31.193,-22.292 -30.781,-23.703 -30.458,-24.81 -28.483,-24.234 -28.806,-23.127 -27.474,-22.738 -27.886,-21.327 -29.218,-21.716"/></g></g><g/><g stroke="#99AA77" stroke-width="0.12" stroke-linecap="butt"><line x1="-4.27" y1="-43.277" x2="-8.892" y2="-35.76"/><line x1="-2.169" y1="-43.686" x2="-12.951" y2="-26.15"/><line x1="-0.826" y1="-42.861" x2="-11.922" y2="-24.815"/><line x1="0.516" y1="-42.036" x2="-9.997" y2="-24.937"/><line x1="1.858" y1="-41.211" x2="-8.073" y2="-25.059"/><line x1="3.2" y1="-40.386" x2="-6.148" y2="-25.181"/><line x1="4.542" y1="-39.56" x2="-4.223" y2="-25.303"/><line x1="5.885" y1="-38.735" x2="-2.299" y2="-25.425"/><line x1="7.227" y1="-37.91" x2="-0.374" y2="-25.547"/><line x1="8.569" y1="-37.085" x2="1.55" y2="-25.669"/><line x1="9.911" y1="-36.259" x2="3.475" y2="-25.791"/><line x1="11.253" y1="-35.434" x2="5.4" y2="-25.913"/><line x1="12.596" y1="-34.609" x2="7.563" y2="-26.423"/><line x1="13.938" y1="-33.784" x2="10.361" y2="-27.966"/><line x1="14.966" y1="-32.448" x2="13.745" y2="-30.463"/></g><g/><g/><g stroke="#99AA77" stroke-width="0.12" stroke-linecap="butt"><line x1="-50.225" y1="18.442" x2="-42.758" y2="17.055"/><line x1="-51.526" y1="17.292" x2="-35.061" y2="14.234"/><line x1="-51.953" y1="15.98" x2="-33.667" y2="12.584"/><line x1="-52.203" y1="14.635" x2="-33.37" y2="11.138"/><line x1="-52.453" y1="13.29" x2="-33.074" y2="9.691"/><line x1="-52.703" y1="11.946" x2="-32.778" y2="8.245"/><line x1="-52.952" y1="10.601" x2="-32.481" y2="6.799"/><line x1="-53.202" y1="9.256" x2="-32.185" y2="5.352"/><line x1="-53.452" y1="7.911" x2="-31.889" y2="3.906"/><line x1="-53.702" y1="6.566" x2="-31.592" y2="2.46"/><line x1="-53.951" y1="5.221" x2="-31.296" y2="1.013"/><line x1="-54.201" y1="3.876" x2="-31" y2="-0.433"/><line x1="-54.451" y1="2.531" x2="-30.703" y2="-1.879"/><line x1="-54.701" y1="1.187" x2="-30.912" y2="-3.232"/><line x1="-54.951" y1="-0.158" x2="-31.299" y2="-4.551"/><line x1="-55.2" y1="-1.503" x2="-32.989" y2="-5.629"/><line x1="-55.039" y1="-2.924" x2="-34.679" y2="-6.706"/><line x1="-54.407" y1="-4.433" x2="-36.369" y2="-7.783"/><line x1="-47.193" y1="-7.164" x2="-38.06" y2="-8.861"/><g fill="#D6A36E" stroke="#D6A36E" stroke-width="0.12"><g fill="#4C5950" stroke="#4C5950" stroke-width="0.12" stroke-linejoin="round"><polygon points="-48.828,1.388 -50.492,2.021 -50.925,0.884 -51.417,-0.41 -51.741,-1.261 -51.741,-1.501 -51.417,-0.65 -50.925,0.644 -50.492,1.781 -48.828,1.148"/><polygon points="-47.721,-0.334 -49.261,0.252 -49.261,0.012 -47.721,-0.574"/></g><polygon points="-48.828,1.148 -50.492,1.781 -50.925,0.644 -51.417,-0.65 -51.741,-1.501 -50.077,-2.133 -48.537,-2.719 -48.213,-1.869 -47.721,-0.574 -49.261,0.012"/></g></g><g stroke="#99AA77" stroke-width="0.12" stroke-linecap="butt"><line x1="-12.474" y1="34.746" x2="-16.973" y2="22.194"/><line x1="-13.152" y1="36.41" x2="-18.498" y2="21.494"/><line x1="-14.134" y1="37.227" x2="-19.67" y2="21.782"/><line x1="-15.116" y1="38.044" x2="-20.841" y2="22.07"/><line x1="-16.098" y1="38.861" x2="-22.013" y2="22.358"/><line x1="-17.08" y1="39.678" x2="-23.184" y2="22.647"/><line x1="-18.062" y1="40.494" x2="-24.355" y2="22.935"/><line x1="-19.044" y1="41.311" x2="-25.527" y2="23.223"/><line x1="-20.025" y1="42.128" x2="-26.698" y2="23.511"/><line x1="-21.007" y1="42.945" x2="-27.87" y2="23.799"/><line x1="-21.989" y1="43.762" x2="-29.041" y2="24.087"/><line x1="-22.985" y1="44.539" x2="-30.212" y2="24.376"/><line x1="-24.032" y1="45.175" x2="-31.383" y2="24.667"/><line x1="-25.078" y1="45.812" x2="-32.546" y2="24.976"/><line x1="-26.207" y1="46.22" x2="-33.71" y2="25.286"/><line x1="-27.336" y1="46.625" x2="-34.87" y2="25.607"/><line x1="-28.466" y1="47.03" x2="-36.025" y2="25.939"/><line x1="-29.595" y1="47.435" x2="-37.181" y2="26.272"/><line x1="-30.725" y1="47.84" x2="-38.336" y2="26.605"/><line x1="-31.855" y1="48.245" x2="-39.492" y2="26.937"/><line x1="-32.984" y1="48.649" x2="-40.647" y2="27.27"/><line x1="-34.203" y1="48.804" x2="-41.803" y2="27.602"/><line x1="-35.896" y1="47.636" x2="-42.958" y2="27.935"/><line x1="-38.63" y1="43.566" x2="-44.114" y2="28.267"/><line x1="-41.671" y1="38.64" x2="-45.269" y2="28.6"/><line x1="-44.711" y1="33.713" x2="-46.102" y2="29.831"/><g fill="#D6A36E" stroke="#D6A36E" stroke-width="0.12"><g fill="#4C5950" stroke="#4C5950" stroke-width="0.12" stroke-linejoin="round"><polygon points="-18.173,36.649 -18.664,37.34 -19.695,36.609 -20.542,36.008 -20.542,35.768 -19.695,36.369 -18.664,37.1 -18.173,36.409"/><polygon points="-20.051,35.316 -21.109,34.566 -21.109,34.326 -20.051,35.076"/><polygon points="-17.608,33.667 -18.215,34.523 -19.204,35.917 -19.204,35.677 -18.215,34.283 -17.608,33.427"/></g><polygon points="-18.173,36.409 -18.664,37.1 -19.695,36.369 -20.542,35.768 -20.051,35.076 -21.109,34.326 -20.12,32.932 -19.513,32.076 -18.455,32.826 -17.608,33.427 -18.215,34.283 -19.204,35.677"/></g></g><g/><g stroke="#99AA77" stroke-width="0.12" stroke-linecap="butt"><line x1="-12.561" y1="-57.802" x2="-15.759" y2="-59.36"/><line x1="-11.373" y1="-55.767" x2="-18.213" y2="-59.099"/><line x1="-10.185" y1="-53.732" x2="-20.667" y2="-58.839"/><line x1="-8.997" y1="-51.697" x2="-22.398" y2="-58.225"/><line x1="-7.808" y1="-49.662" x2="-23.331" y2="-57.224"/><line x1="-6.691" y1="-47.661" x2="-23.878" y2="-56.034"/><line x1="-6.733" y1="-46.226" x2="-24.352" y2="-54.809"/><line x1="-6.776" y1="-44.79" x2="-24.827" y2="-53.584"/><line x1="-7.302" y1="-43.59" x2="-25.302" y2="-52.359"/><line x1="-7.875" y1="-42.413" x2="-25.776" y2="-51.134"/><line x1="-8.448" y1="-41.237" x2="-26.251" y2="-49.909"/><line x1="-9.022" y1="-40.06" x2="-26.725" y2="-48.684"/><line x1="-9.595" y1="-38.883" x2="-27.2" y2="-47.459"/><line x1="-10.168" y1="-37.706" x2="-27.675" y2="-46.234"/><line x1="-10.742" y1="-36.529" x2="-28.149" y2="-45.009"/><line x1="-11.315" y1="-35.352" x2="-28.36" y2="-43.655"/><line x1="-11.888" y1="-34.175" x2="-28.388" y2="-42.212"/><line x1="-12.462" y1="-32.998" x2="-27.553" y2="-40.35"/><line x1="-13.035" y1="-31.821" x2="-26.719" y2="-38.487"/><line x1="-13.608" y1="-30.644" x2="-25.884" y2="-36.624"/><line x1="-14.911" y1="-29.822" x2="-21.649" y2="-33.105"/></g><g stroke="#99AA77" stroke-width="0.12" stroke-linecap="butt"><line x1="8.179" y1="-39.672" x2="18.903" y2="-34.138"/><line x1="0.68" y1="-45.059" x2="20.511" y2="-34.824"/><line x1="0.078" y1="-46.887" x2="21.225" y2="-35.973"/><line x1="0.635" y1="-48.116" x2="21.92" y2="-37.131"/><line x1="1.253" y1="-49.313" x2="22.538" y2="-38.329"/><line x1="1.871" y1="-50.511" x2="23.156" y2="-39.526"/><line x1="2.49" y1="-51.709" x2="23.775" y2="-40.724"/><line x1="3.108" y1="-52.907" x2="24.393" y2="-41.922"/><line x1="3.726" y1="-54.104" x2="25.011" y2="-43.119"/><line x1="4.344" y1="-55.302" x2="25.629" y2="-44.317"/><line x1="4.962" y1="-56.5" x2="26.247" y2="-45.515"/><line x1="5.58" y1="-57.698" x2="26.865" y2="-46.713"/><line x1="6.198" y1="-58.895" x2="27.483" y2="-47.91"/><line x1="6.817" y1="-60.093" x2="28.101" y2="-49.108"/><line x1="7.716" y1="-61.145" x2="28.72" y2="-50.306"/><line x1="9.432" y1="-61.777" x2="29.338" y2="-51.504"/><line x1="12.216" y1="-61.856" x2="29.956" y2="-52.701"/><line x1="17.295" y1="-60.752" x2="30.574" y2="-53.899"/><line x1="22.373" y1="-59.648" x2="31.192" y2="-55.097"/><line x1="27.452" y1="-58.544" x2="30.426" y2="-57.009"/><line x1="-3.257" y1="-46.704" x2="5.006" y2="-62.715"/><line x1="-4.447" y1="-47.938" x2="3.693" y2="-63.71"/><line x1="-5.435" y1="-49.563" x2="2.051" y2="-64.067"/><line x1="-6.404" y1="-51.223" x2="0.409" y2="-64.424"/><line x1="-7.374" y1="-52.884" x2="-1.234" y2="-64.781"/><line x1="-8.343" y1="-54.544" x2="-2.876" y2="-65.138"/><line x1="-9.312" y1="-56.205" x2="-4.518" y2="-65.495"/><line x1="-10.282" y1="-57.865" x2="-6.251" y2="-65.675"/><line x1="-11.145" y1="-59.731" x2="-9.129" y2="-63.639"/></g><g/><g stroke="#99AA77" stroke-width="0.12" stroke-linecap="butt"><line x1="-51.917" y1="-38.618" x2="-62.144" y2="-37.043"/><line x1="-51.105" y1="-37.216" x2="-63.008" y2="-35.383"/><line x1="-50.575" y1="-35.771" x2="-63.272" y2="-33.816"/><line x1="-50.345" y1="-34.28" x2="-63.426" y2="-32.266"/><line x1="-50.116" y1="-32.788" x2="-63.58" y2="-30.715"/><line x1="-49.886" y1="-31.297" x2="-63.734" y2="-29.165"/><line x1="-49.656" y1="-29.806" x2="-63.888" y2="-27.614"/><line x1="-49.427" y1="-28.314" x2="-64.042" y2="-26.064"/><line x1="-49.197" y1="-26.823" x2="-64.196" y2="-24.514"/><line x1="-48.968" y1="-25.332" x2="-64.35" y2="-22.963"/><line x1="-48.738" y1="-23.84" x2="-64.504" y2="-21.413"/><line x1="-48.508" y1="-22.349" x2="-64.658" y2="-19.862"/><line x1="-48.279" y1="-20.858" x2="-64.812" y2="-18.312"/><line x1="-48.049" y1="-19.366" x2="-64.966" y2="-16.762"/><line x1="-47.819" y1="-17.875" x2="-65.12" y2="-15.211"/><line x1="-47.59" y1="-16.384" x2="-65.005" y2="-13.702"/><line x1="-47.36" y1="-14.892" x2="-64.715" y2="-12.22"/><line x1="-47.131" y1="-13.401" x2="-63.622" y2="-10.862"/><line x1="-47.081" y1="-11.882" x2="-61.716" y2="-9.628"/><line x1="-47.348" y1="-10.314" x2="-59.811" y2="-8.395"/><line x1="-50.311" y1="-8.331" x2="-57.905" y2="-7.162"/><line x1="-48.352" y1="-38.996" x2="-43.921" y2="-10.212"/><line x1="-47.134" y1="-40.117" x2="-42.59" y2="-10.604"/><line x1="-45.775" y1="-40.327" x2="-41.259" y2="-10.996"/><line x1="-44.416" y1="-40.536" x2="-39.964" y2="-11.619"/><line x1="-43.057" y1="-40.745" x2="-38.837" y2="-13.338"/><line x1="-41.698" y1="-40.954" x2="-37.798" y2="-15.624"/><line x1="-40.336" y1="-41.142" x2="-36.759" y2="-17.911"/><line x1="-38.748" y1="-39.864" x2="-35.72" y2="-20.197"/><line x1="-36.638" y1="-35.19" x2="-34.681" y2="-22.484"/><line x1="-34.518" y1="-30.458" x2="-33.642" y2="-24.77"/></g><g/><g/><g/><g stroke="#99AA77" stroke-width="0.12" stroke-linecap="butt"><line x1="-77.137" y1="15.359" x2="-77.277" y2="16.481"/><line x1="-75.988" y1="14.848" x2="-76.408" y2="18.214"/><line x1="-74.908" y1="14.891" x2="-75.539" y2="19.948"/><line x1="-73.839" y1="15.025" x2="-74.67" y2="21.681"/><line x1="-72.771" y1="15.158" x2="-73.802" y2="23.415"/><line x1="-71.702" y1="15.291" x2="-72.892" y2="24.821"/><line x1="-70.633" y1="15.425" x2="-71.836" y2="25.057"/><line x1="-69.565" y1="15.558" x2="-70.78" y2="25.293"/><line x1="-68.496" y1="15.692" x2="-69.663" y2="25.041"/><line x1="-67.427" y1="15.825" x2="-68.535" y2="24.7"/><line x1="-66.359" y1="15.958" x2="-67.407" y2="24.359"/><line x1="-65.29" y1="16.092" x2="-66.28" y2="24.019"/><line x1="-64.221" y1="16.225" x2="-65.152" y2="23.678"/><line x1="-63.153" y1="16.359" x2="-64.024" y2="23.337"/><line x1="-62.084" y1="16.492" x2="-62.896" y2="22.996"/><line x1="-61.015" y1="16.625" x2="-61.768" y2="22.655"/><line x1="-59.947" y1="16.759" x2="-60.64" y2="22.314"/><line x1="-58.878" y1="16.892" x2="-59.512" y2="21.974"/><line x1="-57.809" y1="17.026" x2="-58.384" y2="21.633"/><line x1="-56.74" y1="17.159" x2="-57.256" y2="21.292"/><line x1="-55.678" y1="17.339" x2="-56.129" y2="20.951"/><line x1="-54.622" y1="17.575" x2="-54.998" y2="20.586"/><line x1="-53.599" y1="18.073" x2="-53.849" y2="20.076"/><line x1="-65.72" y1="-9.837" x2="-73.557" y2="-8.382"/><line x1="-63.988" y1="-8.716" x2="-76.216" y2="-6.445"/><line x1="-62.256" y1="-7.595" x2="-78.444" y2="-4.589"/><line x1="-60.524" y1="-6.475" x2="-80.673" y2="-2.732"/><line x1="-58.792" y1="-5.354" x2="-82.902" y2="-0.876"/><line x1="-58.103" y1="-4.039" x2="-84.156" y2="0.8"/><line x1="-57.46" y1="-2.715" x2="-84.392" y2="2.287"/><line x1="-57.201" y1="-1.321" x2="-83.731" y2="3.606"/><line x1="-56.942" y1="0.074" x2="-83.069" y2="4.926"/><line x1="-56.683" y1="1.468" x2="-82.407" y2="6.246"/><line x1="-56.424" y1="2.863" x2="-81.746" y2="7.566"/><line x1="-56.165" y1="4.257" x2="-81.084" y2="8.886"/><line x1="-55.906" y1="5.652" x2="-80.423" y2="10.205"/><line x1="-55.647" y1="7.046" x2="-79.359" y2="11.451"/><line x1="-55.388" y1="8.441" x2="-77.156" y2="12.484"/><line x1="-55.129" y1="9.836" x2="-72.868" y2="13.13"/><line x1="-54.87" y1="11.23" x2="-68.223" y2="13.71"/><line x1="-54.611" y1="12.625" x2="-63.577" y2="14.29"/><line x1="-55.42" y1="14.218" x2="-58.932" y2="14.87"/><g fill="#D6A36E" stroke="#D6A36E" stroke-width="0.12"><g fill="#4C5950" stroke="#4C5950" stroke-width="0.12" stroke-linejoin="round"><polygon points="-75.323,11.124 -76.999,11.604 -77.347,10.387 -77.719,9.089 -78.004,8.093 -78.004,7.853 -77.719,8.849 -77.347,10.147 -76.999,11.364 -75.323,10.884"/><polygon points="-74.107,9.459 -75.671,9.907 -75.671,9.667 -74.107,9.219"/></g><polygon points="-75.323,10.884 -76.999,11.364 -77.347,10.147 -77.719,8.849 -78.004,7.853 -76.328,7.374 -74.763,6.926 -74.478,7.922 -74.107,9.219 -75.671,9.667"/></g></g><g/><g/><g/><g/><g stroke="#99AA77" stroke-width="0.12" stroke-linecap="butt"><line x1="-54.884" y1="-41.617" x2="-40.536" y2="-43.826"/><line x1="-55.825" y1="-42.81" x2="-39.16" y2="-45.376"/><line x1="-56.52" y1="-44.041" x2="-38.609" y2="-46.799"/><line x1="-56.721" y1="-45.348" x2="-38.057" y2="-48.222"/><line x1="-56.922" y1="-46.655" x2="-37.506" y2="-49.645"/><line x1="-57.124" y1="-47.963" x2="-36.955" y2="-51.068"/><line x1="-57.325" y1="-49.27" x2="-36.404" y2="-52.491"/><line x1="-57.526" y1="-50.577" x2="-35.852" y2="-53.914"/><line x1="-57.727" y1="-51.884" x2="-35.301" y2="-55.337"/><line x1="-57.929" y1="-53.191" x2="-34.96" y2="-56.728"/><line x1="-58.13" y1="-54.498" x2="-35.313" y2="-58.011"/><line x1="-58.331" y1="-55.805" x2="-35.667" y2="-59.295"/><line x1="-58.532" y1="-57.113" x2="-36.685" y2="-60.476"/><line x1="-58.734" y1="-58.42" x2="-37.763" y2="-61.649"/><line x1="-58.935" y1="-59.727" x2="-38.842" y2="-62.821"/><line x1="-59.136" y1="-61.034" x2="-39.92" y2="-63.993"/><line x1="-59.338" y1="-62.341" x2="-40.998" y2="-65.165"/><line x1="-59.539" y1="-63.648" x2="-42.077" y2="-66.337"/><line x1="-59.74" y1="-64.955" x2="-43.155" y2="-67.509"/><line x1="-59.941" y1="-66.263" x2="-44.233" y2="-68.681"/><line x1="-59.602" y1="-67.653" x2="-45.312" y2="-69.853"/><line x1="-59.263" y1="-69.043" x2="-46.39" y2="-71.025"/><line x1="-53.51" y1="-71.267" x2="-48.242" y2="-72.078"/><line x1="-58.702" y1="-40.36" x2="-62.992" y2="-68.22"/><line x1="-60.119" y1="-40.142" x2="-64.382" y2="-67.829"/><line x1="-61.536" y1="-39.923" x2="-65.766" y2="-67.391"/><line x1="-62.965" y1="-39.779" x2="-67.149" y2="-66.954"/><line x1="-64.607" y1="-41.021" x2="-68.533" y2="-66.516"/><line x1="-66.373" y1="-43.066" x2="-69.599" y2="-64.02"/><line x1="-68.139" y1="-45.111" x2="-70.222" y2="-58.645"/><line x1="-69.904" y1="-47.156" x2="-70.846" y2="-53.271"/><g fill="#D6A36E" stroke="#D6A36E" stroke-width="0.12"><g fill="#4C5950" stroke="#4C5950" stroke-width="0.12" stroke-linejoin="round"><polygon points="-39.586,-54.902 -40.611,-55.647 -41.365,-56.196 -42.468,-56.999 -42.468,-57.239 -41.365,-56.436 -40.611,-55.887 -39.586,-55.142"/><polygon points="-38.616,-58.388 -39.307,-57.438 -39.307,-57.678 -38.616,-58.628"/><polygon points="-38.283,-56.692 -39.586,-54.902 -39.586,-55.142 -38.283,-56.932"/></g><polygon points="-39.586,-55.142 -40.611,-55.887 -41.365,-56.436 -42.468,-57.239 -41.164,-59.03 -40.473,-59.98 -39.37,-59.177 -38.616,-58.628 -39.307,-57.678 -38.283,-56.932"/></g></g><g stroke="#99AA77" stroke-width="0.12" stroke-linecap="butt"><line x1="-21.384" y1="-87.481" x2="-39.519" y2="-87.787"/><line x1="-20.557" y1="-86.325" x2="-40.218" y2="-86.656"/><line x1="-19.835" y1="-85.171" x2="-40.432" y2="-85.518"/><line x1="-19.854" y1="-84.029" x2="-40.645" y2="-84.38"/><line x1="-19.873" y1="-82.887" x2="-40.858" y2="-83.241"/><line x1="-19.892" y1="-81.745" x2="-41.071" y2="-82.103"/><line x1="-19.912" y1="-80.604" x2="-40.758" y2="-80.955"/><line x1="-19.931" y1="-79.462" x2="-40.042" y2="-79.801"/><line x1="-19.95" y1="-78.32" x2="-39.269" y2="-78.646"/><line x1="-19.969" y1="-77.178" x2="-38.202" y2="-77.486"/><line x1="-19.989" y1="-76.037" x2="-37.135" y2="-76.326"/><line x1="-20.008" y1="-74.895" x2="-36.067" y2="-75.166"/><line x1="-20.027" y1="-73.753" x2="-35" y2="-74.006"/><line x1="-20.046" y1="-72.611" x2="-33.933" y2="-72.846"/><line x1="-20.066" y1="-71.47" x2="-32.866" y2="-71.685"/><line x1="-20.085" y1="-70.328" x2="-31.798" y2="-70.525"/><line x1="-20.104" y1="-69.186" x2="-30.731" y2="-69.365"/><line x1="-20.123" y1="-68.044" x2="-29.664" y2="-68.205"/><line x1="-20.143" y1="-66.903" x2="-28.597" y2="-67.045"/><line x1="-20.162" y1="-65.761" x2="-27.529" y2="-65.885"/><line x1="-20.181" y1="-64.619" x2="-26.462" y2="-64.725"/><line x1="-20.212" y1="-63.477" x2="-25.395" y2="-63.565"/><line x1="-20.333" y1="-62.337" x2="-24.293" y2="-62.404"/><line x1="-20.454" y1="-61.197" x2="-23.066" y2="-61.241"/><line x1="-16.996" y1="-86.659" x2="-17.425" y2="-61.194"/><line x1="-15.348" y1="-87.95" x2="-15.796" y2="-61.367"/><line x1="-13.722" y1="-87.923" x2="-14.167" y2="-61.541"/><line x1="-12.096" y1="-87.895" x2="-12.519" y2="-62.799"/><line x1="-10.469" y1="-87.868" x2="-10.86" y2="-64.697"/><line x1="-8.843" y1="-87.84" x2="-9.202" y2="-66.595"/><line x1="-7.217" y1="-87.813" x2="-7.521" y2="-69.831"/><line x1="-5.591" y1="-87.786" x2="-5.811" y2="-74.761"/><line x1="-3.965" y1="-87.758" x2="-4.101" y2="-79.691"/><line x1="-2.34" y1="-87.696" x2="-2.392" y2="-84.621"/><g fill="#D6A36E" stroke="#D6A36E" stroke-width="0.12"><g fill="#4C5950" stroke="#4C5950" stroke-width="0.12" stroke-linejoin="round"><polygon points="-26.369,-65.808 -26.787,-66.925 -26.787,-67.165 -26.369,-66.048"/><polygon points="-22.97,-67.081 -23.934,-66.72 -23.934,-66.96 -22.97,-67.321"/><polygon points="-23.146,-64.615 -24.477,-64.117 -25.265,-66.222 -26.369,-65.808 -26.369,-66.048 -25.265,-66.462 -24.477,-64.357 -23.146,-64.855"/></g><polygon points="-26.369,-66.048 -26.787,-67.165 -25.683,-67.578 -24.352,-68.076 -23.388,-68.437 -22.97,-67.321 -23.934,-66.96 -23.146,-64.855 -24.477,-64.357 -25.265,-66.462"/></g></g><g stroke="#99AA77" stroke-width="0.12" stroke-linecap="butt"><line x1="-81.983" y1="-19.433" x2="-74.25" y2="-10.455"/><line x1="-81.323" y1="-21.079" x2="-72.566" y2="-10.913"/><line x1="-80.133" y1="-22.11" x2="-70.882" y2="-11.37"/><line x1="-78.94" y1="-23.137" x2="-69.198" y2="-11.828"/><line x1="-77.747" y1="-24.165" x2="-67.922" y2="-12.759"/><line x1="-76.554" y1="-25.192" x2="-67.263" y2="-14.406"/><line x1="-75.361" y1="-26.22" x2="-67" y2="-16.514"/><line x1="-74.169" y1="-27.247" x2="-66.785" y2="-18.677"/><line x1="-72.976" y1="-28.275" x2="-66.571" y2="-20.839"/><line x1="-71.783" y1="-29.302" x2="-66.356" y2="-23.002"/><line x1="-70.59" y1="-30.33" x2="-66.141" y2="-25.165"/><line x1="-69.397" y1="-31.358" x2="-65.926" y2="-27.328"/><line x1="-68.204" y1="-32.385" x2="-65.711" y2="-29.491"/><line x1="-67.011" y1="-33.413" x2="-65.496" y2="-31.654"/><line x1="-83.495" y1="-22.755" x2="-65.146" y2="-38.561"/><line x1="-85.554" y1="-22.786" x2="-66.028" y2="-39.606"/><line x1="-86.651" y1="-23.645" x2="-66.921" y2="-40.641"/><line x1="-87.543" y1="-24.681" x2="-67.815" y2="-41.676"/><line x1="-88.435" y1="-25.717" x2="-68.708" y2="-42.711"/><line x1="-89.328" y1="-26.753" x2="-69.601" y2="-43.745"/><line x1="-90.22" y1="-27.789" x2="-70.495" y2="-44.78"/><line x1="-91.112" y1="-28.824" x2="-71.388" y2="-45.815"/><line x1="-92.004" y1="-29.86" x2="-72.53" y2="-46.636"/><line x1="-92.897" y1="-30.896" x2="-74.612" y2="-46.647"/><line x1="-93.789" y1="-31.932" x2="-77.474" y2="-45.985"/><line x1="-94.681" y1="-32.967" x2="-80.974" y2="-44.775"/><line x1="-95.573" y1="-34.003" x2="-84.474" y2="-43.564"/><line x1="-96.465" y1="-35.039" x2="-87.974" y2="-42.354"/><line x1="-97.358" y1="-36.075" x2="-91.474" y2="-41.143"/><line x1="-97.35" y1="-37.885" x2="-94.974" y2="-39.932"/></g><g/><g/><g/><g/></g><g id="cityName" style="font: 4px IM Fell Great Primer, serif" fill="#4C5950" transform="translate(35.987 4)"><text text-anchor="middle" dominant-baseline="hanging" stroke="#FFF2C8" stroke-width="0.482">Jairnt</text><text text-anchor="middle" dominant-baseline="hanging">Jairnt</text></g><g id="scaleBar" transform="translate(4 70.786) scale(0.075 0.075)" stroke="#4C5950" stroke-width="1.6" stroke-linejoin="miter" stroke-linecap="butt" style="font: 18px IM Fell Great Primer, serif" fill="none"><path d="M 0,-12 L 0,0 L 166.073,0 L 166.073,-12 M 41.518,0 L 41.518,-6 M 83.037,0 L 83.037,-12 M 124.555,0 L 124.555,-6"/><text text-anchor="middle" fill="#4C5950" stroke="none" x="0" y="-17.4">0</text><text text-anchor="middle" fill="#4C5950" stroke="none" x="83.037" y="-17.4">25</text><text text-anchor="middle" fill="#4C5950" stroke="none" x="166.073" y="-17.4">50m</text></g><g id="compass" transform="translate(67.973 70.786) scale(0.075 0.075) translate(-80 -80) rotate(0 0 0)"><circle cx="0" cy="0" r="30.527" stroke="#4C5950" stroke-width="1.6" fill="none"/><polygon points="35.414,35.414 0,3.645 0,0" fill="#4C5950"/><polygon points="0,3.645 -35.414,35.414 0,0" fill="#CCC5A3"/><polygon points="-35.414,35.414 -3.645,0 0,0" fill="#4C5950"/><polygon points="-3.645,0 -35.414,-35.414 0,0" fill="#CCC5A3"/><polygon points="-35.414,-35.414 0,-3.645 0,0" fill="#4C5950"/><polygon points="0,-3.645 35.414,-35.414 0,0" fill="#CCC5A3"/><polygon points="35.414,-35.414 3.645,0 0,0" fill="#4C5950"/><polygon points="3.645,0 35.414,35.414 0,0" fill="#CCC5A3"/><polygon points="35.414,35.414 0,3.645 -35.414,35.414 -3.645,0 -35.414,-35.414 0,-3.645 35.414,-35.414 3.645,0" fill="none" stroke="#4C5950" stroke-width="1.6" stroke-linejoin="round"/><polygon points="80,0 14.191,14.191 0,0" fill="#4C5950"/><polygon points="14.191,14.191 0,80 0,0" fill="#CCC5A3"/><polygon points="0,80 -14.191,14.191 0,0" fill="#4C5950"/><polygon points="-14.191,14.191 -80,0 0,0" fill="#CCC5A3"/><polygon points="-80,0 -14.191,-14.191 0,0" fill="#4C5950"/><polygon points="-14.191,-14.191 0,-80 0,0" fill="#CCC5A3"/><polygon points="0,-80 14.191,-14.191 0,0" fill="#4C5950"/><polygon points="14.191,-14.191 80,0 0,0" fill="#CCC5A3"/><polygon points="80,0 14.191,14.191 0,80 -14.191,14.191 -80,0 -14.191,-14.191 0,-80 14.191,-14.191" fill="none" stroke="#4C5950" stroke-width="1.6" stroke-linejoin="round"/><text text-anchor="middle" dominant-baseline="baseline" style="font: 24px IM Fell Great Primer, serif" fill="#4C5950" x="0" y="-84.8" transform="rotate(0 0 0)">N</text></g></svg>